<mxfile host="app.diagrams.net" modified="2023-06-16T05:23:43.100Z" agent="Mozilla/5.0 (Windows NT 10.0; Win64; x64) AppleWebKit/537.36 (KHTML, like Gecko) Chrome/114.0.0.0 Safari/537.36" etag="H6H46Bj2EEjrqkd76Oza" version="21.3.8" type="device">
  <diagram name="Страница 1" id="4z00RaQAxQmhVNx2afPg">
    <mxGraphModel dx="1816" dy="510" grid="1" gridSize="10" guides="1" tooltips="1" connect="1" arrows="1" fold="1" page="1" pageScale="1" pageWidth="827" pageHeight="1169" math="0" shadow="0">
      <root>
        <mxCell id="0" />
        <mxCell id="1" parent="0" />
        <mxCell id="HRxc4X_hzgKkuUtEuaF5-5" value="" style="rounded=1;whiteSpace=wrap;html=1;fillColor=none;dashed=1;fontStyle=1" parent="1" vertex="1">
          <mxGeometry x="175" y="330" width="170" height="120" as="geometry" />
        </mxCell>
        <mxCell id="HRxc4X_hzgKkuUtEuaF5-1" value="ZooKeeper" style="rounded=1;whiteSpace=wrap;html=1;fillColor=#d5e8d4;strokeColor=#82b366;fontStyle=1" parent="1" vertex="1">
          <mxGeometry x="190" y="350" width="120" height="60" as="geometry" />
        </mxCell>
        <mxCell id="HRxc4X_hzgKkuUtEuaF5-2" value="ZooKeeper" style="rounded=1;whiteSpace=wrap;html=1;fillColor=#d5e8d4;strokeColor=#82b366;fontStyle=1" parent="1" vertex="1">
          <mxGeometry x="200" y="360" width="120" height="60" as="geometry" />
        </mxCell>
        <mxCell id="HRxc4X_hzgKkuUtEuaF5-3" value="Kafka" style="rounded=1;whiteSpace=wrap;html=1;fillColor=#d5e8d4;strokeColor=#82b366;fontStyle=1" parent="1" vertex="1">
          <mxGeometry x="210" y="370" width="120" height="60" as="geometry" />
        </mxCell>
        <mxCell id="JmjW4H4n3zkzEFeAkcXk-7" style="edgeStyle=orthogonalEdgeStyle;rounded=0;orthogonalLoop=1;jettySize=auto;html=1;entryX=0.5;entryY=0;entryDx=0;entryDy=0;endArrow=none;endFill=0;fontStyle=1" edge="1" parent="1" source="JmjW4H4n3zkzEFeAkcXk-11" target="JmjW4H4n3zkzEFeAkcXk-6">
          <mxGeometry relative="1" as="geometry" />
        </mxCell>
        <mxCell id="HRxc4X_hzgKkuUtEuaF5-6" value="Kafka Cluster" style="text;html=1;align=center;verticalAlign=middle;whiteSpace=wrap;rounded=0;fillColor=default;fontStyle=1" parent="1" vertex="1">
          <mxGeometry x="200" y="440" width="120" height="20" as="geometry" />
        </mxCell>
        <mxCell id="HRxc4X_hzgKkuUtEuaF5-10" style="rounded=0;orthogonalLoop=1;jettySize=auto;html=1;entryX=1;entryY=0.5;entryDx=0;entryDy=0;endArrow=none;endFill=0;dashed=1;fontStyle=1" parent="1" source="HRxc4X_hzgKkuUtEuaF5-7" target="HRxc4X_hzgKkuUtEuaF5-5" edge="1">
          <mxGeometry relative="1" as="geometry" />
        </mxCell>
        <mxCell id="HRxc4X_hzgKkuUtEuaF5-7" value="Kafka Backup Daemon" style="rounded=1;whiteSpace=wrap;html=1;fillColor=#e1d5e7;strokeColor=#9673a6;fontStyle=1" parent="1" vertex="1">
          <mxGeometry x="390" y="320" width="120" height="60" as="geometry" />
        </mxCell>
        <mxCell id="HRxc4X_hzgKkuUtEuaF5-8" value="Kafka Monitoring" style="rounded=1;whiteSpace=wrap;html=1;fillColor=#e1d5e7;strokeColor=#9673a6;fontStyle=1" parent="1" vertex="1">
          <mxGeometry x="390" y="410" width="120" height="60" as="geometry" />
        </mxCell>
        <mxCell id="HRxc4X_hzgKkuUtEuaF5-11" style="rounded=0;orthogonalLoop=1;jettySize=auto;html=1;endArrow=none;endFill=0;exitX=-0.009;exitY=0.12;exitDx=0;exitDy=0;exitPerimeter=0;entryX=1;entryY=0.5;entryDx=0;entryDy=0;dashed=1;fontStyle=1" parent="1" source="HRxc4X_hzgKkuUtEuaF5-8" target="HRxc4X_hzgKkuUtEuaF5-5" edge="1">
          <mxGeometry relative="1" as="geometry">
            <mxPoint x="400" y="383" as="sourcePoint" />
            <mxPoint x="350" y="390" as="targetPoint" />
          </mxGeometry>
        </mxCell>
        <mxCell id="HRxc4X_hzgKkuUtEuaF5-14" style="rounded=0;orthogonalLoop=1;jettySize=auto;html=1;endArrow=none;endFill=0;dashed=1;fontStyle=1" parent="1" source="HRxc4X_hzgKkuUtEuaF5-13" edge="1">
          <mxGeometry relative="1" as="geometry">
            <mxPoint x="280" y="310" as="targetPoint" />
          </mxGeometry>
        </mxCell>
        <mxCell id="HRxc4X_hzgKkuUtEuaF5-13" value="Kafka Operator" style="rounded=1;whiteSpace=wrap;html=1;fillColor=#dae8fc;strokeColor=#6c8ebf;fontStyle=1" parent="1" vertex="1">
          <mxGeometry x="270" y="210" width="150" height="60" as="geometry" />
        </mxCell>
        <mxCell id="HRxc4X_hzgKkuUtEuaF5-16" style="rounded=0;orthogonalLoop=1;jettySize=auto;html=1;endArrow=none;endFill=0;exitX=0.613;exitY=0.993;exitDx=0;exitDy=0;exitPerimeter=0;dashed=1;fontStyle=1" parent="1" source="HRxc4X_hzgKkuUtEuaF5-13" edge="1">
          <mxGeometry relative="1" as="geometry">
            <mxPoint x="390" y="310" as="targetPoint" />
            <mxPoint x="325" y="280" as="sourcePoint" />
          </mxGeometry>
        </mxCell>
        <mxCell id="HRxc4X_hzgKkuUtEuaF5-17" value="deploys" style="text;html=1;strokeColor=none;fillColor=none;align=center;verticalAlign=middle;whiteSpace=wrap;rounded=0;fontStyle=0" parent="1" vertex="1">
          <mxGeometry x="300" y="280" width="60" height="30" as="geometry" />
        </mxCell>
        <mxCell id="JmjW4H4n3zkzEFeAkcXk-1" value="AKHQ" style="rounded=1;whiteSpace=wrap;html=1;fillColor=#e1d5e7;strokeColor=#9673a6;fontStyle=1" vertex="1" parent="1">
          <mxGeometry y="320" width="120" height="60" as="geometry" />
        </mxCell>
        <mxCell id="JmjW4H4n3zkzEFeAkcXk-2" value="Mirror Maker" style="rounded=1;whiteSpace=wrap;html=1;fillColor=#e1d5e7;strokeColor=#9673a6;fontStyle=1" vertex="1" parent="1">
          <mxGeometry y="410" width="120" height="60" as="geometry" />
        </mxCell>
        <mxCell id="JmjW4H4n3zkzEFeAkcXk-3" style="rounded=0;orthogonalLoop=1;jettySize=auto;html=1;entryX=1.02;entryY=0.88;entryDx=0;entryDy=0;endArrow=none;endFill=0;dashed=1;exitX=0;exitY=0.5;exitDx=0;exitDy=0;entryPerimeter=0;fontStyle=1" edge="1" parent="1" source="HRxc4X_hzgKkuUtEuaF5-5" target="JmjW4H4n3zkzEFeAkcXk-1">
          <mxGeometry relative="1" as="geometry">
            <mxPoint x="135" y="376" as="sourcePoint" />
            <mxPoint x="90" y="393" as="targetPoint" />
          </mxGeometry>
        </mxCell>
        <mxCell id="JmjW4H4n3zkzEFeAkcXk-4" style="rounded=0;orthogonalLoop=1;jettySize=auto;html=1;endArrow=none;endFill=0;exitX=0;exitY=0.5;exitDx=0;exitDy=0;entryX=1.027;entryY=0.133;entryDx=0;entryDy=0;entryPerimeter=0;startArrow=classic;startFill=1;dashed=1;fontStyle=1" edge="1" parent="1" source="HRxc4X_hzgKkuUtEuaF5-5" target="JmjW4H4n3zkzEFeAkcXk-2">
          <mxGeometry relative="1" as="geometry">
            <mxPoint x="134" y="420" as="sourcePoint" />
            <mxPoint x="90" y="393" as="targetPoint" />
          </mxGeometry>
        </mxCell>
        <mxCell id="JmjW4H4n3zkzEFeAkcXk-6" value="ZooKeeper &lt;br&gt;Cluster" style="rounded=1;whiteSpace=wrap;html=1;fillColor=#f5f5f5;fontColor=#333333;strokeColor=#666666;fontStyle=1" vertex="1" parent="1">
          <mxGeometry x="200" y="510" width="120" height="60" as="geometry" />
        </mxCell>
        <mxCell id="JmjW4H4n3zkzEFeAkcXk-8" value="Cruise Control" style="rounded=1;whiteSpace=wrap;html=1;fillColor=#dae8fc;strokeColor=#6c8ebf;fontStyle=1" vertex="1" parent="1">
          <mxGeometry x="70" y="210" width="160" height="60" as="geometry" />
        </mxCell>
        <mxCell id="JmjW4H4n3zkzEFeAkcXk-9" style="rounded=0;orthogonalLoop=1;jettySize=auto;html=1;endArrow=none;endFill=0;dashed=1;exitX=0.654;exitY=1.067;exitDx=0;exitDy=0;exitPerimeter=0;fontStyle=1" edge="1" parent="1" source="JmjW4H4n3zkzEFeAkcXk-8">
          <mxGeometry relative="1" as="geometry">
            <mxPoint x="220" y="320" as="targetPoint" />
            <mxPoint x="319" y="280" as="sourcePoint" />
          </mxGeometry>
        </mxCell>
        <mxCell id="JmjW4H4n3zkzEFeAkcXk-10" value="manages" style="edgeLabel;html=1;align=center;verticalAlign=middle;resizable=0;points=[];fontStyle=0" vertex="1" connectable="0" parent="JmjW4H4n3zkzEFeAkcXk-9">
          <mxGeometry x="-0.291" relative="1" as="geometry">
            <mxPoint x="-1" as="offset" />
          </mxGeometry>
        </mxCell>
        <mxCell id="JmjW4H4n3zkzEFeAkcXk-12" value="" style="edgeStyle=orthogonalEdgeStyle;rounded=0;orthogonalLoop=1;jettySize=auto;html=1;entryX=0.5;entryY=0;entryDx=0;entryDy=0;endArrow=none;endFill=0;dashed=1;fontStyle=1" edge="1" parent="1" source="HRxc4X_hzgKkuUtEuaF5-6" target="JmjW4H4n3zkzEFeAkcXk-11">
          <mxGeometry relative="1" as="geometry">
            <mxPoint x="260" y="460" as="sourcePoint" />
            <mxPoint x="260" y="510" as="targetPoint" />
          </mxGeometry>
        </mxCell>
        <mxCell id="JmjW4H4n3zkzEFeAkcXk-11" value="connects" style="text;html=1;strokeColor=none;fillColor=default;align=center;verticalAlign=middle;whiteSpace=wrap;rounded=0;fontStyle=0" vertex="1" parent="1">
          <mxGeometry x="230" y="480" width="60" height="20" as="geometry" />
        </mxCell>
        <mxCell id="JmjW4H4n3zkzEFeAkcXk-16" style="edgeStyle=orthogonalEdgeStyle;rounded=0;orthogonalLoop=1;jettySize=auto;html=1;entryX=0.5;entryY=1;entryDx=0;entryDy=0;dashed=1;fontStyle=1" edge="1" parent="1" source="JmjW4H4n3zkzEFeAkcXk-13" target="JmjW4H4n3zkzEFeAkcXk-2">
          <mxGeometry relative="1" as="geometry" />
        </mxCell>
        <mxCell id="JmjW4H4n3zkzEFeAkcXk-13" value="Remote &lt;br&gt;Kafka Cluster" style="rounded=1;whiteSpace=wrap;html=1;fillColor=#f5f5f5;fontColor=#333333;strokeColor=#666666;fontStyle=1" vertex="1" parent="1">
          <mxGeometry y="510" width="120" height="60" as="geometry" />
        </mxCell>
        <mxCell id="JmjW4H4n3zkzEFeAkcXk-17" value="" style="shape=image;verticalLabelPosition=bottom;labelBackgroundColor=default;verticalAlign=top;aspect=fixed;imageAspect=0;image=data:image/png,iVBORw0KGgoAAAANSUhEUgAAAFQAAACRCAYAAAEqSa9QAAAAAXNSR0IArs4c6QAAAARnQU1BAACxjwv8YQUAAAAJcEhZcwAAFxEAABcRAcom8z8AABTmSURBVHhe7V0LlGRFeR4lQY3gTlf17AJBkDwwgkrEaIjncE4CSTzEKEoMJiAnRHOCTxIxC/EQwzHmJFFzsholMSGY4ANhVUTZnel7b/f0LI91WR4BWaNZsy7ua6afMz2zzL678301/529c7u6596ZubPT6/3O+U/frnf9VfXXX/+tqtvXy6i66qqap1sTw7oiTnZUPP26KgKaZ1e3jj2aNc9WjBd0q+5lzpG/fX5EK1CEv/cDTI7oFiMbj06oF3SVEY58J9vi76FHsqY4hzd3KZIPRqjl9ZHnHpyJLM52BAMsLnDN1dfQcXxYN5soK599kiAzKLvZX/QdrQGCmCjq1h4v+5oWwP9dA9cKmav9AFPgcwORjUcnHARfGYHNLU7dMf1QhAY4KXHw4Wyrnp+HTeTleEHtbYzoN3dtqaDnvAGR7Zv9Z+PYCQxAquUyL+VvyRn4ZbbYvsEzBiRIO0Zz6n4J/HaTgKv+TLzmgp7yaBD+P4ujGLWTIzMdBQOxdXRLoNNwVNKRz0wBYsmUme4mACEeu0q5gYv4XPayvytec0HPZrN5J4cHnzFInidec0FPZHuL/2wcO4EB5g2UopdwAMPXb9YwSZB4YKdmZHTTA+I0iwUn7MvjsqsfFqdZLDhR4hAmTj8BG0WaWONgdGjVy2wZ+TS1aYE1oSrDBMCi/xQng1pBbac75Yk4RYdfKvk7i1FnzYs7+c0LX3nxyS85qeOEu39TthmMZKO9g+ptEryvo8Dz4fdT6F3H+B/S8gjoWj77CfI5FvxEUY09/E/xi0RNBgtOlGg91rmfSpCFI7a2kyJFig6Y2jSjyJE4fZQGB35evBYGDsvwmCdNFLOPS5B48FVLlhBa7Svotl8WhSQTKC46RabSK35NcYqGRiHzBkbkwlicZlFy9cfpF3t6fvzf+n5aStMWEVOMceeKRpyiw080WCLw9l9897Gc+i1xjo4xb/XP+Ql0on0b9a9I8OggG3wzgE+NYT3kz1+kynD2tfWC2kF20M4wWdSPSPT4CCYcpkVNO34iXILW2CtcdbvvRsVCgkVH2VE3+gmI0yx890ZBv1ycoqHqqUlTorw+Kk6zYI8xCbuqIE7RAL5tY0TqU+I0C79xK47+tDhFhymNIXWjOPVh9f4l312couP79+vTjyfaTuh6UxK0HVyoG0mFgAfwXPH0r1cCCdKY4z/7hNI+JtHb0Ume+vRcXFsO1/SMyFKOQ7+nWz2vphecIOFH5jNUyCuoSvLZ156ptPF/ZFSL6mxGrIuRkQkSSNyrOup6+i3IjBUqaZWJ8hkNc4juNPrxfyz4LR4sUVCe1gqZC8U5OlrbLjjVTyBMra0D8UsZBPrlnAQxbx0Ur8XBT3j/Jv2cOC0NpkbU0iaYIkWKFCkSwLb1F5w6OayvLLvZ2zBff6Q+kr1UvE48MNmNUrEIToA2ol6KcF+TaMsHZLrLpvhxLUyVioZgWwWoh5Q99VFJJllAwTHLhDlU0HeIdxsmirocrhT+f0a8kwH1yKDOTQ7V3OwfindHlF21NVjQBamFcTA6lLlwXEwdJDbvBBa14t0RWPbcHSyobX215KCeG8yU//d++/g+gjCwTP0rX0eeJXBYvJNF89GBuRmDyF2aCsC9UWis9W4rfi55y4PZ10hyyaKUy7whvO+gE1HV9s1AQaJ02DeoXydJzkFrfd8p8rh0mCyelq3n9ReqeV2lzGSh0Nw7J4fVrRLEYNRZdZ6N01yS2hbGQWK6kCBbJKnlwe5BdXb4BVCY2vq1EEXdxLDqbCpYaoQ5S1Nk2cneJN5zAElzd7jgyyI5qmIGipNpqThwWtj+V/My68Q7GfhGsNkMLcYwG2YNZD7FNZTFBTL4QPClJAl9707xtqKeVz8IhqdeUcnpXxLv5FDK6fuCGZMoi+sFdRAc/2glr98KsbbOJtZmKqk+JEnFw0TuJQqR3wVu3Q76XN3T1+799pk/I96zoPHPNmFEIY54FlySig6M1DGahG2JBsk0k6e3HLaIJA4Q+F05ns9eTNnLSYTbJTg10/rGNxuUn6UNA2dIttEBjv0grLqRKLS5o+8YRI//nqYTsSAVZ2YPVCIou3p3W8Z59RXxbgPNrpxCg+HLjvbEOxnQFhyWZSjEWvo1m82fNUbOAOB2sYnn6q8G48R+lxQX3G02JaZiEmeLci7zDvqhXNfPFO84UNBP0q/uqX8IFnRB76figsI5mGkDU9+ooy8Tb3L2LJTR2LoJTIs3htdP0FF3iHey4KaZYMYkcpfzd8VVz0FMTdu0JPZVSInu23+XGmP51WsoD8MDxUaUECx4q9X3fIl+YsA+ZyswCzg10r7T64SDgpoFZgExGUyLc4oUKVKkSJEiRYoUKXoO3P1TdtWfQ7v/OFaZ7w6euFwRmBjWm3wTDleitLTxlxZkLugmiwm/pZsPJUe9PapVjgXePnha56NySaHi6Bt4XtNWqE7ESo06a1ZLEsmjPJQ9c+bFV3thuF+R3OOecJt/4u9Ag2iM6CPhAvBlQT2v/nr7YN8LGGbioVWZWl49ENwOTuIyuuzq+0xCSaL+UOYcDpJg5ixk6za7BWRsUF3C/ZXB8MvC1Yqn7w1mypFe9lZ1facJUfXFYBye96666hLxTgZVV08FM41iPiS32/t09h/FOxlQPgYzRH+riVdXtL1OdNU3xSsZYDAcC2aIZox0tCH8IguTwhfEKxlUPfVYMENu4xevjii72TcFDblsldKQvk68kwFno3DzY0DtFG8rwtzkK5lOUmJJYdtM0BjWPxTvWaCbnGXeIYVe80wUY56EWSgwfa4Nc5U20RnOqWk872JT214NmrAoOCq2W5JLFsjIukErKjHuRFHtleSSBQsb5mwnCs9mJLZCo5i1Fpa2fozS7qdX42B8WN/MPtupwJy5aC4fc/tfhbBzNhOQpBuMMi10l3UouHn3ydePjEeNq57Xh+vDHS5IiIual30HMnqSfXPmzZ46CG2/EN68hUJ911bYtgnBQnzHirDxj04tFJgk2goblaZnpMh7JKnkgW7wFDlpKwzJLGdCbj6xWyzb5i6ibX8IiF0A4m8E9M5aPvMn6J/P2K46oHIuySSLiqM2BjOmBIBkMCfDw/jxhlWZwLHJ43Ec/T4JkhzCGfO/eFkxXlzVzyYPxgEdFu9ksH593ynhTMHRORcf2AApsjMYh0t08UoGDS97fnAfHjX+ibx6vXh3BAp6a3CARdHcFoW2gnLvSYSCQtle3oLamr7mZrpuziIgzn4UjNP1Fq+lQtzBtMPLrJpuF1PJDiYC4mlDMFMRT9b9eZWH9em2Kbbkqg9IkGRhu7SFBaq52qu52aurjvojNPfTNoGf+Ij3MV6Yy9E4ZOZ7Z/6d6h1R8zK/hlH5t5gx7oAouY0XXonXHGCUD0bVY8NEq0tpoTMSuLOVc++clSaI8pFNNFnUGyRoH+ZuJ5gxicqJbd4PE0f5qKN+VZKKjtKQuiqKfZQDZWZBqAptfijklOw9qRX0ZyehOLPQRnEGkQGo8CG0wodNpnFRcvV1nRZvUYmFxEjvtINn8cuQOmSaranY3GbNvnVmGRH2D5Lh5FIffw2jXlD7wxkbsZLXN0sQc3ECmnIdp7lwWClkstvTyc3wbkfOKp1OIfzfN9asDnOf8lO8kwMGxrpgphzplbz+DfHmBsLNssvxaXHCHJ35i2AciiakY+5kSgwYuT8MZkpuiRcLWWEhfeD/EfGybUtP1uxIk00wQ67bxWv2MH8Q4tVuH/XUU+KVDMCJsWCGlHfiFa+griqKVzLAiP16MMP9D4KrWHzRD019qZTPx/V0r+bU641yHIgHjn6Efomhnhu4aCIwVZIaIaGNApt9zT7C9nu2gm1//pIjLBspFzGHH6DeKEEM9nqZczh70T8YHmEPSZBkgYwv5z2ywcxJ5JQRV55u0Hpne3tnwiznW2cMhjYFYz4CJ8nd5X/TXB9WhfZBYidyGIJ+3gVcYkAz/2WUs3J8SSFRThzQnLfQANupkGM5/VYJeuKB5cfNYc5y4Iw5xy9qXDGoOZmbsOw4XsiVxMkweAqR0+Wo05/c8Z+lwrPfWnWePKZIkSJFihQpUqRIkSJFihQpUqRIkSJFihSLxW239T2fOw7GC/qzjaJ+ouLpozTsc9MJX97Tfs6tENx8Yl7x5XWN23gaxeyH6oX+cyWZn2zsGdIvbxTV/WQSmRbcsBWHePFVc2uW+0qr44Xswq6c62XwuyJTm3STPTD8xnuxxH0y/EJYvaAe41t1yfLkRMlRv82tqbatA0kQ96dVXT3UaiVwz+uJBhj4H82t0Y6Bk+GUmZCjB6uuepIbnuB+b83TLtx28xY2X0TgvzUNn3iqG6Jgeizf/2opSu+j6ma/zA2ntgr7xC0ZZCKG7Df2bYg2ydS9/msbw7pCGdytx3NDGJh6FGGW71xTUkAl3mu22HXZnkz/Wl4VeSZAosVCxe1/C2b+o9x1bEufNHOCU+1obj77RRKt97ALhceQ/F74pHyQ2CvL7uKv5ufGdfRE7mq25sMGPbLF9OT3SpTeQynXfxEq0OSQs1WSlYdcPLKgzxRZUPHUHWY0WPIisfEgj78swXsPKPwlrEinXsNtROjBE/XCGUuimKPx/s4wzZIXicxGmK9L8N7DlLNmNSpQ4/Y6WwW5/f4wVkKYkN4vURaMncVzXwgZ+b/UbW15kahG1Vz9NxKlN4Ee+O88nmKrIImzu9kqOKSukiixYZatrnrYdsrJJxkNB2N/iHClgccZ0Et3h480BIm6JIcjKv3onlzmpRI1EhD3fZjhj4V3IQaJqyfaBKoF9UGJ1tvgEhAVG5/vaBAZy3NI/FgEVKBBfgVwn6teUd2iXsJbtXmNEhrn8qqnPlEr6D1yXmle5Z7E9f5kUe/Ys8F+8qzn0BzsewEmqeKxiFc3k9iz2PNoXWJjUBZ30zXnIzSGGQnQOvbtW8z5wJUEHs/DrF83M66l0stBZCzlLe/k6PSdl55DeWP2/ImCGuaSdD5REIW4rudRMzRSHQx7dr5DeyS/x3ZiLD9EMlXQl/EEDUbLXdBzR3g+CXk8g9HGD0YNYun7z0jnPVMPrn71slzwEwX8qnc1rz41UdC7/I9BkCEiS83QJ1Ej4CKBExwZITL0CHq8O56fu8N8dGjNyxD2mWNd9FKfyFjmi98fU/GveWqa51WZTxQRw7KxXDysQ41makQ/C7cP77p3BS1zW8W+n6IlnkvKej57KSp2GT/nVBvKXNjwztISbF5wAzrk8NNkvo0ZSRGZzEVGo6gmK7mEzzGeCPxoQ/+5aJRlZyx7P82NpLKT+QMpzskDVPAsyL1Hu+nFYfKHM8UMf33if6p57I22eEEiYynKyo56bPvgL5g7IU8KlJ3sFewt3WQjK091jScnIdfvo01CoreB5kCEv6bu6e+RYfMx17z28fRufjVJkuhdVLDsRKUOdltVkdGm0rn4Zj7O8jVPf42MtaXtE3s2GunBnn81U3X1Pd0qy9UU1K/aYk+cosdex97dqbfS3ZwbdtUfS5Tew+TgGQOoaMV2bNcn9pxyfmkmjrKrvtRtAqTfstydmxRGncwroZQ/12m40x0TxoGa2/8qibIolDz1Qeq2nXqp0Xs9/TCG/dLdkric4JfA5uuhXI7yIkSJsiig8b7YtYdC9KA8vdtDCVTyq91kKFdmlKGL3SCBnndtFBlazmXfJVF6E2Uvez4qO+8sTx11zNE3SLQ4eB6Wx/d0ew1DoqymQbyI1aDE611gtXIFrxnpto8KQ9GYCmlPgFK/vtLlo9WtbX2n1goDv1/Lq+9G1UMxUvbu8U6PvHxe0eCVJtW8HopijfLJXymx55HYw/xfpkOjjS1ekNhIRty46nG+/5Li9C62FQdOGx/WG7lLjy8HbZVOgshIrsxoohzL6WukOMlj23oMneH+N6HSd4F2sFdQcLMXcLakWYy/fq9gYbEsfIb2SF6wJ8m0YdRZ82LIxRz3VS0nI5kXezEWC5OQx++U4iQL7g8F4x4g4zikogwdG6EBzHDCZNOse+pfeVnQrs19L4KcdNkjbXGCxF7EiQgTVgPy7VtYUR3gvXx06yZrg2Q6AOpAgznk726UZe2y2UPHnMwNGAZHaalhZWwFXAxR8JulncUvSMybYXlxoe0KFDZMzR14Yz2vbgXdjTiPgOn/U/HUdtBTYH6+XlCfrzj6/RjSFy+7ks6hiZY7aHpDAoyMSj4j0ZOmx4b0lVK83kI5pz5hNsBaKhgmfjOG8gcVb3BXHn7vxNr49kpe34VZciv+H5YhHutFn89IjI79eH6LFK33UHEz/2T7eESQqL+RiTVPfbMWcbMDX4+AqU8wni3NIJH56JGlfYOZ35HovQn2BG5n7KbwckJCz3uCE4lEm0Wr1ToF9Npms3kF6BI8t+lw5Y2nn4+JqUr1xJY+iQxFHpOjTo9fckTBTVXHVkkSDRIlV22S4LMA864GHeMNiTbAb85pj73FM7NQVfbt78JUuVH3UxKl98CPfKMiHXffUU2aeSevflOiGIBZNwrfugLhPi1RDMDQtd2GP/VXjJjNErz3UB1UZ2OYTdvuaySRoeZevNCd9WDU54VnXYFwrkQxqDmZP+3KUIgeNN5/96wNkvuZ0COenqmIvZKyvr1dohiAV/1g1vYZttkB/2nQBRLFoOzoR4w8tuRDIrNpSZfgvYmKl+k6DEn0h/rzMYkyCzDslaB7QKOgQ6AqyAFdLkFmUXHUA5KONQ+a5biagRJ+mUTpTchm2E3dJiZfP0SFy5Xc8Rumo6Caz757ciR7pJOc9okTEpg5R+b2LHYW+16IHvQkmUrm2SpMoh+t5gwHhf77WFl9jKfvxp0155WKA2fQQFx11NswbD8HWViisYQ9bz7lnswsu/q/pDgnD0roIcZ8FsMIQoZRhyRxcotqrCDRaEKZikYxd1OflKAqhYp+p0VzWgzGxiE2As116Mlf4aYzyfrkBvf3oOKfocmLvS/OmtxGFBe0AUCWHqq5mYV90uJkAZhxy0IZS0bSeoW4h0o59XuSZAoiDmPJSH5Lx9gyV+Kd0ysJUG/WcpnIO7DDjDWMhIoFv+mxwZSRsVD2MjeRsabHcmiDkY1hfaBnjcIrBdAGbj68JTuG3poyMkWKFCcX+vr+H2w4XOq1GvHNAAAAAElFTkSuQmCC;fontStyle=1" vertex="1" parent="1">
          <mxGeometry x="10" y="331.78" width="22.15" height="38.22" as="geometry" />
        </mxCell>
        <mxCell id="JmjW4H4n3zkzEFeAkcXk-18" value="" style="shape=image;verticalLabelPosition=bottom;labelBackgroundColor=default;verticalAlign=top;aspect=fixed;imageAspect=0;image=data:image/png,iVBORw0KGgoAAAANSUhEUgAAAFsAAABaCAMAAAGXs+qYAAAAAXNSR0IArs4c6QAAAARnQU1BAACxjwv8YQUAAAKFUExURQAAAAAAAAAAAAAAAAAAAAAAAAAAAAAAAAAAAAAAAAAAAAAAAAAAAAAAAAAAAAAAAAAAAAAAAAAAAAAAAAAAAAAAAAAAAAAAAAAAAAAAAAAAAAAAAAAAAAAAAAAAAAAAAAAAAAAAAAAAAAAAAAAAAAAAAAAAAAAAAAAAAAAAAAAAAAAAAAAAAAAAAAAAAAAAAAAAAAAAAAAAAAAAAAAAAAAAAAAAAAAAAAAAAAAAAAAAAAAAAAAAAAAAAAAAAAAAAAAAAAAAAAAAAAAAAAAAAAAAAAAAAAAAAAAAAAAAAAAAAAAAAAAAAAAAAAAAAAAAAAAAAAAAAAAAAAAAAAAAAAAAAAAAAAAAAAAAAAAAAAAAAAAAAAAAAAAAAAAAAAAAAAAAAAAAAAAAAAAAAAAAAAAAAAAAAAAAAAAAAAAAAAAAAAAAAAAAAAAAAAAAAAAAAAAAAAAAAAAAAAAAAAAAAAAAAAAAAAAAAAAAAAAAAAAAAAAAAAAAAAAAAAAAAAAAAAAAAAAAAAAAAAAAAAAAAAAAAAAAAAAAAAAAAAAAAAAAAAAAAAAAAAAAAAAAAAAAAAAAAAAAAAAAAAAAAAAAAAAAAAAAAAAAAAAAAAAAAAAAAAAAAAAAAAAAAAAAAAAAAAAAAAAAAAAAAAAAAAAAAAAAAAAAAAAAAAAAAAAAAAAAAAAAAAAAAAAAAAAAAAAAAAAAAAAAAAAAAAAAAAAAAAAAAAAAAAAAAAAAAAAAAAAAAAAAAAAAAAAAAAAAAAAAAAAAAAAAAAAAAAAAAAAAAAAAAAAAAAAAAAAAAAAAAAAAAAAAAAAAAAAAAAAAAAAAAAAAAAAAAAAAAAAAAAAAAAAAAAAAAKdFlu0AAADXdFJOUwDWQcMubxvxXJ0I3kmKyza4I/lkpRDmUZLTPn8rbK0Y7lmaBYfIM3S1IPZhog3jTo/QfL0o/mmq61aXAthDhMUwsh3zXgrgS4zNOHm6JftmElOU1UCBwi1uGlsH3YnKIvhjpA/lUJHSPX6/KmusF+1YmQTaRYbHMh/1YKEM4k3POnu8J/1oFOpVlgHXxC9wsfJdngnfSje5JPplphHnUpPUgMEsba4Z71qbBkeIyTR1Ifej5JDRPH2+Kf9qFuxXmAPZRIVysx70X6ALTI3Oeib8Z6gT6VSVsptTMwAAAAlwSFlzAAAXEQAAFxEByibzPwAAB4JJREFUWEe1mYl71EQUwAdFxZYilEMoIOBdbD0oBUpB5KoUpQgURURBBNq6SmUBLYgih1wVQQU57BYWDwRBUUTqU0E8OBaFYsG/x3dtks0m2SzC7/uaee/Nm2k2mXnzZmII4KsATo2VQlVIrjRdRd4Pl7cMnDlSlJQ2w0yVSggAVEHnwUnNmEvmT5VngPkqJnJqBylydbUKxkw0xd1VNKai1JgilRGrAyBJZLxaPTll9ok61GQV2s0yEcuMSd602B3gb3JZmGaywRpRnBxH9ynGNKY3Y5Wb5ZMkoFcnco24/OELvLzm6gFBrzp2xb+palM8++cWeK3iRjZX2NH+1Rbk53S08LaO93Eno1cFLDZml5cdEgn23+B4z4T2T0UfsSjwNF6mYV19andwI13QdtFpv0v6AZjNdRYAR7dizYNUvUltSBX5rKCbTUXapvTAqP0yK07wddH7uvAC/3ub5fQPaxcCnIy6emOVLmN87IdT7O0AVhtTTt0577YRYjGYi0KsfqJYBBjh8/zXG7PWw36AOn5fFSfTASar6MG91Ay5WfVgvkXP5ZHeeG1USxDNSbdd4DUB3bwNMJaFtQA7WQhmAN84MZt1ui3kR1a8KH4Sq78T+TdyjcfpKgYvAEZZkrj18fevrcegmitDH714xh4CSMbSFJ6j/6uMXyZlK10cMdrmUaqhMb+OBJhhTNM0EjpLtRus+VvFOSir6Au6vKrithDuO9DnJEv7UKqncVO9BeDhp9iWDg4Cizu0ZBapg5uDo7l6bjkpKDxA5Sl/f/vl2FIXgF0seFBsu/+O4lLT73UsjqgpFZ6txBzRcSAT7URzQ6GrFsu7sfxVTEHgk5FAEG560I/biEUJlmLIAIVLokb1THTH+97tCK2BfCJ9x1UNpkacg96hzRr0WxmJjMDiZzUFgJOO1yGMriVsCAT75LItKQSCTvw4GkJ552ucXQAwkA2B9MQ++0Zz9mBxQiyJoqJzCRHTQTdBAkQbTWygJcIbrk2O2jGqwTxWPeAwqGsHDfFu8Uq8akaYDg7cqEgUDk9juQRLsaQzE0Dzww8AHmEBva3s1cUJDIgiofetLOj/8OD5sQD9h7D4JUAFC+i9kAUX57CCGYSPbz+W96ERV5qtUp3KXHElek9QoT9dLqqDE4oimBxydkgsOqxCT3VwwunN9yTdT1I+Zo+3k5BLaWQaX2MN5QYIzaEMk5MCsoo5KLqyTjcv29700Pie/HF4UwDN4E2Z1OO2SEExgBXoAjkkHSHpEEl5AD3qSEiHAiDU1NVdphIzQvOTCD4jUCsJbaHwApMGrjTCPh0GrZujZ7E4pfUuysgFgFO3F5OjCQ1+M3m+tdTg+KbEOGh809zZLBJ672AhlPc4HFlUUsLgdyeDADaoiKnH0fY82N5Si4vdWIXIpo+ehuD9BC9oLQxgFe+K8U7pKBJDC6czB8WyLwYxHgIeDMVpSCV64zTOBHpxeT2iPTp1oXJIKO83xasJi8/EEgi6KWoI5Lz6yg1l5hj5hlgsPZjObZmSgE1F9pzHSJ5CTcgfkxneGLnw2iddBfRaEUmHTRPFSCTMG86IxJX19lN4F9cqxOMgIGskJV9sryYNkteGSUIzcYV7ciQmbdL3tbjvgzj9kf7J5WQpq3A8RK6dmTaOQUisZca0mMrdNCYxH++J8R4N6mOX/EKwD+VWTEwyR4IjU2jPKqbiB60IS1fMfi1ablArcZMaHWxrr3WhGY9LBcAx1yquOdLK20hZVya72Fse4ros4OVhlH2CSMhyM8tO/2VL2M4zsQvAq29cSJF/VEMmsSE/yzfaNJlaHS4sVp2RvjuphtBeBqDUL9n1IFKE+wiLecPXqb28q1juVN2cOMN6POyGrbwb+6dCi+hIOvFSZm0seyxvuO5yR0vDjOTItEyHjlu8+TfkXUdytQEMjVN0qo5bWTaxF9PxZ2n3brH3D2mYmX76K2GBGhA+ICJ+6agWYzrk5U34Ky/vCb/zDS9WSy/DeGpYvCJvtnS66leHLjLHVVVWvCfmDHl5BrTv1Ns2m1aJ+f/1fY90slJV5SU9/Dqg+tVxWjqBHs4Dg45qdB5/RGsLCgq89nABbNdbhFPj+rFhZ91RtSA1vGi27bDzl9xV7BWOZ6wB7s1U3po76Rl2whvz0UZtk8LYDptqR6nM9M/Nte7CZ8vlSUOlLIdJzozWYLhd91mtfHSH6/Zw/qgBZ0UNy/xmOh0B+KZ5iVoI3Ogje1VDdH+RRYxlpJnulxSJ345t+2A2ZLs2ePaNWzKkl71leocNpdn2LcnbJNWEQjosA6hsELWJzmiR7J53cV2LNGv9cIaamETyHLE1r66XiqX6ZsNBX9oczJmidqIsGYaTLP5Ua8Kg795JlfMkt/lztSK78sJ941DogA6p6JuImpzEnlJR9axOiSYSBeNmJ3xP7Xw4z6d3Yy+paswCzu2XhfnokYnrmdtL344vP5rbX4u+J9ZzV9Y3xWJJaUtSk7erZA19t0JWLo9EIr1lskBjiNPlMIx3Ze+IbgivBW+kpm3xrMZwZrpX08cKgMnV4ZcVG2P+A7Lm38BwQIr/AAAAAElFTkSuQmCC;" vertex="1" parent="1">
          <mxGeometry x="220" y="387.33000000000004" width="25.61" height="25.33" as="geometry" />
        </mxCell>
        <mxCell id="JmjW4H4n3zkzEFeAkcXk-19" value="" style="shape=image;verticalLabelPosition=bottom;labelBackgroundColor=default;verticalAlign=top;aspect=fixed;imageAspect=0;image=data:image/png,iVBORw0KGgoAAAANSUhEUgAAAFEAAAB4CAYAAAH9Ky5eAAAAAXNSR0IArs4c6QAAAARnQU1BAACxjwv8YQUAAAAJcEhZcwAAFxEAABcRAcom8z8AAD+RSURBVHhe5b0HXFTH9jhO1Ni7KL3Dwja2AkuHrcAuS7WgNAVEeu+9gyh2o0ZjNL2Yanp/L3lJnslLXoopxvSemGqaCud3zuxFRbAn5v9/3/P5zIfl3rlzzz1z2sycOWN1NrCdbsVXhsQA9+95wLQWynY8doIvCT3/AzfUp8D2yiWQZQocWTnJd/633M+TsL8398h3+1dTxfGWKxxcm+g+6lXaDhG8vK1kyNjnP/Leoz3LISEhYQH9jm0IyYvu9oOoZl/wCXeGqFYJxHTKTj3w/LbKXR/d3ga9a80Q1algN6KbfMHQKICgld74gPRU5TPRsHWb8V50pxKM1T4Q1SiEwFTe2StHdSiOR7VIILrFF/QtYvjgzu5zVMbWojsUENUkgtAi8Yh7oyqzD2yTQVSDkKHBXbbAmZXFcW6sVXoouks54t74US23+sL0uRMF8etDIKJMcOoej8eDxXJ7yMnOPnlR4DCd/b7Kymor32YSmL3nzWA3EFzDwsIgPT2dVSgIsoNWnRP7nRNgAyUh9tCpd4ZlSpuP6NqY4CNSgLckIIL7d2zwlERC2Z7noazvuhOB+tRT+J4JtYlK91VxIdCZFTPIXTo7fHVfH3x4W8vZWyMwrlHBf3ZWEEuCqVL6Abv48tZC+OyO1iH2DwIRPBpZ0NDoC6p0d8aO7MantzbAjw+vgTd2VUB0mwQCF/ncqq8Xgm+kMxi75cCPctpvbBeNjQJxlSzNE6J7/EHbfFovnQn06ihkv6gGAXx+Tw/MnTUlgbt1CqxnzzARg8h0HsgoZ3DT6WBEATR2SaEouWi+oV4AxvYz+HQYDA1i5HoL8sTUMWerqOvwhbBCb3ZTrHOEiELRK+xGTk4OaHS6k0/5uc48+dvHZgr7vVQ8a45VcXExhISEQGNj7Q662BPlDLkqO1ahTe+Ev22hUeN48uELAk/fcHAXBoMbFh+ZBkKi0iAiNuviGjkTAGBCe6Zh8NCeSthelnjCWyQ5MjG641fu9qXD53e2Dv3wyDo4+uRm+PiOdji4py6cuzUazhT4s0Fcq3/uuzfUw8G99fD6rrJzP3O+Rom7mGLL94GKGv3Qezc0IFuKQVeNSq83ANQF/Ie4qlZWr+4oVH9wSwPAP7fAwVs6jn6JwsjdstLUyZkIRbfLwdyNmr1LAdoKIQSn8MGMTBeW5Q0xyHh2XnPaorv8IH7NacqcYHVGBDyzpeJd+v3KNQWt2qXIxs2nxEwU7fRRVKMFW7naEQxMywqwUSH4BC8AxTJPqjvTUpuDC6Gprl6BsiPDBknHo3i0SUEa7wKHbqyHxzeXdnPVTsGF0JQ+keSLhJJ0AdkCun7ohjr45PYWWBHjdx9X3QLnatTcg3TtVkJApiczLnK58BmmP5A8hmYpiAMdC7iqI+FcjTIssbOYHeSMD/0fgLowpkPOdGOGS8ZkVvl0OFuj+mpsED+ZPpcMa2yXL3gHec+Iahbj5wtAFOYE+oaRVs7K29sbMjMzQS/3BENUFJSVjWZol7kTj+2tWzTq+pEH10Bfrmk0MuhxFOfn54OfUg5qjQaWL18+olJhsB10GZygWesEqVLrk3Ku9Zy1MT/IFuoiHaAQDSFprBaskyKz/oJVaG5uBrVaDYGBgbBs2TJoampiDWdlZc1VOs8A+9mTwXbWZFC4nNKJYsdpIMd7Cq7QbypSpxmjMT8fJKbkFAaEx4GHp8/FP3w6uLi4J5AepeLICwB5aALTo8H6lJMW8qLAxZ0fPVGJZt64Gvzic7+epW44EZK0CgSKU6biomHcVVbw8pYCeP+GavB0dfopIijgZ40mTMbdvnioXqr/MUWrGPr+wdVQkxIJ799YO+Ti4jKayS8UJF4umZ/e1Qm/PLVl8PuHB+DwTQ1n/9wg11mPcj/PCeQEf3t/H3x5by98cPM5Glzpb2txbs4Du2qTh965sQHe2VsLi3JTDnCXR0Omv+0v3M8xwVQUdrOmWgYPtKTD6ry4oUfW5EFcmQI8guaPjeUy2VluIKBH+1Y0aXFUYzFdcvjvdVWQ36oZCi/2BnUZmou203yTd3eXwdu7qyBO7gwHtleMajSmDxVuNypa1DxMC6EWN6HejGnH/9F1Ivcpul0G2nzhD+yB164tg+WJuhd/fGwj/ITltT3Nj9N1Z0/bVFJf0TgCie5BC1gjgZAcHujrRZCyGj2mHj+IKPWF+HbfbcY2tEeo2SfNmuRuFf4UTN5TuxQaVy5++vO7u5n9eGVbEXurvoYPptV+DGtDm/gVfS0arr4A0NcJGMakxckLGbagAoGLlOpaPb1mRYli/vihO9szGlYmx1StK1n0m2lNAEiXeVrcMQQ2OEElS8MIA9puaoAwN/cFVRnRbJj7LWOpYbgqQ7HgrJ1CQLSLRhNA5vX155PY32i0jPQF6g4JCGWud3BVLXC+BvVN6GujndbWiEFbiQM0xFZfI4R3riuH1ZWJJBRTLDU5OC+GSFMivGU8SZ+ONgeN2GMbVsKvz2yDr+7uGKnGztWgvlnx8/Dn6hh2aMjIvOJLIvL48BHa6+c25Y98/lwNmvvJrCILsSEmMnc70pM6p04EIct9fuKqjYSzNTh9zuQQZlKpEeyE2H4aLMpBVyVAW83D8ctZhiJna3D9+vU2wzQLz/cGY48MYgcCmSNAJCDHIDwjbjZX/RScrUFdg+j3kx2B/BfbI4XYXuRJlG1jD/Y88qOpY4xxxtkaFBqdfqXPlcXhsAfpaGz3B1OXpUNojE+iacj1X8NVPwXLlWM3SB1BswfMvUNpoWvk8lFDfkvdwN1vAZhXhFzLKp8OKwNsx2wwNIV/f0gpDztEAIYGKbSEt0ywt7L3lphcWOfE95/h3TY0NIBOb4BQiRcsWbJkVKPJKtWUX5/YALNmzXLlLjFoy9RvPvLQ2tFItLS0gDkuDpJlDpCcnAw9PT0LuVsM+C7z4msj7EHmNP2koiDwx+FaqPss2LxhQxT939tUEc1udHV10VQNZMvnsr/oiR1jNxD8XWaU1UU6MoeIZgi4ywzycBi31ugCyb7WUI9+eV+0MxQHY52NGzfCokWLQCQSQWxsLJSUlJx8UGg77XgDq+wCpaGnGkxfnKSviXBkXtcyuQ3UoifWbXCGwiAcNyJG4qVLl4JQKISYmBgoLCyE1JTFDEuZ41TwmI9lwVRwmjsFZB42hXTd3mbe+mGP67K9rwuFqVOnKjxFqp88xJbBqsg/CgLUiyHMmAmR5ix0tFZAaHQayFWRd3KPXFnwlms+JMQ8RCHg6SkCB5kJbHl+UFGU94u9hxhWoMPs7KUEnlwHgdoUCDcuh2B1wmvc41cOfDw8Aq8KLQWrua6QmWw84e3h+seMmbN+GT9+3E9zFtj/bCXPhfy2TT9N1dcNegiCwc2Ddwv36JWD7WvKrfEPvHxNMXxyawO8vacG3kXj/w6O9b65px2+vasZOvMST/B5HnBZzuZlgtf7N9XChqIEeGxj2eDGskVDvYVLfv8OlcvNa+vh7o7lcG/XiuN761IgI/zvQ5LBG3vq4dN9nfDbE5vg/oFS+OmJLSe+fWANfHxnO3x0KxtzjZyUvhCgceuFOswXApuqM0o/RGTevqlp6MCDtxx//8VHh/5zXe3gu9jtT68/w124UCAks/xsv+L+vWSQmh0Wxq9XgXy5K/yjLwue3bhq8M1dFUBe7xtYHuxNH+rvN0PcGhXMmz0vjXvswoCQTFOMbRkvBMSR9q8b0S+PQXtuQJPsn+QBS7r8h4hyH97RDl/c1weHb26G6iI1OhVCMKEz4RYwn1lWabDzrVwzo+GultTX3thRAtogyaPb45xhqZRGH9OE3O3zglotcdCU42ChAV3LLvRoaNamGR05dC0NjWIIzuCBukEMPSsNoC5FX6JRALFrcNCBjh2bzCWXFD1vcqPM62gtxHca1/RJuPq+7pzDb11fDT/t7/ld5O7YefSx9fDtA/1AY4ZfHmGmfkzpC1rudsjYiU4M+WiEGPdXU47OdBN6SR2IALmx6L2r87yher0c8ruxPiGGrhnNXesaZOC/yAOMnegQIfL0kTQO8fF3OsS9xsrq+fVZNm/sLD/x352VcH1dGnx8V1f4b89t++PW3rxjX93fDzTtR0PU57YVQ1d2zLWSOBfWuBrHbeT/RdH4Az2uGPT9dFXi36hNXaXoIBvcIDVp1BRcIAKF3g2HaRbq0hAtJBcRovtdUnBT2j6Fj11Foy36IHL46V5ii18YtXcSXtyU//0711fBI305x764qxWeWV904l0c5n5wcz0c3FUOBzbnw7835UHvQJzFQUV+Ui30RIdUCjOmTrX4PhywyXFERofDlKBML+az84LtYO+tEVCyFpFHNzwky4vNY5pQcOgZMzq71C7rESyhS7zeYY2NAeOvX+gBmWfxUQkCUrxgxsSJI5A6HdR1gnfZi2hwgb4rsQAhpa+XgJb4tNMy8BguMX3+EBDndZw9g/4vY59G5adcc2MDSfe5Rjfng/gSbY4RJVVdzGeDFja8J1aoRj5toAU34j3LaJzWV9SVQsgqCDz2wqb8oY9vavqRa+bccLlIusnn5UW30jiPqBQAYYV80FciwsRrJO31FuEw9qtAsdAZQlArHN5dwyzQr09shPXFyZBlDv4X19zYcDlIGnKUaTSHPjxFy7qUpmx7A9jgNJp4jrqc7uF1WjAligZm+cDnaDppcjQxJdHnyL2d8M/NhWOPOQkuFckJEyYExW0MtiBFaodDhBCkvyHZfNSZeA35jt0nHkTqxuJws86cLHhq3cqvP7qxBv6zoxTqlutu5JodGy4VSb7a/qGwQgHEoPIOKxFapuOJkig4sRuCYNrVEyCmA/kQEdRVIwu00OgS1RdeI9UTtoRHy6AX5mxcKpJsrQWRiijE0Xy1AMLLfcEXB0aMN9tFIBO6JRlbsbuxTtBKpGoLKm0mWNj9SFFdyRmDzXPBpSAZlirYS2qG6U/kMcaL1K3U3Sgk5rUBrD1aFSXepDCAkBw0BsS7xKucqorpVrEptvPCxSLpb/TpiO0lxBBBEhD6i0pakohURPVDSBgaLOu7JmQBNhdA5hM/Rt8ih4iVPkhJGWhRA5iaWb2rqO454WKRNNYE3B+cg9aj1WIp6OX0l3iPURd/B67w/AOrTqApPiZMVAcRG/4gMpeaCvygCvnLllbPA4Rklp/NBSM5ffrkkLB8H9DWorCsCbSYNuQzU68c7TOaRJTomI7AtOUVyQJzH3Ytm3u0dDtRWVeHVCznQ2SNFMzdZOtlEI4fxDVvAT6fD+3t7ZCUEAchav2Ba8zO6JkvALnA84CE53bApAk8+xT1afDCmtzv3trXD+HhXqDS8x6WydyV3K1RkKXx++mx7fnwwDXZ8MBAxvkJQitTtL6zYsUKNtsgFviARCQAnU7HpjWKiorRVo+P4aqPCR7WkxcrXWdCZdA84NlMATfbmW9wt0ZBXLhktuvcyfD9/h748u5O2JgXBQqF1dXc7bGBYj+IkqtWrYJYsxmW+TlCqmQOW6BPTEyErKwsSDSbjnPVR4HB1+nB/EAbKAq2h2L0dCgcJEE098jmN2A6V2UEFObnpki5Ba0Y/lwQO7I4E9a9S2TWD1eE20NZiB3QCtsKpc0Jum61ZcuW8J6eHjZfk5SUxIIC7O0dICIiAuLi4tj6X21tHQQIhXz2wGkQL5zHJog69U6wNd4Vdia5w+oYF6iJcMCXjJyJ4mBcRbgDdOidYUeCO6yPdQWauVqOMlCMiLVjO1visB2Ui95oZ6gMs4e0AC4Ioae7+xgtQC5evBh5KpzNXAUHB4PJZIK0tDTs8iJobWkZtUCWbQ49mI5uXT5SrxyRrQhzYC/L8rfBMvY4KRMRysb7NLOVF2gHGUobWCafD6moUbLxGbpehFRcpbKFdIUNLJZYj4jRmpSamnpTTHQ0iMViCAhAnYe/U1JSoBCR7OzshOLiYhNXl4GSZw80+Sd3mgZ+LjNZUThPBz/XGSB2mg0qj/meXFUGycmqKQqXmXslrvPAff5U4NtNA6XLDKyPz55RqF1vu+kgcZy+l3v8rwOhRBHhwxcd8ws1QkBEHAhlgaCNMvdNtbKSc1X+HnDzEq3z8g0Dd2EIeEkjQRYSD8GGVIgwrWBrq1QCIuJP2NnZhXKPXDlw81H+PrzgO1zs3BX4NxTEATGg0ixh03yRiKTanAMylXYV9+hfD/v27VvgIQplSHmJgsGJ5wf24ghwlwQfyyyuBXNcIoSGa8FbqgFFWCKERKeBNiEPZs60mss18deDOz/gqLV3MFhF1rJVbitNNxz68uh3M/wKBldv3P5ZQvNeWFjUClm5RUAfIw2KBVXk4qXc41cGJvINMH4BmsNw7VCSPuj43Llzf5t89fijVlMcfhlv7f6Hbnn98ayqjq9spLHgLlBB/sLwMRX9XwaO9rYb8A+8tbMUXt1WBB/dVAM316dAhMzzD1c3j++1Gs0Ra2HYoKOpvMXyxBWGqZMnN2oVPKBJhbf3VMM7e+vYbO6HtzTCd/e0wb6mFJBKRH/w3J0sQSFXGm7ryPnEfv7sX2tTNJAeFXD8lV01g0f298FKc8hQfap2aH9P9h9BYo9f6pdF/mlznRcFJUnhQ1WLI+DzuzqGrho3Ht64qQU+uXf14PPbysDZ2QW+vrsdtlUs+q17ue5z7pErD3d3ZR95/9YW+PGRAfjp8Y3wy1Nbh75/ZB1892A/vH9LE2wtSTjCVf17YHNV2opP7miDr+7vg8c3VcCJ53fCd4+sH/ri3h54/9ZmiA4QHOaqXhgsVtjVanizafJnkuXK5cH4SdO0X2FXfnZ3F/z8yFr4/J5uFrXyyb4OeO+mRoiQuH/CVb0w2JHg2kkhWfhzluXK5cPhmxqG3r+lGR6/Yf3xfz207/gL91w3+P7NjfDBTXXQkB4zci7xfHAagn+K2fHX8+Nj0wJef/+mBnjrhjr4+LYWeHtvPbx9fTVsrEwFL6FtIlf1wsCCoCOg1h/lSV8sKBa5HgnO84HKdjXs704bopWD13eVw+s7y+Ch3uVD/+xDR2HAD4KWepEUz7E8dR5gCGocwcnVVc9dumiYYmVlb+oPZNN26lIfyKgJgBe3FsKhWxqHHurLPt6ba4KXdtASRyYYaCZiFQ8S1klhSWyIL9fE2WEYwTlzrFdyly4KPB0cHGkum6ZFWKRLnQjEiS5w/8ByOHhDA1va+OjODmZVFBk0xyOBiFI+mLopZoJNo4yMYD0Thrt4woQJTdylC4aEomCVebXcMl/YJrX8bcK/FOVeyYPXt1fCa9fXwO0tmUORLULQNUoRQZoLd4eYLiWb2E9cx6KY5lta5MDT08njpS35cH9XFlTqeS+0WHYUbMMyOozkLBCw2OsaIy1XsBgNRJKb26apD12VGCLLJaCt94XruheBphkp3CwGE7IAm6mlKRKaKqFZCHwuMstv5Fr1EwMFmw4ggq9uL4GvcHC9RDxn8NktZcd+xMH2G7vr+rlqY4KzlfOcsCLhHzHdSjY1zJAanrvBv2yWC38be5UQnOEJ6hpfCExxB0OzBMJyPS31urjJelpUosnRHAEYq6QV3CusrDzs5ta9vbvy9/dQFTy3rWrlyztr4It7e4H2O3xxdzc8urboeq7qCDCsEntTBBCbzcIXsb9U8CX6ShFo6yzTb5b4HCFEVvNh/70G/Iu82eLL5hgN7UpQVwghfp0Kn0VkWyxLHTT3DVYwjr3ok5tqgVatbm3N/OKVGzreOvLQABz/53Y48siGoSMProVfHxuAllWWnT4EAquFExc4zXkidoAapa7EISpRCxuO6ZaDf4ob0D6N6A4pROR7YTeKIKbXDzS1Msjrl4O2SQKGNiVosOtpui62yxJAFLrK6w8Wnkc90CIFWaKjxct5bXvxEy9sLoIH+1ZC8SJd/rGnt+x+bHPVr4fQPH29vx8oSvOruzrgtk2ZR6dPnPhowmYVxLT5gp6oRw3SJCXyj7lPDp5Cm+3UZmQBIk5I4/3ALA+21qcp4Vtmu/BaJP6mpQ6aY9S3KobQrroJjY63xSC1iVVoiY3WXBiCBK/saX7otV2V8MKOqsHbW5f/Y1N93gdfokH/BFUCmam3UPpe2VYC720vg9AOeokUpEmWScxoZPYYFAZs5mSIUGyvHCknZB+iKRYxHgwv5EFcrbdldpYQRYFSIyuYVgewhZ+4tRbkhu+FZ1l2eTB4vDdTd/C6criuahF8eHPDL4/05w1STCstp723l5ArZstpB7cUQxjNpCLPacvwK/sUYKiTj1ia9VHb9dMkOiEfli8EfQNKbH8AROR5wdvPJ0JEqwyMq/0hsoimirE7O5SfimPs7jN2429uSY3ixjYUtYzWia1p6kNVUXxI1UjgzWtLWvv6NtnXbrpr3lN9Ga3PbCrdka9TQsxaZOIOX5CjAlYvlZ05nh0XuxZ5E7uRCQ79RWoQBWnlSlOHXU9CQ7Gj3Ly3rlT4WuByL+RdL9Ch3qTJT1Gsw9hz2g0R9vvaLHqwx3JlJKiSxFsDlrrt4f4dBS0tVuOM2K1sGpgkmOassctIgAwNyG+0zkyqBXUf+4vXQ1YIh6LbaJoY6yLSxtUBoA/2l3BNjoTacLvbCcGrx49fy126WBhHIbosKo+YnZBjRQzpeP3uO3SgJ6piYToStUBMJ/JruxS0LfgBnTKQxrud4r0zoTHS/kaG4NXjB7hLFw0x7eI3Dc0KUJf7MOVL+k5bicoaHQNdIyJHXd+Mf5HKFIOsLZYe3VmdcOytbeXH7mnKM3LNjA3rjM4Dl4tg4HJBU0QZWopML4giU9bpj1STMUr5oiNCK1GMguRUdEpgd2EiumEV8MFtzXDb5uLCZJ189L6xYSBnwdLFV10ygmQRKIiaIjl1rUomvRZ+Q4VOaolWTFFQwsvFWE8Cdw2kDx66sYFZrv9e3wTfP7AarFwnu3DNjYRhBCddfWkI2vDnVBvRajAJJSqR6UJeY11N3UqWh6LCuS4mpA2VAvj09lb47uF1cPzZHbC/P//YluKk77kmR8LlIkj7Vy1LuPiXKEV6joSkHa0NIUTSywkJ+x99wJheBfSvMiMFe+G7h9b+fPCW1jvf21MNycvjR+8eu5wuDtUr/I3dFrPHuhP/MiRQQkNWeICpE5GmeFtCEq+zbidpR6W8vtgM7+FA6sl1+WgcGuGV7UVjS/JJCl4Cgqocny/ZChO9mOwz+YbkfpH5QhUSgE4Ec0wJaWZvsR7pvgbZ55Xp2p3/vbYUPryxBp7bnPet86xZY49RLoeCQZk8ttfyJIKM34gfaWcWOqzliBgXnk9dTEHbESvQFKIjO2/KTD+umXPDpSJILpi5VwrBK3ggMbtYKIWIsr3JSCX/VG/0+/hIPaKaBCRxzoxXaauZqU+JnpACbKfNSOWaOztcKoKBK9y/Y/yFL41dQ8oZLQNKJ4sawd+KZV4Q1xvwHVFUj44rqRdigdBCMfgvdcffvidDlM8Jl4qgrfWMzWTiiNekJmfwT+OxQZCuHq8hguEZ3r/H9EgOkZ8Xg4JEinzY46ExjLHfDwTezslcc2eHSxWSxI6gF05KJfOslaBK97RQChFI6gp+wkft+JnFLktAnuxsYQEqpHKQX2MbZY9wzZ0dLgVBRyvHKbRlhChmUSv4lxAll4r4jH63yveZcoLuYuoFr2nq0Cfs4xQ6CRIiGoseOdfk2eFSEJztOHtZDA0lSZ3QKjxSiOyuppTCAci/Y9f2qavdoy3OgwQofCAMTaBxbSCz16Q7qZjy/W7gmh0bLhZBALgqivgMhYFUC4uEQyqxMUstSi1RD6XW3n3OHfpGoYkEiVERix49G7HRFWJwcKWrQXVTi2pnkdup4eZYcIk8GGVolDKqiY1OLGRAakavhajC+FIKanNQs67FR8+cWEKa7dVBajLHAZFGPozF8THX3tnhUhBMGFBAYKYHx/QcDxIvkhVBBEw4yHJcq5oi0Xl+yJQ03eNYgUkxlhh8xtAgHhS6uJx7Vo0QbNU6wezJF+YP+qd67qDxCTNZNIVBkUdEEbIiREESgiYxC40KzeN/xZBjZhBHc2iDHWTzQBrpAu4qW/BL8QYnr+nnXlgcRtB+5tUXTMHgFR4/4qAbKCSFWQcsMV3oEKAV0Vb6QsI6y5beKBrAE48S1UiB40eYBgIhLMsTAlAl0b6lhAEZBBi9bmMNnwaO3F+raxPcOmjvh/f8KRc8JnG2WuCuaRB9H1LsgVRDamKhQXosmr6wHJ/VqmTZyYXtsELhgagmBbiHLABtrQzHxWKIW03778Qw4+rJY5u6rVu3sn3J8XFxg2VRws9atI7g5zH/S4mXy4FgKf+A2Mu5l6t6VqherOW/uLUJOmrMQ5pIL0joD/QTW4nPNmvq+tz2MnhoWw7cuzkDCtSqbO762LB+/XoWm0DBFYZQfwgTu0OQn5wFV9De57KKirPHTHMgd549sK8tE75/eA2Ei13OK42H0ef7+YnN8N39PTBhglUwd3ls2LBhA5SWlrK4maCgQOB7eUCgyp9tC6JMJEsWJp9z2ymB1Gk6OM2+GsJdprKYA+7ymOAwZ9K3/1iXO/TlPV3w/X2d4DpvysfcrbFh06ZNUF5ezrZm+Xh7Q3awK4RI+WA0GlnkR01t7XkpQsERPJupEC+eB5LzbC8S2U8DnwUTIZi3ALytJ0KIwO537haDvBDnOfX5GVKVKtmyMXLz5s1QVVXFdp2rNVro0DqAu7Mji0yia6XIn34CF1tW+QzwsZ8xb2WICxQE27FYGgotWRVoC1l6WQNXZRTIPWx+p/1SIsfpYPCeA74O09nkUZqfzzwKV6kIs4eSEApdsYV0lXM2BflATU0No5ZWp4elUmtwcnSAqKgoS1hKYSF4e3mNaYIoFqYs1AFINfVGOUOH3gmqIxygIMgWhLbTk7hqI4Ayh1AodTkiQvXpwyK950NVuAOQkVgd4wydBmfWTj4ibLVt2zaoq6tj0UYGgwEkUhnw+T6g1+tZt+fm5kJJcfGoNTWx8yx3+sr6SEdYE+MC1yW7wyazK7ShFigOsYd05fxRGxFD3GfurMUXrzO5siikLkSEgnlW+NsCXR9uZ0OsC0tCUIgfalVfW/s6bROkmC0K5pFKpaBU4qCbCzgjBFtbW1HSo85cv3NbxboEv1zvzMKj6IX0Irq+TDYawXR/h19pkx69nKhXG+EIOQG2kKZYAKX4UXS9G3uiHSlJFGX7IJW+wjQKNsvOzmYhUQqFAuRyOWi1Wli4cCFQZphaFJSK4rwRU2199zw7I0NuzUKhaPcgIVqG3UU8SC9cKlswaoYsSWz9YbrShvEXBaURchQaRfUpVIo+jChagH9X+NsAsRB7sKur63BeXh6YzWbw9/dnVKSUDaQbibKVlZXQ1dUNLjY2J2dRFa5zDsmQ2ak4zJkCznOxzJvC0jmQpCpQsrmqJ8HXaSbbRDi8oZDKcIqH0zcaDhcxl5GJAQpFRqzR+ENQUDD4SiQsEo72XJKyJgqirjyK1Swz7wgO82d1UNidJV5r5sk4LEss1wwI9LF/gat6EubPnLxB6WH9queCqeCFxddxBovTGo7ZOr3IULcqPW0+4x79/x+EBQbK3HniPS4evj/ypWEgDUkAPzUaG0MahEZnQrgpCyJjs0Edl8NKBP4ONS6HQM1CEMrCBkXysL1qdTgN1M4f+Pu/BG7OziYnN8FRlleJi8A6vbgJgixRWeIw4Cu0LKjJL3IhBOmWImEzkLArWMgYFYpvC0OiUpGp9MAXKVdwr/nfhJaWlnFuPPkhLy4p1YiCxPTAv578AHD38QcfkT+sXFUEkXoT8LzF4OylAGdvFQgUGvCWIWGD48CfOFa/DMKIsEYLYbUJqyBIuwhcXd0zuNf+z8FV7jzZO8NE9BSowM3TF6x5wTBbmQTj/dLBKqYXrHTtMNnUM7Tx9id/2nzro99O0vVARsOGoey8IpihWAoxuc0QbEjCNgLQnqeBWKkBvtLAMtuoNIsZt4ZGLQOBNDCFe+//HvCcnTU8P91rVtpmoNyQVqZ+sDL2gVUY+q8+sWDloYVpUjNM8FKfsHYT/cGXBx6fFIBDjHV3/xadsOzr0pY1vwcXbT3WtnP/0DhjL2iWFn7tJlCd8EAuJlVAO9rFikjwk/uNCC7+n4PirCU2Lo72X1L8Gv4LPo7zTvxrIGvojWtL4V+bCwarU9SDGYaAE/lJmt9mzZhOo5fvJ4y76sisWbN+4Hl5fu/h5vqztZP373JNwhcL9EVHrYzrkJOXg0AW+iPPR0ghkBPpPf8XIH/8+PEwfsIE2FWeBO/uLmdRGGwj8q4KePO6Sji4uwo+uqURPr6tEV7fWQEHthYP1SzVnshfpP8lQCk7GhgS8X1metrPeYUl76YtTR6R5+J/HjY3r6roy4765eoJ4yBVK4Mf72uDh3qyoSfHOPTBLU3Hv767Ez68tYXFBFL5+t4ueH13Dd2H1avMQz0rTSeeXrfqjw9urAaphx3EqnxAyXMgX+/v3eR/JcHV3t67ebnp170d+Z+L+J7/7l0ZA6/trh56aVfNYGN6FOxtzBj655ayoZd31sLRx9bBgZ01cGf7iqEHNjcOCXnu0Jiqg98e7oV9ndmwzKx+dktp0uAHN1R/9tTulv87RESYUJsZm3FXx/LBl64phRe2lg59ekcbfHpnO7y4HUX4zi44/s9r4Pmd9X98cFfv4NHHN8HvT2+B/+ysgpd2VMI39/XAuzc2wMe3Nw2+sKUYWjOjfthQlEBpaP5vOd3D8Njagrof9nfDB7e1wKd3dcFX96+G7x4egB8e2wi//WM7nHhuJ8Ulw4+PbgBKf0Ghv58gsT9AMf/4tiaIlPNYusy/GiiGzw2LExbKdPL/LRg3oeTGxjSm92h3NkXN/fjIOvjgji4oW6wd2l6fOfTrk1uGvntoYOhrJPBnd3fDR8i1h29pYjH9OjmP5nwuPp/IxcDeZLeeW5Z4Qm+0CxQG2pHyveDAyCsFB7ZVPvflvjaWXvm9m5uH/rW95vj+TbWDB25Zc+LXA7f9sre/7sRAZ+Pv925tP/466s4PkQspjJVS3kT5eb+ITfy1RKTVC9rPSpNTXCKXPy1O/M+E+waqnjt0Yy28f3MTimkzvLG3Hv69owpe3lIEz+6ohYN7G9BiN6EurIP3sDy5rgDMESG3c4//tXA6EXP8bChC38Fy52+HOYEJ3ps0pXKIbBJBcWsI3NW0dOiJgezBg9dXsdhTSqz0FhaKjyef8Y1dlfDW7kp4buMquKdhCawsVUFgKR8MRco9atkFRHtfKpwkosYRVvjb/eDg4qLibv0tENcZmmnskv8Wt0EF6noZKJe4grqFD5UtkfDcmhx4et1KeHZz4eDL20uPP7Mme+j5DauGKDHKvzbkwsZCM2yvTIZnN+bBM71Z0N4eAxE9CjBiCS/yAieRNehLhU+nL4704F7358DpRMxQ2p6wt7dfxN26kuDOC7R9zdSFH9wfwILcwvL5EJojYAvtUc1SUOZ5wIaGuME3r60cevW6Knj7xkb4BK31N2iRv8byKRqUw6gL37y+Bl7eWALFK0JATeuQPf6sPdo27+ZvzaKpaE0yulz01EJ39z9HdZ0SZ0dYJl8Ak6dNO/cq/58IUQ1CD22Z6HUTEopS4rB1cwoj61CwyAS2EoxFluwCuloxaLqkoE3zhrsbM+HdmxrgnZsa4b3bWuF9LJRP6OCeuqGOtXFDYY0+EN0pAyOLvPGFyGI+uMmtwV1lA7H9/hbCrvZnmz/8E50ez8hwuShj6tKWpm6+rSGtOSYmhiW+2pPk2nSSiLL5tLeintX8C4End+40tfn/bOxCLkN9x6JxKABhODqnQWC5hkVfIwJdpRgiC2n9XwnR+PGG1X6wsX/h0H+3lcKbOythW1kiKOLdILJZwA7MIO4NLxSCwuzMItRoVZzl3MIOYSm/saOG02BQiLq2QQI+Ue6lHHpnh6ZUzU1vXlsCr24rhJdQh7y9qxQeXb0S+jMjT7RonU80q+1hqWQe8F3tf6lONx7bUp78fLLOP5d7/LJh+sSJCdo83w8pKoiCtRmR8ENYeAlFdVD+mXaKT7AQkKKIhoMbKdCCYmIob1dYLg+C0j1AleUJylQPiKjBdijGgVJt4H19nQikyBRB2ZZ8tYY6PhfbwEWQUHvU7vD7sNMoUZks1h0Ezm7nnqTo7e2d9dCawhcO7ipjMyE0C0Kuwqd3tL74wvbKawz+wuPPbimHHx5cDZ/u62AO69f3dLHV9nv6i99Dzh07oPbc4CHVur0S2xcAsX0UUG6JMGEfQ7E4FIVCH0UEpWvNFk6kmB2K72FbQyiWEcWchW9RvFmXErTlAtAV8UHfhCJeLYDQahHLdMsIhJ1COXdYPBq+yxI9SpEuFAuE76S26B10D59ncbqkPrr8wLRaCZS+2F3lNJor4wK9g25rWArv7amkaaTB13ZVDn12ZysOpdofuXZ1Te27t3fAL4+vh28eXMsCfQ/f0Qnf4m9Ki0SRyT89vBYtYikYlN5mrslzwVWqKHFpbLvi09huMcSgKDHRIUKdLrKMoHiNflNMJXKSKo3HPiayjM9OGQnO8WaZ5Eg/nvx41J3h6TwIRX02sMMPvn0zFTZtQcLWIgdTuA/rFFQBVXwIR+OkqZFCALZr7JBAZI7XIU2x8GZ1udCS1I1UCYcL08fEmagylMm835dVR42MRHx+U67u01vqkPsqgHKmfX9/FzRlRN2UuTju+R8fXvs6Dpd+g2e3wbF/boP37uyG/97cPvgHjkvpOAsi6tf7V7Osdd/c3wuv7635b3GedvmEZXOHXaGJsiSvxJjK8Mf1TcohX5MLGFrkLCUZQ4oIR1xH0WDEFVSIKxBp0xp//Hgp6MqF2w3FirboTvlvRlL8VLcNDQPqMQNlzkYRjyzyAU2VBEwDKghI8EZDIwc9imREmxL0xKXEyaTvkIMN9fhO/M1inikIEQkVuxqvV8rfmjx5sjMh7Sq1vjMKO4jCOZmoU0cPSwkRF5+PaooYGYi9uyVj8nKDUpumkb5/4JpS+AyHUU+uL4Z7+wrY0ScINu0rzZ++cG3d0LcPDQx+iePQfV056Da0sd1ddDYIbf95B0cDh2kj6I318NqOUtjfkg4rK4MHNV34AUggEiX/FBcIy/NkWfSYjqOeJr2HXEY+m6FNDiGrfN4KTvcYkffQ0C78r3KhCwRn47OtyIHcR0U1iJCIyF0tChb1K1U7gbqQhx8tBB1FCpNoIqfH4DORJUIIziI9p2Qp3TRomChzGr7/S1tbT7Yp0EYwTx1azP+NNtcwDhzWzaQ6KH4bCW9Ebo6vFAUyxE6H229/Y+LzW0ru//TWOjiIOvGLO1vgyQ2F3xclhg091F/8zv51Zc29ZWnfvLG3YfCTO1Dc0e+igfwhcieQg9/CkQLNINMM80tbCthWpTc3F0H3QByEdRMyFhEhtyQsnwf6KtpxQVyJOnFdIKhSPX4XR9ql3L7w9rHGsq7aGtH7tIWJRenhhyiS3CGiVAwRhT7IXdSW5SwRQYg9+pAesPG6UDjwdDzkrZVCZDsSAbmXdGFkiQ/bVanADqFONfdje23Sz8DKatyUKRP8IkrpPB/iPuxc7FiLauFUTZMAzN3SIU22pA1xOvsywk21ie4PrStJObC18Ffy9omgz2wogGilJ6zLjx36Zl8T0GFHNJx68Zryw//ZWnTg39eUvvPUQB5a9RJ47/pyeAet+1vXFsPha8uhtTsawtFVYHqLOId6Ev002oWpr5GBi2TOhharlpNRC2eCneP0eH2d5FtTDz5P3MDcD9R/6KoQ0ViqflIJyM1EZH6IHepEEZjxHYk1PIjFD2dRr7ShgwhJ+fvI7yQxx/aoDWOn8g1HH+sU5PSfgpe7Q9gqb+xs5F5SK8i1rIOwPXWFAAQqW5YC+4JB7zLpjrqQ+dChtYdMxQJwsJ51Y3ZR0cnoxXPBNDex2DPM7TtNk4TlS1NXin4NT+O9lFAQuGSClRXlrTq5d/JsQFvCYrrkh0z9KFpkrYkbGEdQZ2AZFmkiIm0kQXUQlu4F+gouqT35jhRUzfQtEo0MGKkQkggSUeQ06oSIlbx3YqvlPTRaie0UM/+QOJ5OwaIzoSJLfSE0hQ/+YZ4XvcA/rjrM7k5ytilIi9KnXcL2swkTrCZc3M79kTDORTHvXeIeC/FQJzGuQsIQZ5O+IwKSyJH/SIRBYprwfjJyWwze13agT0nEw+cZIUn/crqOPYPWXVdLB2jhSAa9AEZgfMdwkG8sinvCxiDwNbg9w+F0cVAfYXfLMBHTiYiXsQPtEmGch3QBc8JZ9DxFLtOYl/52c04xcShxIxIppk0IEpMrpNTy4clHouG6PeEQVeGFrhDHwSw0m/MKuGu0jzAG2w+u9YGYetFgRKYXFOSEffLIzixYvsz/p5njrl6CeBh8nW1ocvrioV3rsHMEJ155IjJQVwtazOtRpFGvaarR7UEHmvmPJLLITSHLReC/1BtUmXwIXO6D+lYBOhRF/yVuoK8moiPhGNdZdDOJMGUq1qALpUzxgo5lhl8OXVt+/CAONN7ZXQ00N1meoR15/tSlwvAExGnifOWJOMXKXpXh9Xp0qwwVvhC0SEBKYkjcGZDmDl4BtuCrdYJIHOrRDmo2AkGRjWqWQHiuF4oqcRtnYdl99AlbZEzfkX70kC2AHcUJONiwzEHSMusXd3fBF/v7YEd9Krx7YyM8tbEYwn19RBxGFwejiHiJuw0vAyYolrh/YkLOGRY/i+6jjTEKiOnFoR6ONtiQkCYQaJRD3Ea6D/WjRczJFyVDYfFFmS5kYozt4P86tPrlNerBd3fV0Lo1SxtDSQR+fnIL/P7MNfDNA2vhkzs7hz65qxVaCkztHF4XDmcScdKVFWfn4EzP1+NIjPuwoP5jHFVP2+ssYsx2URKBaHxLkxJkcIhwVPA+4z4yPmSESHee3hFUnzn5SghBN6i6RQ9HcEj7ORKRVgZ/eWIzfP3gwDF097746t4eOHwzLW7Vw9oC00GKUuNwPD/8nZwYXxXyCiU0YIaAsjIQMYgDiZh0jVwVKhxRDM0yiCzA0QdxJEcsNunADBISmYhKkwrD9+gaujE08iE1EIHc7omq4eUt5UycKRHDDU3pxx5fV9Tz1t7aZ5/ZVDhER0I+M5DzkU6nO697dhJG68QrQ0TFIs8dRuQ+NlszzFlEEBJRbgc0FcaBRFTiNCIMEiQk1wekJifQo9tCoyHmCpFV5sR8mIh0nblLKNYRLZJjFeW6Xw/tKIdDe2iNpoqtyxzGYey7qCfZtV1l0JGtfxbRG5kz5nwwSpyvABHtXGbFhxaI2OiDEWvYOSaOIpeGRJquEWfSNRJLIhTVaRZAaJoIDLVENBTZDrxP/h6V0ziY7X5EotLcJaUmiigU/GSuVWnp/QHGAK++QvO6V7YUbD2wMW9ra4FxQ2y64YLPLxgFfwcnekgcIiMKhBBeyAfVMnc2a0KTB+zDGUE5kaRZGeIu0nVIWEpWoa6Ugqd4Acv6wk7NQkIzvUjqAJ9nmx/rJRCS6skOEKN91FSPrht7/MBcoXqkLivLhkPlz4ErTcSFNepUA34cGxcjJ7Kdd6gHNU1y0DcpQN+gAFU2Dww0dibdRwTlDIt5fRBIl3jC7JnTsB6Oh3sthoa4lAitKRNARDGOStolbPKWJljpHfo2JbYpBAOObPDascBkryfnzZxGOYf+nPyQV5KIAZluOk2xzyfDG91J9xGhIku8wX+xKzrNAhzOySxHdyDxQnNwJIK+IBNv5Exjh5jODx8SC7xyYrsk77I1E04XGmgygfRruxJ02Bkh6JRrKkWgq8N3oFGxZAMQIOHloM4T/scoDrmw1GgXAleaE4Oy3PbSDtmTc4X4NwaNCRGOxrg0SRu8kgfKNE82qWqgOtx4OqpFAHHVyi+ycpMi9O2Kw7QUOmxE2OHA9aQbLRuumatE907XrcTRpBZoVqdMRkO9PweupGFxkjrpIgrxI3qQIEQc/EiL/4cEJLEkS4oEpTnA4EwPCF/lxSZWmauChsM8EIjiH0QbZq9ykcw/EruajMqwb4jEQh0azs7Z8GUukUVX4j0ySJwbxH6T7kTu9FW7jJlG7KLhShGxrCx5SsRy/vEYmu1GbmAjC7K4xCVs9GGxsqTnwkvFIItzQmLjdXKWmd5DnUiTFNWCe6i91A3qWNo6zfxE6gSsR+6OvkUBgSt47BAINmKhTiKHnXEzvo/qE/djR8U1B3yzqsh86afQDsMVIuIk/wzvF9hxh8SBNJog7homEBM95CTiGvzA8DzvU9xFnEPuC9ah83JCVwpZkFJ0o9DEVhCR+GwdhcSWPYNchrpSlow6th07pEKCVpr0ohDH2CIQqe3BQ24NCpMzaAt8IMTs9aXbtAWXZ63/aiKyPAx5gX4ig/0d8iVuJ9yVCyAil8+S1REBI8uFWJBQaEm1NRLkQBdQo6Ghc8mJIBbLK2PjZzIS8+bPYETUN/qYYpGbWEfQOjLpTKqP4s06BsWVjJdpLTr0w1YcCU6HZpExM/Xi3zrF2waD3I4hejlwJThR4ublr0z2OKJvFFtmXGimhUQMLSpT8uR0I7GIUGxylkSOHGf88JO6E0UztktxtOKGXAG1uaIvqZ4tJ1BdElnSf+RXksjSSh1NQtA1zrAQQSlHir5aAqJIR/CLd/+tZF225azdy4VhIrYiEWl5YPKfPHY2NEr649aiyGHv0+K55ZR2/ECOOExXERHo48knZNyEXMJxDiMAPhu72u+Yj865C5ukRa5pTpJ53+K1k6LMLC8RnowHPkMH5FC6u0jKJ0mlzAc5nMcObjJiHRJtvsrh3/OsptgzRC8HThJR68QOLpk//cJTVVwgjLP3nrU3vAidYPxQtujETVGdMhoWjmL6j5vqImISlxJHsdFGq+/b5h7LUeSmFqupqOO+pOtM3LnCuI86hivMnSFRJpeHlhJQ/CnvUQyOfEjEWcaKlZ4QsNTzNmtbazpa5NIC44eJSKk06JAJ9zmT/grDYhWSItgXtxotZ5YXDsXEbLY5KBc/DI0FcQ65IPQ7KJ0HdDQuOdGqDE/8eAnIU5xBXyY9aswOY0lLylsKePENIe3KeI+vKBupJbZHiiMT9CvRmNBsD3E1tReSLwK/ZR6ATj7qYh5IzU6grpKAX4rnYGSZd6uuUVglN7hX+fq6n3tC1sXFZXN+3qp3ampqmrOyljc7Wk9vNkfpWPDOtfHOzcNEpFM4xDaTzpkn9nLBx93+hiXZUlhYHg15m5ZCWLM3hDcJQE0WG8WdjuDRFqDuzPd93sN3fhH32FlhiTrWRrtK3hJexL9eqLGHhAYNxHYHgxpHKGp0znU9vhCJ42yRzv43tPZ9NvxZ1fjYxXMcnZQzMDDAsitQmgc6MScpKRkiDEYoi5HCdrMjtOscYZVyLoRLsPeNsZCYkADLli6FbNqSX1EOOVnp+7nmLht2Vi788ujDq+Hoo+vhl0c3w7d39cBzAwWwZXH8ZWXF/uCWxo3f3kFr5q3wzd098OWdnfDxDY3w7KZVcE1X4rlToJwPiIiUJoUyQBQXF7NUAHSuc3RUFKgCA4Hue3p4sDNpAgNULG0F5Tigs2oopQWdrlxUWPjwQoHgsjYWOi5YEO/rPAf4NhNhpV4EDzUmwo1lxqFQ73nAmz8RxK52OVzVS4H6udOuHnx87Sr44ZG1bF/LNw/0s6i2tgwdzJkzp4rcLa7uxQMRiY6dbmpqYvlmKOEDEYjSuIQEB4NAIAQPJKJQIGBn5uh0WpaDhrJXUB4aOkYpf1UuRGsi07kmLwkUzlOSLXkVLClhmjUOoPeeAz5201gOBrH9tFe5qhcFdtZz++UuswY9F0yB2kVBg7srk+C+zky4riIJrikyQqFRAgLbSV+tXLjw0sOL6UwpyodDuUYqKipg5cqVLIOLOS4exL6+0BhpD/3RTrBSMQcU3ujsavWMwJRhIzU1laUHqcTnFi9eRGPNiz5rYCHAxEXBwlizn8c+s3AeS+2RKl/ATlOiY5zo3Ck6vMhrwdQLOiXsTHBxst8gd0PcnaezzByU/EJgNwUM3rNB5z0XpI7Twc9j7pHNa9eOOBAJYYZRZLdsRYDt+zn+tkdygp2OrVDZH81QzD+yVOX6UpKf56k90b6+vv+ilDgdHR1QXV3NOIuIEx8fD2GRGlB4OUG33hGW+s5haXI0Wi1L+kKHdtEZ56RDKaVTZWXFT6+++uqoU2TPAQ7xYusnyWBR+hxKi1MV5gB1kQ5AB65ToUPVK9kRVZZcQLnBjpBtDDlviqjTITw0uC5d5Twoc5gGPNtpwLefBkL76ZATYMNS7miR2xPF1id87GbdPn7aLE28v09ddojbV3UR9uw8rgYsTVosGkeWWYeSzJQE27NUPZQlJ1lonWXV398fQcm3uru7WVqUgoICJqZEJINBD36qQJDwXCHUcRI42tmAWq1hqX2IyMSxpEMpFww9m5mR8RiH+/nAMdBt9hfsRLQQO3bQWCsiSoeFrUcXZkucG2yOc4UBows7mb5Z4wSViDydeEbI40dfw7VzTtj91O7J5Wq3f7VoHdiusG3xbrB3kQfsWegBG2JdsW0nRpiyMHswCeZBktianS3G8MEBBp2cvxHrbUtwg6347ADiRsfzU14kyolEnZ+pcvjeKjc3V0fWua+vD+rr6xlXEWFI51FyJjqNjZLkSLCQTgwNDR1hXDIyMljqoXIU6ZrKckgwas6rG/2dZ7mZBfOOU4YfyhJFqYhoaElIbzC7wjWIMBFyHYc0bQEhDqAT3egQtVT56JRFZ8LulpbJC33n/0BZgKgDaEMTtUWEoM4holLHUbvUZgaO20l9UEfRNcriRsmmCIfNiBMRs58ljXJCKbFkKMpTocoJdrUkGa2vq7t106aN0NzcfNK4UF4m0n1hYWEgk8mYdaa0SHRqHKVFGjYulBWL0iORZa9HC19ZUfJHSUbcObctTJo0y1XmPOcYpTci3UdpkKhniQNIjEl0LOLjANX4QaUsHZcdfqQtS7W0TLbgvP5qXWlhaHqA01EiDuV4Iq6n1F4kwvQeStVUggTLZafQLWBbTKiwFEx4jTqXVAl1MKkYKvQscSqplmxsk4iO+vvUTtX01NSDa9asYQnXho0LESoyMhL8/PxAKBQyYgYFBbHUTURgcoWGjQv5mJQLraOzAwrzV51wtLehMLQxNx/azpm+IUTg+I2RPweWSOfDQsl8SEBRopLsaw2L8H+6niyxhniRNZDBocLu4XWB7XTaIudjaW1sUPB41i5zp3zuYzMNIr1ms+eozRSZpdBvukbvppKE76L3UqH/6d5iegbrLkXiLuWeoWvJeD/UYzZ4zZ8KAW5nZL1DbvJC8XydjAtxI1lg4joSYzoWUCKRgEqlYoQ907iQLiXr3tjYCGtRPSTGmU7Mnzlz1BavomVFM6Uucw4rnS15sChHFllN+k1pqIbLmf9TYfXQyvq7TAedSkyji7OCm7N9r8xlNvtIJbPM04GOziQ3ari94bxaw7m6LrTQM6wNbHMUEc+E8ECFDxqRiCidLoPv5fGNjzePJRKjAyFJX5JxoXxxRETi2rDggE+rK8qWoF953nVahUrl7zJrfITCZVpETJiixs+X9/ncaRPBesYksJk1Gebj3zlTrwY3u3l/mLRB14eJnHQSh2kRtrbW4dvve2kq18wFQVxGxmwXF4cI/MmV8RHTJo2PcJg1KUKIbSqwUNsXUghfj3mTIiZNmhQREB7uamVlZfX/ALpUrzbXp+L1AAAAAElFTkSuQmCC;" vertex="1" parent="1">
          <mxGeometry x="300" y="530.4599999999999" width="12.88" height="19.08" as="geometry" />
        </mxCell>
        <mxCell id="JmjW4H4n3zkzEFeAkcXk-20" value="" style="shape=image;verticalLabelPosition=bottom;labelBackgroundColor=default;verticalAlign=top;aspect=fixed;imageAspect=0;image=data:image/png,iVBORw0KGgoAAAANSUhEUgAAAHoAAAB8CAYAAAHRB5RvAAAAAXNSR0IArs4c6QAAAARnQU1BAACxjwv8YQUAAAAJcEhZcwAAFxEAABcRAcom8z8AABwYSURBVHhe7V0JmFxVlT63xQ0VFAdkm1F0wGWiqKjgyBBHAwkknU53OmFNoiJRkCzdtXUSQoHADDKCiqjjMoD7wIxRViHdXa+qurNgEvZdHBGBCKgxkZBAQjL/f/vc5tWrV9W19Sbv/77zvar77rvbWe65y7tPxi4SOTkvljE3JTIyUYOGxpJVZncyV5riPfI+jVqMRM70hT0UJI1ejGRePh32gJ/O+VWZBBJ5c38s13Q6fy9dY3an8gMPdaFaCU/W2kjlkFwrB/tzW7oWOa7Dw1nzU96fNWtW6dwJloDXJcjdnxDDZs6c+T0mcOKJJ1piWBHi3fJR91AKxV7kycf1VhFOPvnkHfrzJbAE6d3SFMwdkYtyDK1O3DM/40Nd/YUtHVbkku1xzvqXcnclOOmkkwoi4+EdU6dOPUj/lseCrHyA1/b29ieZK2nKlCn72psRwrEQ6gp2XpfMmO9q0NDwsy2MNFoxwiIHiQql0Qux7LbwB/wEXXibRi8Eb/IKm3cl9d49sMxnLErm7CL7H2JpeA8q+z82Uikk+8zu+d2yt7M0JFob3qOIUuZLKsngA0gEFuaWsz15l94qQMkEaAxdIqk+OTyoYQQefoX+fAnuoZgnZ2uQnHrqqUUPt7W1zdGfhXAJOGJYsJgli+2H02uCD5DCTFWEMYSUJ0cvgz4FpaAUUfcSXlNCH68NYQnXQkvWyFs0ycoAD2p+WEK1EKzx7zTZygCnyjoU8V45bsnq8ETLEdye+2I90sw0lqNT5rViJDLGcwmlYKSqLr0P595eZebxnPk9rxQef43CiIWzDwG0Y86SnHLKKdYEt7S0zNTblQFe1AMu8XhWrPPn0OnJ33XCbMW9pviiXnmnBhdg9uzZgwWCm7KXK5AGlUfMM/+JDuVxfw2DlPDMasaFP/RoJQm3trb+pqIC0H+0mfSZWzVIUjk5BmGb2C2ye4zl5BCGl/VkA2DmEydOfI3+LQ1/VxpGaRUk9M1HMtHm5uZ/tA+WAAsY1jEOCbTAPWEqhwLu0iiWzywE2PDCjBkz3o3rQaDv+cK/p1EjRIhQiPnXy56xXpkdz5qr0bncOHCVM06/RfbRKI0DdPeuoSY4HHHwCxP7gj5aG1Kr5JGwxCslNwqpChx9hCVWLS3fUGXmYYnUSppkZWDnH5ZILaRJVob56+WVYYlUS/FuaUlfK6/SZIcGnELrGuHh54KJDUUcH0PFpvD5zkxTJ68Vgwn4vUgMOj+OkesmhgXZwH7czp1lzA64S7P0EYtk3ryoPyuDP2GqRbzKkrupMvjyKRtQKZDhn/yZ+4mqxsKwltY1CugrvQ56oPq3eiSz5tawjIMEJ38a48Pb+AS9DkfMHG7SX2xilYIJxm6V1/E3fPBr/BMqxSTfsA8BbqrDZex+o1CrNEp5uEQ5q9HVLW/WYIvObjksmWs6GxTXoAKglo/7mxqZbmbmbW1tQ2de5ORBcjlcgZrdjqb97KJu+eisa8VOo8CZf7V9yAd4oB/TnxbIeCsz17/lMZS7q9Gs/4xardO/JcF4aA07aCwJ8pTXZF4yYZm6uV9kuE+lNWHzh80hFYCJc+YgnZY9NEgwmriQxoMjCze9P3369AMrzZiZDqlm/tpZE5iV+/RWEbQJrUqVA5180PP6NxxQodAmdkT+a9SKhioYZRzNAh5//PGHaVBpdOTlNEpzWMYkN6BHbT/EREvVZt68ea/h/apn5lK/kg9QlcKkXKNQyG7UzNnsX8VQ9WDQBIa5cI1aH868Ud7E+cZEVg7VII6L92OtXGaOUKhHNEqECBEiRIiA/rxfPprImxXwzbfQ8aczQQeSLlM5X46LfBwwMD49HZ3WziZ6mz7jnMsxgVhGpnL7Qi2rDbWQGyfGM+ZbWoSRQdqTPfwrqKNJbIDYSpmqRRsegLPzGzlZ0iiKZwemM4YFiYxZE5bpaFNNk3uVYkFe9oVB2h6W8WgRJxS7+uRN8zwZehGoFiR8YoQMH6p0rreRRGPmDJobZmAA9n+2UMMBt1wHvX5Cgyy4j4yLmOxqGjUl7IgVPPcOWmwpmPcgYllpZtdG0qDGw786S2Lfy2Fuymvq0iihiOflfeDKLC4xxHMSj2flAgyBb+bmG4QvSmalE+Gf6szI5I7V8lp9rCLEe81Fw6rTKbTsUCJNzliOo+9GxbYmPPkxrP65qNjxKU/ell4re6XXy56apKTWy94dt8g+aJD3g+KdnpyvtwrQ0tLyyYqmWRoNVMDuGkHF/xJW4XookTO/tZn4wBVqDP+3+6cCWOl0Ot2kUYYfKNx9qX7zrP6Vs26U/aHfD1SyE6IcUU06s3KsJmvR3t6+kRMs/gqXIsbj9NSMGTNa9PHGYXDfAYjWE9fBqWWH2K2yH/Q0lvBMju7p8tsHDA0NHB0bZ32dGiQycn2qW/5hca/8kyZRgJkzZx7pn/wJzCAfgvt9wckhNELNe2CKAB29yVU6SDQmuG6CkfpJskQF6gUq+G9z584tqdOosN01QuLkJDh/nN6qHdwzk8jL3cEKV0LkMsWYlL6z0Nq2trZ+lkbqtNNOY2Ef1uCacNxxx+3jOE+xR9p2xaxmcDcT1wvt77xcwhWzsAqWI4o1rPS3bYIKt9uJ3EEhj9LgmtHW1vavzh7gOrjRpSY4neZu8ERgpxQchYUQ/+0cgZUbapLT7Lr0MXL5AFbWVVqD64ZrSHId3d0bNbh6wBEpcE5I1OVETu7o6JXDNVpJpNPSREfFvyIMY/Rat77GAmpwXUCagyLOymtwbeD6XKXdE0Xfxs2aZzE6ewYW/Uo4KTE4H5+KedKuSVqgkHeygCQYq8c0uGYgjWddehD1vAbXh6RnMtYFDalsJcRng10UdG+HKyjEfKcGVw12aS4dNOYfNbixgM/85VKrPOWIc2ELPDlYk7GAfn/LGSCtfEXdDp6b5e+rmQa4vVxvjwxo5JI5mRfPmjsh3k/QCUljpMTGscva7LrgrJDY9+tjg0AlLvBzzBEbgfpP8jeOI1Ycla1ua8NYBAzRXhDTL0I3n2Zl2Rgk5ebjuHfJpEmT9tboESJEiBAhQoQIESJEeDmBU8JxTyYlsjI/kTM/5BskPPYCo6sbuXsZYd9P9sjZuH9CV7e8fcHNUrR/d0wj0S9viHtNyzFeXsuZE04lcXuGm/MOjqkduZlSzq1xtsXOwWXNUwnPXN21Wsq+MjdqAOcuZ2FJ1U4mDEVsCI7H8fsm/4TiqGFJv+keyf0nnG3BdXOXNwrc5+ReLXPejSK7mpI3GS3O8COZkctGYwdCGHWtNk9rsYYPsLCzRmrPWEWU5Q4Fc48Wb3gwpiqsROO5GF2dFrGxWOTJG8fKprkC4rJvTspu/6gZ3LakXcfYInaRWanuHb5qMFbFu+RJQPUitkr242aZ4Pldo02xrNmQyFdxkls1QIXfy2tnxlw2ZjieN8+wTPFsla+oVoplOfl7t5jekZXWczeEFGIEiH663avSZ37BslgJ9Mz3+bvh6ESluW1icY98UIP4DuBNI+WZ2YpmZWmsVz7h76KW3mZ24f439W9jwUrbERD3WGdltgZboPXPS/aZ54ejAay/vUrWa1YFQIUHrPdwV5oFsauO/eZeSUvBJraJnuyRysrceFYehLe0i/06/WQ7tCwz+uI9pskKsuHo5mJY+Ueo0/kLM3KEJl+Ejh75CJ9DGsNfaUd2L1m/6YXIvVWjFQFj7AN5wFIsL5+GeMaSOVnMPaHxHPeGyhXcK5rok8/g2pLsq34rFlUO3B6e1xvSnrxeN8wVkXvZBBz9zoIeeY8+0nC0tbWdOWPGjIJjkgaGm/I5/dt4pPrN82GV9pNtAOoafkM88zFPLrU7j3rlHdz8SndWk5MFa2Uv0uI+ebuVhFXmcnp+ersA7e3td+vOhMpPVqwXS3vkoI6V8t6giFdC1Fk+x8YgUWJI7r+9h8byN4gDKnmYf2vFiFZ6ySqZwK1QsUzTQsfJRhG9vIU9xcfBtba2LvdXWCt9JV+D1ijDCxqyeEau52/uDOLkXaPmw6A2Rbv6UMGHwvaVUMTZELo5bgfE/ipQ48/mIVhpbpTp6JbBw9rimaY0PTO+PRdWmUop7hUeODJz5swzwjbalCKVhgf08cbBdVkkGKfzNNgilm2aHc+b+20DDPSbFRPdSu484m5CTc6CG1tRkV3+ypHIfXI5bIcRN9Q2NzeXPvm5Wvj7aetM5M2WsBmLhVk5FM7JDTzvhipgnQ0MUNgYrCCftWoxQNsSnpy8sFv+oVRfD9FdS5F2FYNOX8FwSMKbuFcsWHFyHXEaM+piwVylHdn/feZJcL7kKc8EK0THA13XhzEiSvLowVRfU0xvDwlUbp4zaGHWGw1zjt/gUTXq2gTr8LWb5dV88ctfaUfkIF8jAjfvgaMwOazrqRfHHnvs61Ch7aW6LNx7f8AObNdb9QEV3BKscJDs0A9dmn2XyjNPxLOmD07Kf6U8Oa0jIxO5qdYdteiArmk//TkkEHeu/izC9OnTJzlV0M11n9dbtYEF5WJcTSMp6jEag3rNwURnryzQZC1YUBoniOkuFPQSDa4JcFXvctymsdPg2rAoK+/m8c+o/CfqGUIuhyfm3g4gIK6DHhev9eoirT4r6ypNtdBb1YPWG/2xHdei0HuiAtuq7Z5INH42QQU4u9RxBpzepMF1ISDiX9Dg6sFK01/GcPDfNYjbnlswTNwRtOrliKeh6eMWKNSDrtL4bT2+eoF0Vrg0Ie61TyW5fpreFwzUdRpscXavHA6r/UtynhMHZd1TzxRYVXLXx5UODa4LSPPrvoZcrcHVw++ckPguZQcsst4exKx75VUYRi5I5KSPledggmNtEp9PZQvFGwW0R5Kx0uBKfYdhK/yVxu+i/eQVY2FfsXNirTEq35mVpEYrCbqZKaQRC0wyoFA9roDojm7W4LqANNe4NMHp2s/X5WcyOODwV9pPVt89szPpyUUQ9Y/oY0OCIu0KCG6XPx+sQjjrrSpTMIlZNWC0NoZVOEjkPr03+N87klmzCf71zcmMpOGGzu/olTPO8uT1miS7rDc7T4pWd/LkyQforZrAAYez3tpP1/cGLqdySrmilZAdbNAQZqSgGwE3XnDchmg+rsE1AWls86VlV0DqBhfL6qk4Ca7pVk3OAg5Js79vBfcHPyRRDWATvs3nmQ65jP8T9FZjsPQ2c9/ATGT1xIMK2RtoUhYoqO26SGwAVPwMvVURIC0p13Ak/H9IbzUWC1fKofCrn+AAo2zfHEZ586Qm42D8w0NWAAXP6r1yaKK/7ThMoo3Qe8MHe6ZBTi5GZbbSL6feFlUyQFz16OyRGZqEBXRwX537KqgAKn83T/2EuPKowoNRybeDPob7D4TFnz9//qBvPzLYLYbrxfGc+QEs94Oo4E52de5lNPbtrDCvnF7iNw30SQsU/BXg2uAriI7ISeopiVLg56yP/qzJjC0sXikf4vmPJK5TXVvi2C1UoIviXqJyg+QaA7/rGzuPJUCMJ4PuRaW2UnQpzrxCFTZD7O+H5S87VRUhQoQIESJEiBAhQoQIESJEiBAhQoQIESJEGCVwfSzhyYdAc5JZSeP640TWPJLwzFO4bgbx2wE7uXDIbSF22UiJS8lFdPtL9912bT6byJnnk1nzHNL9c8xuOpB1iax8JZWXjlhWmmOeTHDfGoxQIxb/Ug7oyMoJiZxcCsb9Fg2/hUyzh06uG9hR6V/oHGmiINidJOsHysSwrn7zTNwzq+KenElB9G9+jACkr5c97etmWXNDqs9sZsMNLuVXu5w/Fghl5mIzhYA75OI580SqTy6N90jj3isYL1i0Ut6d7DPXpvrNNprPSrYnjHeyFgBCnMib36MbWOLfO/Y3BW6FjOXkS3zFt9EvrI03orWigEP7H1vcLZO0icY/4hm5gG8k0aSFVfzlTPZ4mLz506IhXmoa0+Bu0VivuYN9VVglI1JC10UNj+eb0tp04wuxjPkxhzehlYuogGjOuSmWx3do840PxFbJW2GSHg6+4hBRCQKj7TsseVP76xWjhUSv+WGk0ZURNZovLnX2ydHafOMHPKwjlpV19s3LbHHlIhog54XHMk3natONH8Ty8h5+zJK/OW7kkIpjybCKvpzJOqp580SiX/6FbZXIN508//qXPvU45sFDieM5s9IdTsyPYvNt29Qqs9OOoyHFYRV/ORAniOwBzjnz6GKf8wWNTsHyXaV/xwf4SlUia34DB+O5zox8UoMtUmvkbUnPfCPVb7Zz7prvqIQ1yHgmmmO+kuaOX7LMxW8MpX4dy0li3lWFH0juzMpl6btwPzvCH0ivF5bReXM/PUll5m87VkrRNwo5Y5bIyMSOHnMNGmgLV5DYQJxcYWMFG3BME8rLukKAn4nnmpZ/YYW8WasZCn6NN56VJOtKR0xHKMNzPt5wwc9o2whwxtgfQctfTPXJ1zp65CCNWgSeb59aJcfAtF0ez5ocnrdz4mxECgFXrwYFYSSFAXlRMy1j4G+wbiwXr+iSnkbdrg4ezlIOHav5mWVznevK/jYYHSAynY2VyAs/qH1CpQ4I16MX5+QAPDM9ljH/AfoJGviXSPNBXJ8EbYdG2fQ5vWhPtrpzgOzKmIbbEyxBZJS7z7gM43w8hGwXhOx5XB9HPX6VzJgViYy5Cs5SKpaRI+Oe7J/4hbxBi1Uz+I37eMbcwJHJ+GV0rjSj/UQtsct6lOw+szHhyc9g0loX9Mo7NLmGoeMaeS0bl1TtF9prRWtra3tbW9sy/VsEMPqS8+8dED60R8HneccFUIHvnlfjhIlzZqhpFAAIDQTA3AXTuAJ0emev/DNPHuVYXbMbPuwWk/ZkD/1XEdrb2w+aNWvW9/ky85w5c3gAwXf0VhFS3bL3wltlQrK/6cxl/Y0X7mEFh1NsnFiv3GInTEKYWStRCGxfib7aml+kb7cCqWmGUGyDCX8McR8F8fPID8BHoGm/D/fW4/cGXkG3g+x9XnH/Iftc1jxF5+jCB2xa93TkZSLro1UriYkTJ+4Bze2aPXv2X4PH25U6EW7cw06Y9A9MmHT0yilgzMD4eazPkEGIrLBwQaZCLaZpBn5X6m19MrqlpWX8meRKsGytHAJnZkM8Lx/TIIG5nQWGP0YNHJNDJ5SJh93BCi3RIpfE1KlTDwVze91ZE0Hm+onMR9ynQH34vxbXPK7dM2fOvAT3jsHv/TXZ8Qc6Y2i8h+Fg7OrsbSo4GpHbaOI5+VwyK49Qy6lBIzpMKkEcNsU882JnnxyrRS0CTPMSMPZ5v2mulSgAJAoKtZ5XCMEGCEDHuPlgtH94xcO40Z9u7uhpOl1vF6DzFntEdCe0/26rVeqBsx8OY8hwEfPDGH0XytKiRQvFtGnT3gVG5R1zggwsRWFmPYwYTwVpOxh/NfIrONFmTCFsHM2JjiX4j7FvdxJes0YNBSdUMMQ6JZmTy+EQPcLxMZ/npAkFgemSMXV1AfAXXJpMK+6ZZyFoW+I580xslVR0TBf657lgzEYyvRQjad5hCbKgOWDcWdDYb+N6J65/paAMdRIP00bcx9DP24WPMYWhJkw4WcKJfTTso2D8F+G4VTWs6PTkXXD45sSyclZnRi6AQPyAwy+7kd8zmyEc26x3DrIChvz8xO4i1S8P4bnJmmRd4EG1YORlZEzQrJNRQ3ndEJiTEDfvzpjyP+/IMRxpHaaPjT6SnhwMht5X0YQJmMExszXX6CehUetiveZLdOTG40Z4MG0CGNJNhrv+t5rhFQTmGGj8r/lckNnUfGX4lzT66AOm8Mv17DCxWg/NowDQUYL5ZvhqaPFX4MF3xTxotCcTeLqyZjnmMB2Ahj4F5v9EgyoGmPkBMNwO24IMZxgEYl06na7vvM96wenF9L388Ij5ZqMnTByxX7VLgRAG9rMkJxR66PIuEgRkJ+i5rrVmJ4TkOyyXFrMAaNR90LgbcL0BdBGoEwyaDjpYo4wKwNCLwpjNw+VQ3jUst0YdedCZQaMez9+LeuUYMOUPdi63HuepDqJ1ALM3L8m8NK4PAo12S/CgSfaXbGTcq+944DoBw/B5mO0Xg06blu0rGm3kwa8+Q5vuT+alXYPsmZAIW3nOhoGGD2PIcBG1HV78z7UoRYDWzmXfF2xI7V8bcoJ4vQBDLww6ajr23oLyD35lcEShEyYPnneXnYS4ggsDessiBi0H02/qgoaTCTS3QeY0itwwDN75qZp9AdBgrwD9NGgetR+8bdT7QQUY+k7QxuDYXZ2zr2u0kYV/eMXhDa8JTy4N+8o/16Ljnrw/kZGfwuveaF+PhZkn88mkMOZVQ1aIsmYbRwKaZQFgFg9EQ9kxrb8BqT1o2DG1tQfluSLYvfA/wldwUUWjjRzCxtHUKjvPnTO/j2fkc+XWg3nPfk7Hk89T8zlvjjQ2UwDcBgGuXlltVY11+QTJMtoz29mdaPIFgNk7AA21yc9omnA1i8P3teYaEMZoWh6Er506dWrotw+HFUNNmJA53N2hTFgLx2128PDqclj0c3kjBSHVK4cvhoOVzMnZ8ZxcB6uwCkJ0O4TjbgjHPXDAfgcr8XQyYx7jp4L18QI0Nze/BRr9dFCj1dEZU7syUZ5vhGk0wn+kUUYWS9bIW8DQOzjcCTI5jOykCeLad4hz5g9gUg8Y9gW+QL4gL/tqssMGaMQlwQkK7aPvrutzSg0EupgjUc6dYQ4jGP1ljTbyiPWaC6m1tQ6pqPXUeLvTBALAzQXQ0D/CAmRw7YbWfjWRkw/SJNuFEU/2D/MBKgE869nQ6KLhCxuR41iNNqoAM1cGHUb6ESjf4yh/2R2nw45YRlLLuGhQI7PLEdOkILCvdvPZ7LvpxZ8LX4Bbh5k3rQotBQWHGxG1aEVAg10d1GrXmOjHCz7HOcIwyP+bQSaTGIZ7Z2m80QW9XWjgPaO94cBuKsjICm4M1KIFwU+R9IQ1qPaD/63xRgxTpkzZC/nmwgSQZUJ5x96Gf5pWjGWv5IvfunIVypBhI+Rnh3kZM/ghviAwRHkNGu+6UpqN63ZoUOh4vNFAPgvQlbwQdBLZvaj/cLFGHbvgR7LB+IvpeNHcWu98BBhPi0LLEvNMWVPM2TA2ZrDPJpHhCH8RjtGyo446qqFbhidNmnQg0v0F8w4ymMQw0CZo+fg8CoMfH4dZjWFIdpt7PYUCwL53OASA/XiiV8ou9R1xxBGvRKP/jNodxnCnWYizC9p1Dajgo06VAOm8ihYC1/9lmmHdBol5qWP4w2nTpo2fty0rQXq37AGtnxLvNeejj78W9Izd4kshIMHJIlEo6JRV2/+T2bGsuWuo4dsJJ5ywPxu4lJY54j3GURPPPv05CMFvQL9WehhhG3HdQcYxHuOHCZEjtR678MzX8D901e1vHtxrzRk0fuEzkWk6sTPX1NXpmYtjPYYnDl6ezJofgaHcebIapvp5jM23+glM3gp/YTvuPRnLyTGabFmA4TPR6BvoCCkTQhlUKzkBoPYin3XQ9g9r1hFGC83NzYegL/8itJTbeC1zyCTtR0sKAcN5n3FJzlyDsavA2A5+/1qziDBWQa+dU6pg3NEQgPPBvCvAvKto+nG9GtcrEL4Q9D7uM8P9EXn/K0KECBEiRIgQIUKECBEiRIjQCIj8P4gFIyAZhfrQAAAAAElFTkSuQmCC;" vertex="1" parent="1">
          <mxGeometry x="490" y="360" width="32" height="32.52" as="geometry" />
        </mxCell>
        <mxCell id="JmjW4H4n3zkzEFeAkcXk-21" value="" style="shape=image;verticalLabelPosition=bottom;labelBackgroundColor=default;verticalAlign=top;aspect=fixed;imageAspect=0;image=data:image/png,iVBORw0KGgoAAAANSUhEUgAAAH4AAAB+CAYAAAGVJJUeAAAAAXNSR0IArs4c6QAAAARnQU1BAACxjwv8YQUAAAAJcEhZcwAAFxEAABcRAcom8z8AABfLSURBVHhe7V0LlBTFuW5ExauGezUnuTnB4wtQWBWEnemZXSAbIkTAy0NhkdeyO9MzOyzLwwUR8LV6xQgEJKBRIRhBFAkCishDQNAcEdSoF/HijYpGEBBW3q9V2a37/9XVO9091T3dPW+2v3O+M9PdVX/VX39VddXf1dVClqJgBBF8oVgKxU1ZCBPwIqrpj4AgI2CA/AARbhhqTAzTqZIjpKDiLF5E5PWbSITr7owhYvWWT2QhMcCTTIDyX+hQSoQ2g4ngCdLjCXNejgrwR86ymAwsEuJnXUeRyU8tp//f2f4F/cVjjQCkBioB6v8I5di2AEpRaviPsCSg5KFno3xgLj2nQCWgnMVkKIZKAhcOfH+EBeVDKVAWS4cCqCQsJ6Y0BVYSXiSFluEPayMWVATYlcYBte4NZQB9RFwUVsRG1NMQYuA5GoDXByhsN9xECF64cahc2zh9gdB2sHyNmxOvNEQjgAWi/1X1gR6z/ywmgxKICcC2j9QfIywJoP9vht4Ifj/Y+a+GSA3XkBp0GiWf1Kmgp+ZaDPAkE6DuD+Tj+aTk3mfof3MBwHig4URpG4ulgyI9Hk3Bi6AQC9sSfAGfJiL3TtR4IYYGC51Hy+WpJtZFMbyehUoiREnuJZwQuyfHsNK3WWVBuc2MKBFvHs6aj3PcVjUrmpF8qTtLwQRKYCTrGhCa84xG55Hj/rSUXteMRZDeYAFLiQOsXOrAJhn4999U0POXdR9DHn/hDbKv5ojmOo6kEDEZQBoCa7M6oDoDMHRt1mUEpQKhYxn7RxquKUx+BtTnVUQ0gdud/ryzDIjSRk1AVQacIiYDhSPjtAh181OXAA4reWwfbSk4cqC/Nw2jv4i1W3doM2AJmEtVpIvApnOWrLfFymnPa2QIPjCvbfihA9EIcUih+jwm0SHE0O+4gk1ZvoXFduEi15FffgHU6o1CJ+gb1CMg2kSlY4I/0oKFTCJ8IwbZ6gP8kbdZzARh5CqywlY9mjEpDsATaJvSeCbNBriCHFIMVTKpFqCOqJ8H26HKFSQUjbyUSTdBQeS0EoHU17MbpnM0JI6tIi6UwJi4CkLrgfxJPYdTF6xhsSCeGJUneAImfhxfeA8vceE6SFh1nvL6QeT+ua/GnmdUoEkcXVyGwEEAT8D1oJHqPPKLb/bJ1/A4b0jMdQWaxJGGUAcCKuAlrkDwSvIvjHa51/WJ+6QxLDUVfGWttYG0iSsuE+RVPavYFbjWcgD9fXbVOw3XcSiugJN4PUtRBV8oXxtIm3jDuL2DPJ5/8uVN5Pip0+T7Q0fJ1f0masb1mKCC2MSBMfAHuukDKdAXOz3XoZQMvE/2yII2mutKGERM4twm55daaQIBFfBsTqn3namogFPsdSxFHTSBogJuGTVTc15DdS+mEJqmgpjEPeGRLDUd1IGAyUBM4obQzWYVzPzraxpvm5r1rAs+dvwkqYP/Z+vq6LEC64kzT71CBU3al2inTip+f/g4DXPHhDnki937SUFgCtnyyZf0HEKTuCjtYikZQD19gjtTIhg5dVFUFtIS1BGAf1mxmTtHM6PghZJRy/EGhzLpceANjdBETJSFFZxezQxiqJoryC4du9E6lnXhCrRKf8jAXWwHujl8XCbkNDSCGHzPMCN08hA5w0K6cOHCRQcYtMkDt3zBW3YrzGW6wQ36enpODF3BQuUw/BERRox7aH+LXSCva7RCdIvQYZb0quAf8G9MepYBnUK+cF1Cilol3mf8oadYyhmEv/wYN4PpItYsMRxhuUkT1M8tsoGyW/IhlrsUwRc+w008W4i+GByMJhXYpgtj3aPN/CGye18Nm7ekFz/+8CN54M8vy6vadPmCvucrlvMEIUrFXGd0Ep4TJgNr3t0RO0lGosc+IYilfsMenKP8r3qN44fVE2oMuhi5Pg8ztiuJWYZHH7TylJdp4KCJh/zyi007No7yhp4lHUdOf4GGP3r0BMgZxg1jROXxtoI4ysO14PtMIxsQg5u5whQ6Vf7m4Rpv+2XdxtDz1/QYR4/HTF1gWiNsK4/jAqH8AqaVFRQ3jbvG0qHy6MJFbNryP/SXtlnotA4cPkaPEfQRACcu0rbySK/0ClPMAnCcHW+0xlMeMr3h3U/YER+Kh0+48nb6i8gbXE1/N20zj4sOeEfKGzpnefCW9nCkvJHlQdakJ6KZbtGzinobX163hZ2RIbQq5sdX0ZHyqItl0FlWEpVHeoNk8p+Xkbtm/a2hTV8Evwpa3zEpNg6HziwfsuE39A9vAQMbnpAoecpbsJyG+QHy2lsfkkVr34WaEOCHURNukZXTX2SpybCkvCjVMs0swh/+nitIIUd5xNyX1pOr+txDruo3MbnsM4EcPCI75dWIqzzWYDHYj2llEd7Kn3NHdgoNlE834iqP1xxBlJZxBSJ51b61zWqPhKr/zXeHmAQZSt8x4tHn5OOWstyJTy6jx2qYKp/wamWftJUrWLW8LpPof88TsXlD4ui0MPhrpkUC8AWe5iaAhELAd4V266yXSrS4FUaFuKqDlx9kZ7ieXFSfl3VODB6T8nDICGK4yrQjzBTpGD5d8IdGJ7T+K1lMq9J6FBWdDwXxdVprA33BImLxMXM6IQaDMLD40fLre1ZIZ5jSl1DTfslSyTEUlFfSqSV6V3CWhWu76PxBmUPAOVE6A/dsCBe6ncVy4cKFCxcuXOQKqHtMagX38esET7ibvDKjzCt7i4HnFPABpxhcD4OXw/T9XhwC48DGiDhOlxe8bhI8UiCx9z8ygR6jm8Fo7VV5/J3AeB8Lo4BOofdDIXZi0rMVMN/3l7+Zkjk/FiItiHLdJiLZADE8k1ZZXsaTSawN6IPvOLwlSzmDyCu+MCNzekxTDC1iucgAxICUcbdWRlb54rTTn8T5eiLE5TJpgzc4LqFePBVMiyvLExxJd5zgZSDTxCaYMoiB9lnhsDSnwzU4ZigqvahhNyA18VEzPrRQvx6aLuI2b/r80DyFlrBcJwmi9GVMIh3LSNX0haS29gf2HCW92HvwMLmY1wSxduLK7qRALOvC6+CKRkxj2cgsaM3T5Q1GgydZ7hMEr52LIbqQKBuAT4tj8oceYS/vxVg78IT7RF3LKoLy+GhYjzmL3yBCm0GaF6aTwtYDSdveE1gqWvCVByb+eBrG0TzBHOVPnDxNd4DhhtcTX/LDQuJdM+Evfz+WpRaFofLYVMVwV6aJTXSQ2hk+deEoX4ULjXhhOZz54hs0Du/lclOqXsdVYKg80h+uYdrYBM7JeQKRHOVxlRQ3rJ5QjRV0hU6TG8aI10fjKjBVHvur9qX/wTSyAXxthCcQmYDyv+gRfcG+ePIz0Wu4BSHWBHnayqdd5ekjseBoppENmM3PnSoPg6LR055nMeBe/d0heVsDUHzn12yvhZtL+HGRtpUHitK7TCOL8IXHcgUpdKq8J0A+3fUti0HIMewkO5SRJqpdzFrcNp4fF+lEeXSn2YIozeQKUuhU+VbFNOwhXE+nrMG9YQhp1X8y/Y/409828uMinSiPE568Ygu7sCgQJf4tTqGR8jDenvjEsoYNMvS8st9EGvbTL3aTpRv/Qf837xwhc5dvpv8VTJ61JCbuZbeABZ0oTz3Ddoa79Pk5R5BCI+U7lLIjPg4fkZeV/7bij2T+ik30f/9JT9FfrAj7v/ue/udh194aOtjRw5LyhXZ8fkaDG4Um1f7CThHNDiXI7qNnslAyUInmYEnEqg3v0d8TJ07RQZI+rkJ6N3BqeV+gJ9PMAnhC1LTb5lUWo/tCQgd3gV+7/cf42RYGSY6rfWg408wCeELUtKu8VyKr/v4RDfeH+a9AfAkUGUSPFcRVAulUeVsLj522eV5YxqbQGW58fye5EG5t9JwnSDZsi84MuVNTPZ1Xex/TzAJSoDwle8lA4ctvfkDjTnpymea8IdPS23uDB7iCFHKUHztjMT+sCS8tGkk+/uducjn88q7HsJW835Qa8ZXH2V3oGqaZBfilEFeQQo7yCOzYuOHNCP0B9zyHvx05g6UURVzl0fdoC75AZ9NFhAbK45sQV/VNxVsW95A5C1ezVLSIq3xB5EemlQ3YnNhkCnGVF0ObmUY2IIZ+4gpD5ory2N7xdRnb8EqlXIFIjvI//nSWlNz3DHerMENWzydbt3/OJEQxYcYL5OOdu9gRIWOgM/3nN9+xIy1MlU/opQOjV0o5yt/1+BJ+2DhsUlDOJMiY/8pbcifYZjCpq6sjr0M69BZ5dX8WQgtT5cXgCqaJA/iC/PdrQPl12z5lyct4YskG+SmKan82K2zV+24mIQr06LT+r/H0/7cw2cHjFt3G0GM9DJVHFxY+aXIMcXRzo46vW9Y8tDDw/IjBnUyLBCAG13GFg9VCU+RXvzKBo8dP0s0EuHlDgxVVn880SBDy8jA+8aEhlH66cPQYKI0PMowUp5SeZzlPAnxSL3mCwEsICB1UxR8WcnchTCbnLd9MLok3FLY9orMCXBjISyybSBcoJLpLvhEyvQDJjH4cjhttoposZGMByDO3e1kOU4xsKgA6hJWms5ylCWYTn3SRzjyDY1mO0gxf6C3Tu0AqiUPv/LJeLCcZghgaYDoOSDZpYUt76NLXrIE/vD7lTYHKhzFHViJPuhxqwk7D2aAT0nYdRt9CmKWSA8CPTeLCYCwI7JF5ihkRLSz34h9BYfqZxByFJ9gHlKiESVJt1C2OLmUsFNqG8Vyd4A2upu/cCkITOaILFy5cuHDhwoULFy5cuHDh4lwG+jwKRlRSt4E39LggSvuAdbKrQCF3VS2c04TBLboOgpzZVJYsM8nfC3BhD2IgTygoDwje4KsC/cBEWHZ44Tb+ydyATk/0N2E61H2KfidIWwytpo46MdKe5c5FclB0Pl0t7A9vFPyRWuoFTaVxnRLzJHtoa+F4i+ANDMzerw1lK7BL9YVfg+61jrZi2ro4hZ3tpL3DCCKI5asFT6CIaedCg47B34PBP2/YOYpXkLlM1Ik+xpS+EjxSb9C4ET+O8A65GYy9RjZ2jrZqJ0Rd5Y03NgmeskJWGo0AYtko6ALr6ZpQXsE0JmIZ4Loer5M3nHMFXmm8/Lg5CwdnmSadMUAFEMMPstI6B4DzYFTqXLx3J5vRClDFSi8H4S0NQ1cGXbrbwm0Ty4zeAqQKVpo5gOLiptDK18qODo5SLq2Ttv7QW6lbOp4seEtvoQOWeKN0vI4vH7UvIRd3qSA9K6eTKXNXkCnzVpBH4PdcpKJfv7GP03eG8QuNdGcYK2VVWElgGngHK+UsA26oIk9TzOkJ0p1gnlv5NntJpvFi2ZsfkPPzwfj4Vh2vrNREP4AozWOlnQWohm7IK71uqWsXgTcOJeu2ZsfOedmA9e/9r/waJJYNr8zUxDL2Sm8m7yU5p8Cv9Pqkv1u+nzPD23nd+sSpM2TqgjXkoXkryUPzX8tuQh4fW7Ca5tkqsCwsGx4p3/e3CwXDMvT1IhzE+aRNNCO8DPJow/DTnl8rv5mJn2a2WijZQswz5P2xhWuZNsawbXgkjqPE4GdCXnUG3izBT1XafXnCouH/uHA1EW7CwrC+b0hcwn20aUE5GTFtEQlMeQ67TJm8sMlim0Hk/qfkL00bwZHhkVj2YnA5s0aaIIaGO3p3yqLh6dZC19/Jl+GEHcrINb3Gka/31bAUCP06dpMbbG41apegA+piBseGR+IGGGl7ywi3GRGlnxx54jJheEwzbzD94LUeQ6vnQzr2N9q1zFQbHm2AOzQ62vrFLvDjO06dM5kwfPvh5Ire9zDJWsxZvI6ch/4EpcvHOfNNJeTKPveQXlWzKZt1gTGMlY+B85hqwyOpLWCslVJ4gwWCL3zAsRs23YbHMQIYctuOL5lkLU6eqSU/v/Uueiug4fOGkI5lj7CrMnZ8sVt2NuE23Hr58ZgOw9OeN1wreMrwOX+KgPcTK04aI6bb8G0HE+mRv5KzZ88yyVrU1dWTSbNfopWDOlHAuHt0X86ur68nD/9lJeTHwS0hHYZHok3EcIRZKcnoEPy14JH2J/S9FruGx64XDYL/1Tv6WyFMqX7xu0qy5cOdTCohu749SFr2Hk8+gVasYMXmj2D0DeHBsFNhCsnDwcPHybXQ/QtX9OWnpSf2EJj3dBme3uuDtSDDxraOVoEbZeLS43i+ZTPaMfx1A+n9edaiNeysPTy24HXSvUK7R1f5f8Ng7pr+ZDWM6BX89NNZ0q1yBmndbyKpAQMnA8s3/UPeiLj1wDQZHm2CtknFFx3x05HpNDy2cig8T8nD5LOv9pLdBw6bc/8hUnPkBJMQi092fkWu7FlFN05vW3wvOQX3dwVD73+GPDp/JTuSkTfwPlJ631P8tOKw74QnZcND60+f4UP19JOeSYc/0E2ViDPaNbwSD0fV2H2aEQr6Ugi36p3tTEoUeJ9+4OnldP9EHMjhgO74ydPsaiyeWLKeXID7quFthpdWPCpGTFtXDzZBiqG+zFpJhLe0R0Mi+oSt0qnhrbJjgPyqRxWpOartsnd9ewDShhG+8hQMBn0lD85jV7X4Zl8Nadt/Et2MP0a+Xabb8D4pwKyVRGA3gt1JNhseedMw0kl6lEmS0X5ItVy4Spi2Q0g/6I6xJ9Dj0WegZ7Cyo7oVptPw9H8qtsMqDLdM+z2eJ8MKsXVjV42fysLNT3k+f7j/Ln5D/mKEgt17D5L/hB4jKa0dmVbD4zt/Za2ZtZIIFNqQiC5hq7Ro+LsTNbwVwnSvcupClqKMimmL5NkEL7wTprfFQ2+cilE9PvzHt0ftPpFT06Lh39y6g1xSAMrAPZsrJ1lEbxwuf8IBmfKbSMVWE2RdBGOKZRvl71IYISmGp8/og6vsfYbJDvBjXYnsaGjR8Ig9MC3CqRx1iOD6tFxi6ztJPuR9z8EjTBtjJMXwaBN/KMUvZYjS26l+SKMHfhMgl2gHCRueLoSRtgqtejRjFkoRcMrgx48zOugSHRr+XEZihgcb+CNnoTGm4QUMvI94Q6vpK8DczJjQNXwMEjI8XYIlfUS3k00LfKF84H7bj2ctGv6RZ1cR4dr+8v0dv0icKuITt5bF5PLuY8nemqMs9VicPHmKdB81A/I0gMZpDtPDtSp/f83RE2TQpKfl6y0HkGt7jSNbPvo/dtUcjg2PZY8fE86XOjGrpAmYIH6P184o2KLhx+KnbqAA5XVx8uPS1BDk47N4fzn5l+5xrBqL1m4jF7QbJo/6UQ+okGUPz29wAK3esl3+FhnKRB2vvgOmpEvptXhwZHh59VM99Ly3MmukGbhveWGF+Sc61WSGf3Wz/LFVI5w+8wPZ/vlusnnbDvLW+5+mjJve20G2fPgZ2YNr8ThePDVqDh8jq97+mMx+8Q3y7cHD7GwUR06cJis3vk/mLd1Avt5v/O1UPdZBz2Hb8HRKHSgHC2RwgwUxJNGRpdWWj160G4aSyGNa50ljxKRZi+nTQq5nkUsoY3mp1XhW+hmGOLwrDPZOsS7IGlFZqOltiu8lncunks6hx8hvRkwney3MfXMNtafPkKqpC0jnsilU1xsHPwi6w60Dbw28suERG1ZBxUlBDN/GSj1L0DlwLdTIXY7X43mCpIk/RDbovu52LuBtGOg1jFd4usejPJD7WsgvbcNKO8vQbtgl0JJfSGhdHj46xdbQdvC5QdRFGRQ6IXbtYniJIA5tzko5i+EJF0Jmzzpu/S5ZKwd67HwPPlvgCcjboCSyQLOxEcdJ9KGLNIqVYg5DDFbTLsvO4K+xUTF42r8mlw7gNARdvdiF8ZRvjMSywDLxSvexUjqHIUoRqOG1tIbzCqMxkPo+IvVg8Bza4ChZaDW6GVSCl6gnqjEMBFHHzjjjkZYKVyXywe9zCbi0yy/No44K6p2y8Qwga4m6YMuGX6+0UPCVtGXauuCiiG5Xfrfgi3wg70OP44IcqAjUuwatGnswf+RjOJ6cXd9DzTUUBn8miOGucFtYCQV8mC41opUBRsIZqRCQJqaNeZCXoh0RxNBK+rQsJxwtuQysDP6qFgJuAOwvXw8F/w5UjHpqCPQc0i6WVQwe6a1Ed05DNr1CWdS4cA4/QkDTkqpo2q6RsxDYxXoC19Ilxwo9Ya+QL/WCStIXOBwqTRm00tuFjsHbwLA+Ns5gYSFukTsAc+HChQsXLly4cJH1EIT/Byivp6OjQ/WiAAAAAElFTkSuQmCC;" vertex="1" parent="1">
          <mxGeometry x="486" y="450" width="36" height="36" as="geometry" />
        </mxCell>
        <mxCell id="JmjW4H4n3zkzEFeAkcXk-26" value="" style="shape=image;verticalLabelPosition=bottom;labelBackgroundColor=default;verticalAlign=top;aspect=fixed;imageAspect=0;image=data:image/png,iVBORw0KGgoAAAANSUhEUgAAAF8AAABfCAYAAAH5SytjAAAAAXNSR0IArs4c6QAAAARnQU1BAACxjwv8YQUAAAAJcEhZcwAAFxEAABcRAcom8z8AAByDSURBVHhe7V0HeBRHltbdJoMCyjOjMJJGownCvt097+7dhrtNt+sN/jbcwqIZkSxyFEEkyyCMAZMMJkcDBpNEcA7YBGOCDcY2a3vDt/auD+8BxhhpYvf09Ey/e69VI3pmepI0suE7/9/3fz1d9d6r0NVV1V2vejLSBqfdCkR2Gg1ouAM89bXgtFk/CAkr6bBZTzPRDigj+UHWCyy4ExTOfnbAOch0zDnYAjC8b8xsOAab/8p+osJYY6t7vLFTmH7DNDP4G2sgFO4ZW/22HEnw3FsJRHaa4ZpR9p/sZ4brXv3vlHEZ3sVlECILyoCWitvYTxnKuAxpcUE2v14LMtdpXqawq2uKsmBHiSwE/TO+QHHcmqLv0XkngnuLwfdYEYi7i86zIBkUBvuKb6QQAkDGPwtP5UEkxWfyooVD8J/IliP9p7O/I72WA6HzhLhWZ/oR+5kYwaF9A1FXVolWrAXvwFrgkcomoiQTvYF4kTD0dvhkgPledtoBakdEdhoFcVhteBy1F2myqTOQzl3jq9+W25QiXAbcb5DbkWdW5XQ6D2s3iLBzx4PFhlA7ghV6OYJTthuE+FA5eBaVfshOMWCjrqMdIVlQBmwtgeBmnXweGdcJajNEdioDHu9oX/CUJlpBrR0RWXQ0qN3AmzmyQOB45kA6T7otxYKDXdx2m+V5FpQeuO3Wj5WtJ0QOm5/DZt4OQ/rK5657jEVMJRrtvzZXRhpQknLvslvcDlttPcl/MKTiNjf+hqEdxokYf6PnUoOLCSrpsJv7s+iE8A20ukmHnarDNcIEIbKgMMA4S2c80YnkR5nCenb3SHXdDJiN/W6TQaZzauXjLFgGxbkwnJ124sPJZfkhnWBzjcSCwxFcXAneefpwPlA+l0XLoDD2UxUhPc/c8kMsqAOeh3XDuIdLQI1MRIZ7qeYH4urSmImEdPiHS26MOGrgHin+gH9EAyF6txZ8k0XFRGAn3u8KHdjT0Q/EhW9/AURSPFgAwv6CF4V9+Uv8B8Lj6JypJgaNQf7DfSBZwvmMLzHV9CH4eu+j4muZEDyX1cqCug+PLWIwSSe89dYLobubBaUXIeNEH3ZyLLj74GyWulBvqaS73goShjtslrfoN/WsTEUd3nrLszT602ySZgLUS5JipOF4ZKbUQTlQUwqRZgyOOtPDbrv5DpJ3DjD93IPdt1JGNhQL0HB7mMEQExYd0W63TqfxgkrPgqKBk+nmSOO+QaldTEoE7fyDnUbDweZIieZK8RBXTxqPwx4bSGhgYcGd8I0xnVcONrIc6rBoGRh2oX1U9Q/YaThochYiC+qEr9F4jcJ9E3HgGV/9Fkw3d8oSXSNrOuf+7nHGi+xnOEIjE5EFdYLCvNOqTrLTTsCcG6MgC8qA5ogMumdVaeQZJKO3OXwG6b634iIXEaYEf1+HXmCeQX3I7BwmFWRRMjzzyi/y8yvUlRHcXP00NT0Z/uXlnY9GSrJoGdxi3X/Aythjsndx+TfU9GRIa8qixmKid7lmGROREVhTiuG6mew0DNxyXX1IjwWFw7dB5w7Nozu5LnpOjWGfwM4SgMdKwbe6xMSCM2A7DvZMj+brLDgasLN4Udjg/ZjKxD0C7g3Fdyh1iI5dffJYdDS4HUWDQ5N/ooQPlSwqCp6dhb9UykJrMQR3F21h0bEROFQgKmcMRHi6kI7Xhdbcwfy+/OvwpHx+gwfy1zL1xIDD+apPI7Hofzr3XaaaHODlXNXpiRpJlqklDzjX8WgtIoOnMzex4Azx5cwfBl7uPTj0uCTLvJL1OotOL+BPWUDzInb62YAbZP1DaFTk7NbDLPjmh8NWU6c2IaGCtA+IMRbdLMDMf0vtUTJEmndgQd7AR0u7o1+1kanJuHS3rrfTZv0FxXvs1ldZcPdwtX+t1mGvMbhspu+5B5p+RL+v9q/QsmicbtcMphmZK8UpoJKxCoxz0hMsmdTADzRV0dxUzWhXSRM4KiiRJszy21QVOSW7XIC2/oY+/kHRs/VEpFljcHBf8A+8fRYzlTTa6ywjRCyk8mrQfYTcxkRSA5b+ojJz8Shgwo4BZjtT7TYujdT19tRb/aE3U0G8am397+zDopMD3VBSA14FatsxaYH2etMuptIj8A2p5RyYjjikFj6ut+hYcPKAUXiTNZij6BuOzw4N1d9mYnHxbv+iLG+D+XnXMLMEo/FeGI2PYozccLPADzfNZ6KqaB9uqvKPtOCjRIpPta6RukJ+HD5fjMFHAQXdY2ugfbRhBhOLCc/YGskZoRuPJAuNZrg+MrpioKX2y9IkrLTR1Y+xoMRwNRpOuydVQyT9U6Ofe5RwNVY1h8lPq3ZyU6rLWXQnXFN0ha6JVcdgOlaKQp4IM7CSGisqmagMZ2Ol2T3J8DE7jQ/PzKonuJlV4JkRTe+MqrCXeEq4plX9h5fpBZoNQRacEDAy40vQUh2eDtmZXjmbicj4eFJh7Pugfaq+Chag0pyKmORaKsB9X2kjU4mCe7b+IsnBouiHx2TAza0QlenxmJ5rVoWFRccGN7/svHc+PqItSILzSxcztSh45pddIpng0vivVmPBO7/st/zCyDTL3mDR6uCWlV5FQrKEVSrPjwrA+nJZzrukZDcLShreJdrf+R6KSHNpySUWHRuelbqfwiMovEoH3OrEhM2x3ysT3Cu1U0hGWFMCvjW6C+2rNFWo8E8tLRn/7Hq46Hfcam0TEw2Dd5XWF5mWD2141+h2MpHE4NZrB8N2LcAOHfCb8Hk3BoPbtOBcr/0FU0sI75aCEvZTFd4NRS/ym/DRVyUtorBZ62GiqQP2a8D3aLEqYS/GbS34NRNNGb5HC01wILb9EOGgBlwbCxLf0LEg7M1/0rcXH7fjEJ7EZ/y9BYfxmT/usC/sy71D2FfgCR6IYedgEbh25tdKKzO+wlTSA3iuAITH8bG/R5l3mSWXXtAqCBzNA+G53LTT/0IuiIdzF7GkegaAPQic7gP+ozmqhFfweCT7PJzC3+f6gHgsJ4xqOiGSXZZMz8L/SuZm/8nMT8RTWRf9r/R+STqb+WMWlRTgrWwQT2YB6ncSXs8C75lepUzk1oH0ZqY9cL7Xp1PzXcG1BnM2V295i53eOvikX02pvHaEj4N0bO9nqmJRNzeu1ZlL4J7wNSsqwPk7e2BNNt3AB3vZoyiSGJ70M8Fngvb+5qZYL6a89bXQZjN+n4nefKAXVGoZv0Fyd7GcEAZb+zKVTkgY5rCZ9tNrxPY669dZcM/CYb8jz223niY/xdA7m0Skl1N0X/ADrX92DDANoHuCwkJXrd1uEZj5roMbVKt311n7OuvNv6IVZzpnUbKjkDi49g1xcOpv6pRUe1tNa/UsmdTgrKv+FV7ej6g26B0otVV5rZ6I53IXaLO8TcfIRNNFan40NWFZSh7Y7gQ1g10lFTxImcHCEuk1o5qcklTz9HTGspQ8nHUWl5rBZElXh3w+2m1mN/mfXa+r+WX7rytymfmMazaThXzU2ussT+AVFgMqzc4/WF6tqWAqycNlt7wWaSwZ0mtxbE68o870M2YqKXxUd7vGZbNciOyp6CoxkeSBGRivNJKIHVOAvtiHW7rVh9MIjL3WZeUNTHZZdHJw2gw1yb7rp4zzOKIy1bTAVWea7lc0JazMUywqOfiSyDzLuMhU0gon3iciywN1xY5+tfksKjGcNss+ereu/m6/gzCsC20yBbTZjXf7h2DPhPnw1Fv+zoKTA4zEkkf4AoXoGmLBUbDmv5loj8E10DLLjWlF+WUnQvsQ0wLXsOiFCaJ3uJlnYgnR3mBuQHkhOAqvVufCBHaFw7ESGkxtruHmfkxUFd5hpstOOV3TShaUGI7hpt9HOkARycPWNdIUvktABa5hNdbgGAu4VWwo6UF7wbEWaBtR/SumGgbyyZcwXhpnTr72naNrfGqrH7S6wURiom2k4b7gRKwtFf1Y5MaZgB9fo+pE7Rxd/ZKI9pKeMkhTsZYV3mA3WP0aE1GFZ4Lx64FJHdtLiHgOINuq9rvGGU+7xlcHoMkMHIaH26XtBEbgJxodzFQnACeB5J1GS0MsKDb++jPjV9SWabyTq8EzxRh3rg0zb+jJNiYbFrCoMPibDN/1TQm3T3QRG6ui3qTBtBrwjL2xoh8TzqbKwSHXOCWlZiNIE4wx3yu6mgzLQrJwnxE+HFaWsH/mphn2exRpEL3TDOCaWjWMichwTKm6l5tk+C47VcdHk8vu8Dcb3Mo1pRDh/viLcNCCzQTlfLOqyCt+EAtOCG5m5cGotOZUp9Y98s0Vj4pzUFnha6gk7WRholGAkXd+Kch0A3hkwUkjeL/Bq0yLfBxdzfqw2o8J72z9217F4pca4YHYDpJ0MwUxXpa9r7KFBScN9yz9j30tTJ/RN7cicSVw88ubffMropwvIwkPxc+89GAF8A/ogZ9bdg8LThryS90l4XsmyB6LVoe0VJMJSzHjYat16oQVsY3Bxju/JC3BjC/Qg3NuyVQWnBLExZhpZXrLEmTev7T0otITNR5p85VnScnXmGoUyGuVyR1kQSnBs6j0ujI9aXk5tD+gUX9VeKlF1xtWYmLKJcYE9CwtPcPUo+BZqptBS5awqjxxW1VBMCIvEp77lulir1EJq0qAWxHuphuPsCX+ei3Z86I9cXVJyu9eYFO42zCsw4pI9CAurtW9w69GhYh10lj0riyOuWJOCK7vsEXrtZ6VmmWhOQkdpUdLNtD9IQsq4FqmKxTXRuRhFdrYGn9dWIZ3TfEi2Rd5nTbcl1mFJCft0GQyVVXwa3Xz4BFMfBvW4I4Ov2fyfxY3aB9mImHg12pOqaaNYWSHicVHYLv2GXhUC4GtqKiy2NtBDYjbNV6mkhDcFm3c1xiXNuK991jsRW1a0PZuzv8WE08MfkPRz4RtxYsCj6GBCOftEIWtxak9nsWA+Jjmkpp9JblHilP3uuW3FW5XW60O0b+7qOvL7ghxT+F7anaVlHYVQ3CXJv4+ulgIHCwOKr3bIylvh320MGk/hRDE3YUfqNkjkgc9HMDK2VX4sbizoOsuwtCa8QV4Bo2qLMGHGDxQBGJroc+9t0DebhoP0hOFzR0uAOq2+L0FHmlfRi8m3n24duV9jzYZhm0BUKGAhBeKgG8taPe15n3k358/W2jNH+xrzb+AcdfhBcxghI6S8Fxhlwa4uPAdyr1bfELNfyB9hMNY+IN9/pUlmT4IT+W+p7ZHIl2EY/ngP5SXlK9nyhCexcyrOEGkg8HjuT5y1GBJpR/+w33ei9w8ki4KL+T8L0umZyAcyf6TmvcGEU5hJo5kHxWPZX8Ab/YBOBHu/SGq6IRIceLRzJj+nWmB+HLOTwKvKHfUZAO8kQPB17Iv+45k1TIxGcLJzL4o8x0M/63wcu8G8ZWsZcHTmFnFjpwQpddzwH04s5ip9gw+OJ5xW/DNLKf/ZNY/gmezLkqnMgd8sC0j7Asj8SCeyLwfzmKhFW4rxMDpLPXtjDcb+NOZP4Y/ZEHwXKa8XQn+mAXSmTQORp8G/Gdv+7Z4rtf74tmv3MWC/n+hrb9B77KZz9HCGy1DyUtBNssDV34S/znjc3QDVwaYK731te9GuvUQZbcGWpy3Wf7kGFgbtsXrc3QTDptlf6z9/0rSRQgOkZ3F7mOqn6OrgLt1vbHi/5c8MZJ17iE5CS8AfVII+iextPI5ouEcZClw2C0nqeLVKjkRqRty2MzhX9z5HPHhtVvu5AbWzsAK3EPeMZGVmizpDiCnLbp45OpD+5e5gRheZ3Hx9dZFeBznspkKWbIZ0N/QhxxhOLv1RUGWrZXdIUhf9oEafgddzE20BslUbm1cGajJvD7AOsZtt7xJFUSOW92p8FRIPoaUJlWwB8cKOsbbAu1m3nftdvNQlv1PF1f713yNt9eOcNebFzrqrJexAILTbhFwluF32KxByiS2OAm7C5HCXUhsLZc99tqWdptp+JXfGoo//o3FJAy0vkBedFTZsdxjb0ZSfrGcx1l19DyuD+hbjpXbRh6tybgdxiO1NJqbJzt43mxk48956dPqevh+pipHnZlP90cAukKaSnb03bUdjrE4qBI9dgt9jvUyNpLX8a57FmX3y7RZD9GgjX35RbrDQvKhMYDGBKX9RKSW326zvsiqpudxfUB1OXYdn1Bm1TLUU6TKkj2cyYfcZhEDg2pfbLeZ53r612o/qqvSsOx1CfD9739Rqrtd47abf+i0mQ9in/8OPbzRXanmvq2kn+5+m+UEKHx5exRtdZYWtSfLniC1aN8g+duVm9vxqZZl4VMBOUdzdrOdH2g9R263sbrZ0BN1m80S9v2pHgF2O6ODmJmeGByp/6cZDhZY9A60LPgwFU/XHoZzUJUJJxenqLuh7wNGjlV0p3jrrZ/w/Xr4lQaO8q/S1VYm3h2GKh2neEJbnWkgS+amxfX+1t9jl8NRt6O8CDQ9pYvjHGBN2ostZdDnSXCwkfthZSV2hfK8elCt77rNMpyZv2XQNsB4t9tu5eltaugi0AUIDOkr4fS7594pOQZbfio21PIecgEf1DUKQ7HyB1v+cn1o9MdGbiV8Um/u5x9q9XFYHgcrGzTgXVFvGstE0g/XENN3vfeY3VyDBVxDzSlRGlULqP/01bG1Wcxc2kCb1WBkrd4ztPouTGO7d5j5iHNoODHfeDQdct1TMxLuqTF4G8xxv/GQCB/2K+vlGFRzCtMFtA881on7HjPvGVLzSyaSfmCC/8UNN0veEVipw01JkdzwHQ3m5L+qkQBX6WNJI0xjxdGWczAWZ0lon8P8UJ7cKukr6UEZkuVHmgHGWUHAo3+U6RiP9uizViyJpOFoqLlXGmsNUrqYH0yj5vVrDeXdurCqoMw5RhmfCYzHih9VkxSDE/G2HGF8vm2kIbVvc6nAMcJo58eaPoRGC3hGY2WqpNdVkj0JyyVNMINnjHHl1SFJOMwzuEYbf+cfZwLvGLQxAS/AyOrfsKj0wTGq6luusdUCP6EG3OOMCSk2msA51njZO8FYxkx0Ca7RVWOEiTXgx3RdKumESHGUN2mSSf5HBjry4+PrRJJkPeNqZH1xkulj95jqH7JsxIVzjOGe4GRTMIBpusYYLyW1VSMVuCYan4fpJnBPrE5Ib2M1iFOwQBOqJzD1lOEZodeh/p+laViBEfbp3I/2g1OxIUyo5jwTjKv5xuoRnnHVd8EYfR7tC7gy2lDsGW/4uTC5ZgTKTHGNN7zPTzIGaSsINwkrOsJmJCk+2FQDYpPxWltjZeeXmGPBOcG4gOrHNdHwj7RWvnNyxb+7JhvahSbM2BRDQnJT8QLQ74lV/8JMpATXlAoL2nH6p0WnB/fWgNBkOOuaYki49SsW3I2VA3xTDW/BLOxyaA/P5PA0IgmzsCFNqdrK1FVxdWxRlrOx6nWsJ0GYXPlVFtx9eJuqHoA5mIFpVeCZnpjQgq21yZDyZg5C20SD3t1U9bdAM1YKS4+OQTwXZhr+8tHE7r3fUeKDlorb3NMqD9J2He90rOgY5aNwqSM/77U3xn6345leeRc3o/KvjqbyahbUNXAz9U3CvZUCtBhAaMYMzKwET5KEeXjbzkx9Jw3BNVM/G+YY6A9zbtjDc/fMiqeYSNrx52kF2d5ZFRfoW4DxyinJ+ah83z3VkH53L8fMMqO3ueI8LDAAP6cS3PfJ25FSIjeb9mnhxZoV+1uDsUB9Jab5j+BcbHHMXmAe/S4/3Taj+zOmRHA361+gsntilrsCpPl4Ae7TH/qkxZjD1LoH2mnhadG3wqIq8M7FhLtB0odFleCaXar6lfl4kCt/rv5icAEWlNmDpVgZc/VduotSxZWlmkzXXP2lwPwb6UeSv78ChHnYMJtLu/9da9f95b+GxXoQFurB84AevGkgrMA74AH9HJZE0qDK98wv/1BahBcR7QgLK8A9rzzoml32WybS4xDm6/vD8sqoMikJS+V9eu8wla7Bs7C8GVZVAPdgOXjTyMASPXALy/7WtkjX+c2aZIF6D8MyLCTZWlgOsBpb3IP6T80Zilug/65nQZnHj2WILFeI8BDGLSx7N/J//ZKGZ1HJbFiDRpaUpZ380jIILC/HY0nqO0Af1um5JaV/DK7EgqItAW35lpXB9XmaqM819QS4B7X/6Vlcyvsf6khfjcEVGLe49Ip7UXnqefIsqdByy0uuwNoy4JaX9giDq7HSVpR+5FqW+jc6r7YUZfHLdadD+UM7QJ+i9S7T3c9EegzcQ2V22FgeVR4lYQ1ehOUl70mrswuYWupwrtA0CKtLONiIRleWpJ3iWqy4lSXX+BWaLi0LulfoJkkb8S5CO15mT1pfCuIa3ZqrS4qSfv+SLGjA9a7UnpTWxa8PflUJBNaXCr7VpXtpEyJT7xq8K/PLfGu1R2EnFmwDJrBWlzYGN5WAb4PuumNdsYEllzLcKzW/59dp34IdeEdtpG2qOoAtJQDbsJLW6q741une49Zq3/Ku0R73rtW9i+fv47kET2O3ukZ3HJKsINQf5VtfIgnr1csSSUwHYDvlQbuCHtiYma7Du0Hzb/5N2pekLWh4J1bcRq1MfkPXKaA+bNeBd512DEumy+BXaaoCm4vt3HrNq+ImzRvcBs0F73rNRW699u/8Bs2bwc3aN/C41LdeG7ZvJhE86wrvlnZoecqrWhniUS7b+uKjzFR6gPP/L0tbC77JbSneGtyufYffXMzBfrwo+3QgPaoFbrMG+C1JEmVhJ17ILRqna0NhwhdVnya4zcXN9EeQPtruq5b3JAitOjwW9bxXA4E2U/t2FIvBHZj4tuKUCHvwImwruuTenP8TZu4zgXtD7h3Co8WX6CPh3Fb1vCZL/3YsV6sG3FsKUvpecZch7cvJF3YX/g0OYAZ2FIFvZ2qkf6MW9xTx/l2Fc9o25vX464MQPI8UfRXTvEj5VstXsoS9WOFPaiCwu8iL5Vjm2Zb+SUBC+HYUNMGhIhBoC/bu1CnsKQR4XN4CHvTtKdgDrUVf+2uav8rO7ckr53cV7vC3Fkn05Xe1fKgS8xbYVwT8roKPhd35f0Eb5/mdBQulxwt/ITxWLP/d5meO9m19Kv2t+e/AE5jh1oJuMXAQL8ZTyGcLaSv7O9Khgv14HOtpLdLS//VhWrmwMfozyzSroXhA8vvzRgQOFOwXWvMvw/NFEDyEF1klrXj0H8A8PFcE3N78m3+7kXAw73bxiXwxQFviD6aXgccL8IIo+AzyeeQLWEHE5/D30ywOSfJqdpIl2cYLeP7aloJsVrybG8Kh3P3wAmb+ybxbj0/kgR+P8FIBiM/kXuIOZXV5pexTB32CQHgm7304ggV5NvfW4TO5ID6PlX4iH/inc3dxrXkpvwz8zEGV73+uz3twLBf8z/e5ZQjHKb85/8OKcWtCrvwjOX+DU1iYl7BgKTEHgsewIk4xnuwDgaNqcuknvIKt/6WcP8HxjC+yotya8B3L3gRnsFDHcxJSRMLpjn97CZzKbuOPZna6mbiPZGp8R7InwcnsRf7j2VuE49kOeBVl0XYsBk+gXfqnmIh04lHOw+t9QDzSJyn/nJsawtHeXw2cyQrAuWyA15BnFaSw81jYN7MheCbrsHgicxGcvy1t/av/lezJ9D0UeLXj2yiJGDiJ+Xk7B4QTmaqfhr0lIZ3Jyfef7fUN36kvm68ez8iCdzO+jF0SMfVv9HcBvtO9JkpvZgFcyALptSwQTyPPhDP4Ksb/MQv8Z3p12anrc8QB9eHC2d4jpAu9n4Q3MgH+ghfjPB4vZIJ4rvffvcd7dcuNMXlkZPwffilgYfSb2IQAAAAASUVORK5CYII=;" vertex="1" parent="1">
          <mxGeometry x="410" y="455.5" width="29" height="29" as="geometry" />
        </mxCell>
        <mxCell id="JmjW4H4n3zkzEFeAkcXk-28" value="" style="shape=image;verticalLabelPosition=bottom;labelBackgroundColor=default;verticalAlign=top;aspect=fixed;imageAspect=0;image=data:image/png,iVBORw0KGgoAAAANSUhEUgAAAFYAAABVCAYAAAGkxSPPAAAAAXNSR0IArs4c6QAAAARnQU1BAACxjwv8YQUAAAAJcEhZcwAAFxEAABcRAcom8z8AABLaSURBVGhD5VsLbBzHeaZbO/AjzzYPt26jPCRL3Nm9E83YcNzWhJE4cS2K3N3bI/VqhCBp0CQtUCBxGwOJJad5FIWBpE7TOmkruw0SoG7j2LD7jGP5ATttItupoyKOLZnivY9vipRJiRKv/zf372lvb/Zxd0uJdj7gw93OzP/P7OzMP/+8elQo22J7ydn4Fn5Uo2TrNdD7v5ox5HMT3Mi5bGoVzxOUyA0DZSJAFViytJtmsqlGeGFY+249ggNeHk23ZOnGgU0Px0dSEYkz+h78Wd65tfVFGI3E3oelHekWunEtieWDD8o4VaAbVrH1fRx0FlOOPobIZc6+6BNuQTnTK/C5+VGNMmfpJ0efhRtxiqrv5M40Za/dWrTEvS0CZUs87waW7N7rOVjibDgLtAR40BLXEuCBN65kiYcbARzfgllueWVTu6ZJOuxzs+zZ7PixCQhv+jglWzykEghT0oh0P/fsiPE/HBUOajz3ePshiuL+B6cco0bf6A5OHo4xc8t7vcIuUSrET3MtFi3tQX+awzdrl0slfvhLBK7s2lojjRfQtzvKychA6NMHB3ou9KcF0W45WR0qpSBHB0IlQxnX5aqm9tuqBJSZtHdhUMmBuW2brmiJJIXH3S/N8koUbfFBvDqMGJVyqUkPmj3QFEjMDYuPyIgYKJj6iF+eo8gEZYxcYGQE/HJFk0vrIke2wp8IXKRRQEVV2uJg/5tZXStylrjam/jkjtaBYGH07HiEFjW+zXgTR7UHEjZdRWVL38bB3QMW3SUHdYYTvjr0vjq4TEaek0ZjcSQ94xUGyWOYozZZ8IeD045RZlE1Fmg4VwkiLrdd24j/FZ+3AZ4MGt0R4U+McPcXwBcvDBmb/enAM2SgOFkdRUv/F1VCxKFuZSLCLDsm3nHEy4IpPi4TAqoEIOLmPR5OwRZ34rc4qL1dlR5vUk9oarepEtCY9JRM4EHZSr2V//aQR6eQoTq3jGt7Xg54FZYNBPkL31DJndnd1+zMecmygaA3OaCSkw6rKgJk2UAElRRsUYoRFb808p5geSUwKsuR2RIv+3W0KC3fmLqM5WIBH88rL1/fbycnqaScPhb83qHsXXlL3OMNBOeobfqdJhXdqvKSuvHvy9z8ETTAfVVGRICcj//1yjUaP0CW5khzpLiLo0JBLeCwT+4BjqpjOtv6KpiE+Mcp0HU2m9KSvWVVzfAnpAb+3xzVBCrhSW+6iaiPe5pMmFfgcFZ7LUdJlIb093jja3uCZ0pNKA5e+WbvK+I/vBnv14b1Gtu74WIWaQ+kbJurDE1thZ45KnmUTTFIDvK/TlIPwsdDp3Hfwku8JeLRpSs29QnyL1jF2uHEjq3OSapaVYFcov3POcZ91HD+SRXvJXr4KrWLuZ3paziL7gAvSzXWBrEyZLwfclR7z6rig4iXRIM+4hm0YuOlIeN69FWVYpeoGW8fh/licQnv0sVs1iiRtfqc+xzGZXI7j27X38ZqwnFmV59SiZ+u20POxC3Si7H041KBB3CpFkbTJ/Efay9+4x5E6CMrekoqUaGW1V5zwuc9hlOMsygZMX216IiP8mMDBUt8qWymBvkRz7NqXWq6E9QWwA6pBFR8eTTdNM2jsK/w3yYUhnr7+G8DNL/5Z9ScX2cQF0dTp1m0DndqHYfSqzD1ARYNRSWg7QU5dUEkF3RMChZNY7idNy3EmDxHIcjpCyKmCpPO5s00wWvvLenFznlhJS0a9JURIaReStOJ1JWcb0eAmVPpDiVWHoKGSZdkkv6T8+hZ2ZW+gXr041MZ40Wsy3JwW6jt6YNT8TOaCN9QMo1+DsY66TFV/i7JbXq0h6YxQ1Ftlgr4Y9a5JqAOtKjK12WjzQJRtQvCGSkO9l8qBRJCbniz4V8pUJGaXpFFMApt+VXv8BhEtFfv7KBbYs6jysdLDAyrzrWXcFHrGN9lvAmFUQm4jDtxiAv/BMNP7xqCEishXhYVtkhD6yPJMbitBi65+EHOSWMdPIj4hEez2ttZJBbKmdY1Sz8xQlKH+yyLxEfVFvfNKKZ6LuFVHc2+6w2cPBTjNMEK08UuaeveTycg2/h/QW1ajoKWftDvC5BJ3EJN57mgzou517xjPMHJ1wa1vQMX09zrTpg8adIUBfES8egsmCCSF3Ubqzl/WNmZaizRulymMI4+v5jPGvvdmg2qXYQhDkvC1PvP0PRmP4uvPZadrRp5TCtoa/6CuURHCWsWkJ2wjcI8DUSsNllUs9prZxxjUTreigK4xGhT3pO6LM6sQy5wWOJ5ziIZkOJ9UTNdcNpJ1WaH029cdX7jkjAT5SeaSDkjGvO0joEpdCWjzsRPd8Spfaz/IpJTpgki2j697OMy004wlzWqUSbJy7wlvs2iPdRkXmyOFyfIDq82h7VywtGVS4ChmB8xJmIUdNm7DkDG/14Wp6aTyrhfBAsh5e2pd8adPZPc06wmGlSAx+PUaNHUPzOZ0e92C0zj+b+xCona7vpiyYyTmsFzmAXxEnmTb/KXUkkYcpa2uxqzjZYtsZ8a6QU4K4E2Nzm0+XWsRiJn6s+idiuW+GM8x3GyXaKDko8dPs9bjbl0JGmJL0Emb4rH8KlnfA5NyRS98Alg9uSzLe5X6gkg5mpSkQo0z3oibofCthSLYR8ijRVAfmxCbW9/IxxmTbXvEEYq09dY/CymnE1XtLN85F2DyjnaxrylNWbAXqzs3tq09ENe2zMqfUHEUH2ov+ciFq+Daud7qsQq1juU+HMWJYc6LXI0EPBjE0jv3/NficNZ7TXtrPcir0JGfJrF63B7bhxi2f2pa30TuAAUTfFX/LeBvK21HGIII9ZrWZRqxrnynapt5yDOZ+umKA4Kpva3/LcBbLeq9AYRJo9F5XzrMVWiIFInPMiiHSNqb8JLaXct7XNSMGw26ycmiTNtThJVQAdV6Q8i7HjbgijshN27SQp2gXYL21hmJQ9emUBFFLZib3qXFOwC7Ra2sdihigwjDbPfkoJdoJ02C8LeSkFVZBjJdDUOt3WCiqXfqNIbxliFlQOApU/DkGPNAM9o7Llt6SukcAdYGEk1jqdhcU7uL1Ae5RAHqlHYMH8AQ7BMRKjSsIr9hwnH+BnGeA5uC+T8fJn0Himb+j8sjaRv4OCesZu1y1Wb/C4bhQ1z3fAi1Yz4L5lwDUGuZEmVv0uq9bo1wPldVQKXTSPIGuAFZ+tboryxxkmGoiUeViVwidr1NoekEccvaawqVszePVG+AQo8kdH/QwokCOq0x8L6DDhFbTm//cqUFMASeNwdP/8ye7eMKijY8lWpZsuqhF5CsSrDbhhVWMRT2R7iYtaRc9JXRC1MYNTh5IkhaqVnMaivUEebUgm49E5lkkLUVIrK9H1O2gzUbpjwuS4sDmPjDAQnbQV59v8Y1I4wzDbvtHTPsH0wcrg/zMUKxoxjTKiEVcToh6EwDpE2Tu9HmolMzAsPh/r7LzrlO9oWRBaJjThHrdo6KA0cGvy1S6OG4YZDHBM4goempNIFoqCw95y8PRwa7L8UwkGfDuGVjHiMk0eC/OC8Sg8IXcdHEujAU45edVcKVZzKGI9y0kBMZoKXUFHbZOMjdcQGORK3YBasKjQKMeWkaotO61UCMuofWsROjU8GxAojOl7J7P1dTp4sqLBfhL0NqmnEealKgyXVExQ3aXtOwq8lyrb4E2SMThbWaVxivRVbpjTZnKDZwodYzblHYVjbitskRUt7qaWglngccd3M2dYFagMDFy7v1LfkLN2iF/sBteH6yGbrx3ELQ+Wl+Yl1YfIfXoIc+duPlGzxQMXU34vbHZzNqxs5U7tmJiMP5j1btfXTqBAcVZBbDiEz8E4IfXA50Idxj4+8h3ma6T+4srvvfeOmeDcX6ZWJwrC4jpy/b85ljUUYsKgd3zCiZRZt8RR9lO+2uyPhJ7Zj6gsPYpZGgFtLdu8GLvL6RXVEpMngPrlIFYEKUA1Z7RBe+YSjP/kcX9MjGzjTzu51FFE+VDTyoRHunnVVyUeGDYNGsu/gglmc03ZxiGEcI13RFJ/nbHpwJIBaWTXJivUTxwjITi9Q77rj0PvjnaZKHMe2i9+adowp/03IJAjbSzbyUf+JlJKp/wGcvqCegHDYVrRAGswiTwqEEau7k47+w44vtbaLQkZcRxnOwp/vpqujAoIcTLapjVMLXpBH/ZBqbxJlOb2rr1Y2jc/PjV71bu7eLenaIXRifKDB76nnaTLGRUgWGIymndQ07o51U6Egr/59kfgVVJK/AsIqFpu+BVP/id/swAPIDWnyCF7eFMewV+uN74aygmmqTXn+cHyo79dlQZIADj+gBagy7YSyMi1xO3TnnGsvoYqdckd7uEozjn6KfNOWKy8uqDxXz4+k864M1jYqtjjA0djPuxELfd22WD8xDaPKXarYuslZdYaS3beBFP6EXkKZUafkim0cRaTWSfZal4fwsGVAaZarN2uXc7QSBcv4BAYytFwyDxUcIeMo8pm3DJD9Pxm2fNYNMRGvWPrdYwMdXIMsDPe+jwamuW78TxXxsmSzTlZsbRdnJVGw9G8v0AeETcPBKw4OBM43USu9d2XPVWiZt96bzf4yR0ngZtpcNrUatv3XDaWpscRRMpG/yVlGgwQ/hRdMuiuB9Rv04n7OqoHy6OZ3UGFXaVZ2eGw4/UYODgWZiztqe99DrT+1g4Ma2NfT80tki/fVMOVVlCMJonfRBGilmOn9Hc42GOQkX1+fmaiVdUNsqpCfOJZXHKigicVm2MXxOIVkkAm5iz7+jw4ODFzIQS04wqf22zn30w5h5wuWdmJ274bgxpAz9QFy9BfiLFe1S6nTEqfIL1Qe/Kj19FzAf2NjJtv/hlKMM5UT9F7zI8Zs0mbNJQZ2quDDGJM4y7PA9QfqWs8k6aa4rPuY5Ht2eL0tCGQC3lo0ta/zYyhgh5PwbYOIswLUg5rOA0qUbe3riFyLjGFaaDD5AWeVGKRP6163iwBmUOQuPRbnZH0nxKBM3sJi3ha/x1nyFo+tPxP3WHM7xIfChWOsjHN25w00aB4I2ipIgmhA1OvvblyVxKo5ZjuqxN0SX5JMwWoSJwC7xVpXbMu7liz9O2u1avSLVLGydzpka4e5d6oSJUVULP2ulq0tuszsPGKtKxaU26O4wF7PUJ0oKcLMeC/Cnw9UMnoKt63WwpX0MtGKhX8IRzlo7wrullxHtfS/6MRfTQLkxD8yH+FKotLxHlhsQZlVaaKYWMVCUcEWo7ghU7S0P6Ip3gF0OSpYCd0OviO8DbB+FFLcKTM9Rxjbu+FietHvI2/46CgHyoRlRir/Mvme36KGcYBG828UrS1XTe3e+Hpc+VCt+cZhU8WS8mpFkSgO8XWpsCslS7tJKgvBwYENF5cz4naS+xQHrTnIf/44uXq3lG9MXcZBochb4vZuPCTsfpRs7T6pDKfYuzHqWEHCeZdx0iMVvgJR24dFG+02HB1UvWMcYqDGJY/y8OZ3SKXY85/i9VCVQBxikYNmNadzprhFKn0FAbcTqef9XbdTXhz6L1jiWG7bprMnaagrP9ntqhYMPmzMpKP/FLfCWfW6xpitb6FG9cJMl94C3v3Mrr5a3tK+wKrrwK3KqhzZk3FHcOGWbPe/k5v14fVKKt+YnIYqyt8u0drztvg5V2czqBl/utPR8BeZMB9yAd8SV3NVtoK+3q24HdrtV8QXpKnyI6WMtnfd0hIF3AxTlT8uJ2jgnsroZ0qOPsBVGAy4HNRFVrsx5PAyqKvdxSrXJch3PSwbgKL8cQizuTiSWsKuMKuMBnw/nNTrtOW+2iu2bMuz3biofh2ri49jw9qfypmEQnEU5X0DS3yNVa1LUMU+10nFYhNxYSS9iK0sVtU+CkO9fbOOMYmV93ZaL9Ji3o0Ps16JtY123wkTiKqt/6jgO1fWMfKmvqdemO7dMXevn2zTX1Or2U+/X0iaJVN8lvJ4MKk9PDj/1FCW89s2pblKkgO2HKazqfujbv9EEYMid8FvsurEgbUBch9/3G3FYja6RF7SuKX9GateO2ATj77e91DBQUuFUYTc0mjqRH6N7sxQpX55cTR1plPPBkuIOLxXsY36xeNzjAsmM8YnpzNGWR4UVhQwjEiPQY4+0sGco/0K6+wKeSxoO0YBx5XaLQ+4RDPGyYz+9IQtRlnl+UUh09s3P2L8DdY72x3oQExKyFl/ojzc/gvhImvZ1P6Qum2h3Q+MFo28aTKzULZ69x/+QDIfeE2AEXNhR/qTVNgyBjzYuTgvizRYesPHkWdoyc+kgeieQNqiirVT6G/HJKHyj2Mgto1DNBjv5GK/8vCS3bvh+IjxCWqRL6LCMHlABXZqn+MS+mErcWesflBZPD0/mhp84aaNr+eivfqAC24FUwxOO6mHsZVBrXsJx5DQAkHeNm+pLC8RD1/ZlUEFUuXlJxz9YYp/YDGb3jrdzjHLRNHT8/8Sj06H3wTnrQAAAABJRU5ErkJggg==;" vertex="1" parent="1">
          <mxGeometry x="450" y="455" width="30" height="29.65" as="geometry" />
        </mxCell>
        <mxCell id="JmjW4H4n3zkzEFeAkcXk-31" value="" style="group" vertex="1" connectable="0" parent="1">
          <mxGeometry x="-20" y="450" width="38.670000000000016" height="30" as="geometry" />
        </mxCell>
        <mxCell id="JmjW4H4n3zkzEFeAkcXk-29" value="" style="shape=image;verticalLabelPosition=bottom;labelBackgroundColor=default;verticalAlign=top;aspect=fixed;imageAspect=0;image=data:image/png,iVBORw0KGgoAAAANSUhEUgAAAFoAAABbCAMAAAGzLVIDAAAAAXNSR0IArs4c6QAAAARnQU1BAACxjwv8YQUAAAKRUExURQAAAAAAAAAAAAAAAAAAAAAAAAAAAAAAAAAAAAAAAAAAAAAAAAAAAAAAAAAAAAAAAAAAAAAAAAAAAAAAAAAAAAAAAAAAAAAAAAAAAAAAAAAAAAAAAAAAAAAAAAAAAAAAAAAAAAAAAAAAAAAAAAAAAAAAAAAAAAAAAAAAAAAAAAAAAAAAAAAAAAAAAAAAAAAAAAAAAAAAAAAAAAAAAAAAAAAAAAAAAAAAAAAAAAAAAAAAAAAAAAAAAAAAAAAAAAAAAAAAAAAAAAAAAAAAAAAAAAAAAAAAAAAAAAAAAAAAAAAAAAAAAAAAAAAAAAAAAAAAAAAAAAAAAAAAAAAAAAAAAAAAAAAAAAAAAAAAAAAAAAAAAAAAAAAAAAAAAAAAAAAAAAAAAAAAAAAAAAAAAAAAAAAAAAAAAAAAAAAAAAAAAAAAAAAAAAAAAAAAAAAAAAAAAAAAAAAAAAAAAAAAAAAAAAAAAAAAAAAAAAAAAAAAAAAAAAAAAAAAAAAAAAAAAAAAAAAAAAAAAAAAAAAAAAAAAAAAAAAAAAAAAAAAAAAAAAAAAAAAAAAAAAAAAAAAAAAAAAAAAAAAAAAAAAAAAAAAAAAAAAAAAAAAAAAAAAAAAAAAAAAAAAAAAAAAAAAAAAAAAAAAAAAAAAAAAAAAAAAAAAAAAAAAAAAAAAAAAAAAAAAAAAAAAAAAAAAAAAAAAAAAAAAAAAAAAAAAAAAAAAAAAAAAAAAAAAAAAAAAAAAAAAAAAAAAAAAAAAAAAAAAAAAAAAAAAAAAAAAAAAAAAAAAAAAAAAAAAAAAAAAAAAAAAAAAAAAAAAAAAAAAAAAAAAAAAAAAAAAAAAAAAAAAAAAAAAAAAAAAAAAAAAAAAAAAAAAAAGQb3L8AAADbdFJOUwDWQYLDLm+w8VydCN5Jist3uCP5ZKUQ5lHTPn/AK2ytGO6aBdtGhzN0IPZhog2P0Dt8vSj+aaoV61aXAthDhMVxsh3zXp8K4EuMzTh5uiX7pxLolNVAgS1uGvCcB91Iico1diL4Yw/lUJHSPX6/KmusF+2ZBNpFhscyc7Qf9WChDOJNz3u8J/1oFOpVlgHXQoMvcBzyXZ4J30qLzHi5+qYR51KT1MEsba4Z71rcR4h1IWKjDuRPkNE8vin/aqsW7FeYA9lEhcYxcrMe9F+gC+FMjc45ersm/KgT6bDw2b4AAAAJcEhZcwAAFxEAABcRAcom8z8AAAdASURBVFhHtZiLf41lHMAfXYmhTWjd2FmpSYS0cknmUrosoRKFsEJHaMwlZYaRKOZSU4ty21oNG1m/ZjaSWytWE39Nv9s553nf855z3mPt+/mc9/nd3ud9z/s+z+/5Pa8hgI8C2JpDQXnz9LdVvgJfZGwYo4odNrbBPgcYVdCRb8xwldEc9jius9SSTfrrKhhzylxSCTmKQVUqI+EOqFeV8QhmI4sih6CYAksNueh2VOwsjRC+TYH+UY7KFp0pyhkpZGL8cjltr5oUis7n035knaE44hb8XVQb0gR5eNwSfQGAMYFcgBl0opqUaqgO9f+XWIRcqMUjwDrHCZdRORndPQYObnb3LMA8FWzuo3tX2YJskKtKBPhMXC7QtBE6oTDSeseI9h11CXiDDnQJhx1epEOlMZNss5ztjiZrCDUhADhiM6CDMXn0+ENIiP16GDW/y0qErwACg6jbIucIqKBrbTsNcPo8ZKqNgbN0wM6crxv20wFNPWzzDoBdxpyjvu5XE3I76djOAXhcLAyMlx5cwFxvM5w5C3NUscCu26kYzVK6crwAGwwcfKb5LDYel3HTGeg+EQznNi6Xgf4sjWk/0eYQhgmi/8vyElE8GD0b3fvHsnwcxe217fBYxLoXwIMRyccwFjoBrGEhiuohAPNuYzEc/SnAgyy4QL+y02wX4RU6lKrfBh8JwB5jGv8gAT6koU1MVL+D1eh4WkS6iei566AJQ5pVxnHtnhluMGHRqEVw+EM3EvLm1t1hzzGbKxjkxSr1u2kQd1kLyjg/YAe2Ldiy0wt8lSLgX32LhUlgJ2UnmDrDEkzH5oGYfVPyJ3ABQOS5g3O2R0DPUYOZDzj3MfO1jQZnAyZPBMO5jcspjbqU8E0yCzCc8VjoPEnHERtZqhOwHte2dJUTsltu5HNV45MjwQAH1BCPYxjXv3lAGTab1RSHLACekhj9HRviglHcduVXmohQ9D0Aj7IQF4z+iNr9AHexIS6Uli5IftN/2a+qapBIHmCYcJ7VrTRTARawEk0qewFqWButGvRhNZqOQXQWH2R52lWUa2spnHUvvg37jmjYqwAZbPAAZ6FKX+otjIrTeSQaEzE/z/BriGZbDcAQrKYQjOYimFd0L/5GBzEM5RZMybOHooC6rF0ucBaHMNOlze5BR/U7eJ/9Eb7XVm7IDTkOYflyjUNyNppyWR/6qd/BTeg4JCLFsJDX3VH0WNA0axRxBIrlIsZibyThlWB0L5VjgNH1Kk5OHD0udLOyCp9UOQbzMQTLQaQRJfkL5XV1sZIFZQZYHgjIKglbzWER3lO/Eyo0bO7U1vvtSMXGVPBYQgoK6Kh+F+XtOQQaSMEXWUYtLlKse1C9Eqj8J3DEvkBtx5idu2bDIyz4ii4E4F3Zy3GiI7P4B7zvUTiwMLhATS52UUIo00IWRaispKPobpzZh6oUJpXVKNQbymwBSoyQNoWVKLagz5k1zeoYoQhGJZGRMZpb39me23d8rSTJrVLJrYDJra7GdJFgfyt3klWBg0VT35RLYbLdGePt3xBrtdcwa9XRWq7hSHEzvkSdreNn6a2bvNCeOCCQGlwHWs1c7qq2o6pmj7xgHyM+IbIMSj3L4NxAfEyPhJRyT5dVQx5mg4+5lJApWGcgC3XuBCTjV8QurpJgE5VHSGbwgyPBfSKndbBmaWOfgUVsLQxu0K9cfjl8N59o8adVu/fl+iNM4WS1+yT1Gz2RGWinCk7lDjL9ZRKLFB7fK4+pKhyQKhUa6F4XrZBskLVJnP6hbVxom67k4wKHPKZqaDjtTjbLeHWNKy3WZVatLK8l5rYzBrzd36aKIF1fjerauxLxZNGc63wKk31QCmRCdrT9VTOBOtaXJai8IvBHCCdTqRCbGR4dg4uG/2JaTkwVbdV6OS8hv0m8m+cnqhBF1iw9MwFPhp9EzaSU9PTJXXAzYHFvuum+TGWhsKeemYjlMroA6sJJdaj+bayCQ997Zt5cX1+/GH+vPaeWxEzjAQew3fH0StLEWtekhhuhCSt04mvVlZFiXZWgYI+Ldh31XZk+EAJcbFXX2dwHf66xWCHWtARbmPgclE5yj6jOdNAE/rHqN0bgvPQCK8Nl1ImFxWrLeVYSf6++13uLoX5EMgl1HZ9EVIxD9AmF6D1i10NWDkDS/I5rhD44ebDhuHN1iZAV42OoFwdkQFi0u5XsF0pDj6b4CazezbSUJayVnSOvX/qUZmfzRCnLzs4YoEZEMl9k2HflNzxOPu35hxNmUBVB8vViaxGWFT/ZpYAnvX7JVKTr4t9VRWQpSFHNLx5dD5VSM/yt8uQM1msnqO6TNdxNpTO3lfTnvqCm6rCZNfIZUdons+qmviQnCf9Y8yKwU40RKnFX6pf41ZP5RI3CvmTm41M6ejODv3rXfGbCx8FgUcWwYPAnGt7+mcKjAOraoFJtw/q6DXcFUXsZ+cz8f+xl2nAH1pb7xjbc7RKt3KMb8x9G1uHwPmUtAAAAAABJRU5ErkJggg==;" vertex="1" parent="JmjW4H4n3zkzEFeAkcXk-31">
          <mxGeometry x="9" width="29.67" height="30" as="geometry" />
        </mxCell>
        <mxCell id="JmjW4H4n3zkzEFeAkcXk-30" value="" style="shape=image;verticalLabelPosition=bottom;labelBackgroundColor=default;verticalAlign=top;aspect=fixed;imageAspect=0;image=data:image/png,iVBORw0KGgoAAAANSUhEUgAAAFoAAABbCAMAAAGzLVIDAAAAAXNSR0IArs4c6QAAAARnQU1BAACxjwv8YQUAAAKRUExURQAAAAAAAAAAAAAAAAAAAAAAAAAAAAAAAAAAAAAAAAAAAAAAAAAAAAAAAAAAAAAAAAAAAAAAAAAAAAAAAAAAAAAAAAAAAAAAAAAAAAAAAAAAAAAAAAAAAAAAAAAAAAAAAAAAAAAAAAAAAAAAAAAAAAAAAAAAAAAAAAAAAAAAAAAAAAAAAAAAAAAAAAAAAAAAAAAAAAAAAAAAAAAAAAAAAAAAAAAAAAAAAAAAAAAAAAAAAAAAAAAAAAAAAAAAAAAAAAAAAAAAAAAAAAAAAAAAAAAAAAAAAAAAAAAAAAAAAAAAAAAAAAAAAAAAAAAAAAAAAAAAAAAAAAAAAAAAAAAAAAAAAAAAAAAAAAAAAAAAAAAAAAAAAAAAAAAAAAAAAAAAAAAAAAAAAAAAAAAAAAAAAAAAAAAAAAAAAAAAAAAAAAAAAAAAAAAAAAAAAAAAAAAAAAAAAAAAAAAAAAAAAAAAAAAAAAAAAAAAAAAAAAAAAAAAAAAAAAAAAAAAAAAAAAAAAAAAAAAAAAAAAAAAAAAAAAAAAAAAAAAAAAAAAAAAAAAAAAAAAAAAAAAAAAAAAAAAAAAAAAAAAAAAAAAAAAAAAAAAAAAAAAAAAAAAAAAAAAAAAAAAAAAAAAAAAAAAAAAAAAAAAAAAAAAAAAAAAAAAAAAAAAAAAAAAAAAAAAAAAAAAAAAAAAAAAAAAAAAAAAAAAAAAAAAAAAAAAAAAAAAAAAAAAAAAAAAAAAAAAAAAAAAAAAAAAAAAAAAAAAAAAAAAAAAAAAAAAAAAAAAAAAAAAAAAAAAAAAAAAAAAAAAAAAAAAAAAAAAAAAAAAAAAAAAAAAAAAAAAAAAAAAAAAAAAAAAAAAAAAAAAAAAAAAAAAAAAAGQb3L8AAADbdFJOUwDWQYLDLm+w8VydCN5Jist3uCP5ZKUQ5lHTPn/AK2ytGO6aBdtGhzN0IPZhog2P0Dt8vSj+aaoV61aXAthDhMVxsh3zXp8K4EuMzTh5uiX7pxLolNVAgS1uGvCcB91Iico1diL4Yw/lUJHSPX6/KmusF+2ZBNpFhscyc7Qf9WChDOJNz3u8J/1oFOpVlgHXQoMvcBzyXZ4J30qLzHi5+qYR51KT1MEsba4Z71rcR4h1IWKjDuRPkNE8vin/aqsW7FeYA9lEhcYxcrMe9F+gC+FMjc45ersm/KgT6bDw2b4AAAAJcEhZcwAAFxEAABcRAcom8z8AAAdASURBVFhHtZiLf41lHMAfXYmhTWjd2FmpSYS0cknmUrosoRKFsEJHaMwlZYaRKOZSU4ty21oNG1m/ZjaSWytWE39Nv9s553nf855z3mPt+/mc9/nd3ud9z/s+z+/5Pa8hgI8C2JpDQXnz9LdVvgJfZGwYo4odNrbBPgcYVdCRb8xwldEc9jius9SSTfrrKhhzylxSCTmKQVUqI+EOqFeV8QhmI4sih6CYAksNueh2VOwsjRC+TYH+UY7KFp0pyhkpZGL8cjltr5oUis7n035knaE44hb8XVQb0gR5eNwSfQGAMYFcgBl0opqUaqgO9f+XWIRcqMUjwDrHCZdRORndPQYObnb3LMA8FWzuo3tX2YJskKtKBPhMXC7QtBE6oTDSeseI9h11CXiDDnQJhx1epEOlMZNss5ztjiZrCDUhADhiM6CDMXn0+ENIiP16GDW/y0qErwACg6jbIucIqKBrbTsNcPo8ZKqNgbN0wM6crxv20wFNPWzzDoBdxpyjvu5XE3I76djOAXhcLAyMlx5cwFxvM5w5C3NUscCu26kYzVK6crwAGwwcfKb5LDYel3HTGeg+EQznNi6Xgf4sjWk/0eYQhgmi/8vyElE8GD0b3fvHsnwcxe217fBYxLoXwIMRyccwFjoBrGEhiuohAPNuYzEc/SnAgyy4QL+y02wX4RU6lKrfBh8JwB5jGv8gAT6koU1MVL+D1eh4WkS6iei566AJQ5pVxnHtnhluMGHRqEVw+EM3EvLm1t1hzzGbKxjkxSr1u2kQd1kLyjg/YAe2Ldiy0wt8lSLgX32LhUlgJ2UnmDrDEkzH5oGYfVPyJ3ABQOS5g3O2R0DPUYOZDzj3MfO1jQZnAyZPBMO5jcspjbqU8E0yCzCc8VjoPEnHERtZqhOwHte2dJUTsltu5HNV45MjwQAH1BCPYxjXv3lAGTab1RSHLACekhj9HRviglHcduVXmohQ9D0Aj7IQF4z+iNr9AHexIS6Uli5IftN/2a+qapBIHmCYcJ7VrTRTARawEk0qewFqWButGvRhNZqOQXQWH2R52lWUa2spnHUvvg37jmjYqwAZbPAAZ6FKX+otjIrTeSQaEzE/z/BriGZbDcAQrKYQjOYimFd0L/5GBzEM5RZMybOHooC6rF0ucBaHMNOlze5BR/U7eJ/9Eb7XVm7IDTkOYflyjUNyNppyWR/6qd/BTeg4JCLFsJDX3VH0WNA0axRxBIrlIsZibyThlWB0L5VjgNH1Kk5OHD0udLOyCp9UOQbzMQTLQaQRJfkL5XV1sZIFZQZYHgjIKglbzWER3lO/Eyo0bO7U1vvtSMXGVPBYQgoK6Kh+F+XtOQQaSMEXWUYtLlKse1C9Eqj8J3DEvkBtx5idu2bDIyz4ii4E4F3Zy3GiI7P4B7zvUTiwMLhATS52UUIo00IWRaispKPobpzZh6oUJpXVKNQbymwBSoyQNoWVKLagz5k1zeoYoQhGJZGRMZpb39me23d8rSTJrVLJrYDJra7GdJFgfyt3klWBg0VT35RLYbLdGePt3xBrtdcwa9XRWq7hSHEzvkSdreNn6a2bvNCeOCCQGlwHWs1c7qq2o6pmj7xgHyM+IbIMSj3L4NxAfEyPhJRyT5dVQx5mg4+5lJApWGcgC3XuBCTjV8QurpJgE5VHSGbwgyPBfSKndbBmaWOfgUVsLQxu0K9cfjl8N59o8adVu/fl+iNM4WS1+yT1Gz2RGWinCk7lDjL9ZRKLFB7fK4+pKhyQKhUa6F4XrZBskLVJnP6hbVxom67k4wKHPKZqaDjtTjbLeHWNKy3WZVatLK8l5rYzBrzd36aKIF1fjerauxLxZNGc63wKk31QCmRCdrT9VTOBOtaXJai8IvBHCCdTqRCbGR4dg4uG/2JaTkwVbdV6OS8hv0m8m+cnqhBF1iw9MwFPhp9EzaSU9PTJXXAzYHFvuum+TGWhsKeemYjlMroA6sJJdaj+bayCQ997Zt5cX1+/GH+vPaeWxEzjAQew3fH0StLEWtekhhuhCSt04mvVlZFiXZWgYI+Ldh31XZk+EAJcbFXX2dwHf66xWCHWtARbmPgclE5yj6jOdNAE/rHqN0bgvPQCK8Nl1ImFxWrLeVYSf6++13uLoX5EMgl1HZ9EVIxD9AmF6D1i10NWDkDS/I5rhD44ebDhuHN1iZAV42OoFwdkQFi0u5XsF0pDj6b4CazezbSUJayVnSOvX/qUZmfzRCnLzs4YoEZEMl9k2HflNzxOPu35hxNmUBVB8vViaxGWFT/ZpYAnvX7JVKTr4t9VRWQpSFHNLx5dD5VSM/yt8uQM1msnqO6TNdxNpTO3lfTnvqCm6rCZNfIZUdons+qmviQnCf9Y8yKwU40RKnFX6pf41ZP5RI3CvmTm41M6ejODv3rXfGbCx8FgUcWwYPAnGt7+mcKjAOraoFJtw/q6DXcFUXsZ+cz8f+xl2nAH1pb7xjbc7RKt3KMb8x9G1uHwPmUtAAAAAABJRU5ErkJggg==;rotation=-180;" vertex="1" parent="JmjW4H4n3zkzEFeAkcXk-31">
          <mxGeometry width="29.67" height="30" as="geometry" />
        </mxCell>
        <mxCell id="JmjW4H4n3zkzEFeAkcXk-33" value="" style="shape=image;verticalLabelPosition=bottom;labelBackgroundColor=default;verticalAlign=top;aspect=fixed;imageAspect=0;image=data:image/png,iVBORw0KGgoAAAANSUhEUgAAANIAAADiCAYAAAFM5Kl5AAAAAXNSR0IArs4c6QAAAARnQU1BAACxjwv8YQUAAAAJcEhZcwAAFxEAABcRAcom8z8AAGaGSURBVHhe7V0HmBvVtR5SsL2akQy89EJeIL2+QBpJID2kNxzAXmmkNXYogReSkPYSNuUlAWxjS9MkraSRtLsuS4dAAimE9DxCSCMESEJvoXdTzL7zn7kjzYxGdbXN6P++82k09bZz7rnnnnuuNGOsSj9XSuU/JP7NItaUpqWkVadZRfAjw9Z7xFGf4fmQrJVOipqVWcyZ+Fh0w9juscKW6ahRZhJXu0PLB5PGSb7iE8AzcsZeLf62h/uRaG7Sedmnq40f9RShF1Gr2l3uaje7Lwt5abOPAV19rAbxslpOvQ0A1w6faP6x6eldxN8maJJSWbcvwa8vxbg3Yb0Bh4pZvo/PCeC+aGlb6LvqCORESmWbP+BJGL/cJcq9otlT4lIXcF64C388ad1YayhJ4yvejwFoTL6PutSO93ATH6wN3JjKbeVf1Tiz9jHVXMfHI3kk6B5plfkRPu9idGpXcRSO2sfoJYpW2QP/Y+VTp6M50SBQvO7HkuYv+bgVrbH9ie4K3o91C0UvPRgbPxMvSOO/bNhfdM7b38WvdFhxevnkWdP0/5/83/MxOjdVq58WFMkU/pefJSF6f9SkyscLVP0YXMR5/lU3Lsf56NiW2/hmQDV/5n5MNkgAe14aK00hUVslXZf53iCi6fJe0bHJSyTV+j9xygf+KBrL4eNO0SWNL7kfqyGZ/QuRk2AvNSBpvB5FE81OTEe1cu1F/BFCzD6l8SHvi7wvByFhh2jPFlcDWGW+DTehtUVN+gAeCGCPEwuK+3EG7lH11/LxYdRbexDNjk/HilsbE8hYMdqaF0I+zufWFENfyImaWvFk8bcNVP1Pkpp5aS0nH6VGAng/iuOwRBB8JdAW/CLzUufYeD0eVvSy03RdNPkY6re7jxGo+V4mXvi4OOVH0rw97GP4kKyXfiP+tgGJlpg9RQ2F+O6w4u/E2XCI3EU0O6sY9mZ8qPNcqcbJeFjWy9eJM60hPobDWPW0Lotv9dju4qgzHElSwvNBhmr8QhzNAtyPBT86a0hZd4RqYLOChLlDHM0i5qT43A+sLjgfGTa4/+s/PDmBMkM9xRl8vq/w9M6Q6i4DD2njr+PrnUIxytsVo8KKaCg8uXHRlbQgRfIxEkmX4ZgfCvRJNTgfukf8q6HzD+n2Paw8QtdL5X5AavSncLx8/PT6C4aNjwVz4wIfio1t6exjjDWlW9F940ElOzmp6NVjoRs610jPa/Ih0sS2tM7VSGFPPEw5MsSZGmhQwKpYRLeP4RNOsfHLovnJ6WVawadLtP7QilwMD+MmtCJuVQnz++KqH94P4X4PsdKTyw3xfe0QHdtc5Q+pxul4mE+KFzNwjOsC0dz48d5xspfELY2gotvBOUJjUKnSXcS1F4sj50OuPu7mDupY0lrP5zoBfehi/hCUx4R5mJsqX+rw4sPdoZD4UCvqGXj404FhUSeIjW0WqTNOimqFfeVM8YtRvTQaM8v7uAKzWY7cumhH/FztgF5ARfd5FpBEEa14lJv1yKbCK/keAOdEHfleSOq3opUejmilcJMQyTVHpiWzr+JfgaHs+LMwouA/4oMMHHtaHT33OunTqFc6HyQfxAnO2Yj5Evx3hiylh2q59cL7EvfYS6r5e77WAFwk1F4KU1wAsbyoR8B9IZACG2SLfCwQmjjGiiYDLWBkjHiEyj8/eZl0hPgY/a99KACq12LzDwVBzDqk26/lB/DyURIpqvkAvdzpFuLmSLMP4RnIP/G3DTwvGTp5/FmhKcQ9CeNG8a+GznPjRZNUM3AtcD2GAV9HH0qZL8RPRzd7PkT3Px4rbOWPKJnST/l6S4gHhzLF1/D/dvB/jI0mfL4t0MK6gfuhkbE7xZlZhPsxUCr9NHF2loCPLHisFVYeLy1apLK3NmSGiToG/ELSLSqssR/3ZWR1l8y14JA0L/RlKGHwyIK6++shZryk5Ccf4GdmG1G9/Hdx2Bu8GUpaD+OUkq1u42sC6Nm9mROn+wfSxs4Xh4xYaVvwY22mOTyAecKbqRZYqhf2d79TU0P7BffFUUMoxckxCz9KOrcf/z+s6CQQw4R28GYopb9RnG0KUk+/535fhv26n4hkJ15VU2NTOSdRQjrJVvU8Pp8wv4Yf1rGRkNyEbz6JVKub6hnyqL5tQAM4UagzaYZrK8+nD2+no9bN6rDyK/DjflDRy9fjv2JVmblpHPwu/NYwIgrDob+Js+0xOrqr+w05Xep8AOiDGLgzEdwXLq96TBAtoJgVZ8yQLvpVi3qGfO9x3+9SjL5Dze4L4nINMApErcpfxd8eEN/0fEm1nOlKtzlh1Au4CVPNf/B1JITG63ytFTrMVFuioaBQZc9clh5/rnhNd5A1+86IXvqM+FuHmBSBYciT4bqW4EXC/GbtPHjSxSHGq6VDNj1D/AtFJG2vIgmcw+wMi3r6ljeT4rbuQJ3ivU4JNdRUfLdcLuZ9eZRqLFY5dVopbQsKie2157xW56Q5VTvfDUHiOuPq+6lFXUcss0a8sUck9P2luHGAdFj+udKGDctkrfQHxbCvwaVoads1OCahwVpCDZB2boJ8mcpu5/EHZgpBSCisD1CbIFhY0nqebUaujXlO4c0UtHKBqFb6e6y4bbqBiGfQrNHpYuQcSpikx1gUhBlPbpb2yeLV/PLH0YTwQj7hJiClv5XtO2hilpMYV3BENPuz1KzW1u4lcCLoGtXWv/C/Bsw/uPehNgTo3R3NSDclpIUzuZkLIqKVPidezcLgf9yb+ISbANU4XNYKh/M1y0lMbOLM6Sh1xHLGfgv99fdlI4UsJ1oNTPslzRNr7/QIiohROTjKibFPWWaVnyNONyJpvYcK8F9c466hGdQ1Tiwoz1hXjUgj2rPphTe5ljZX96NSvh//3VLDMSX+MeYZuJx5sdLcrZYQb2JUe6nvfDfUdppLtd5eu5lQE5u6fbt0kPUc77VY5TSuUdkoX4v/TdCojbjvEO+pwXveJdTISL5Roo2OPkUcdYBhfe/aCwnwyqi5XnWCZO7XLJ4Jbs1FjPKr+ZoLb6JV06f5t4P7TsWomOJUf7FML33U/QifwJQREnqU0CqGtVQt8V4kzYdq57tQaEOGOn2Cm5ik+bvoSeW98IGa1k5gTyJ8FG5I8NlAzYeh9h6iYfPp4mxTDOn2M90MEQ/zgLJ/QCK846VU9j4+pxrMV/iorJcP4mut4JqNg+9rAjdDIHGqfyAN4Va8uGZAdztT73xRp3AzBUoIN5MAYnnHwNvfDMGPyP0wIaqXHuNM2fUm1zOS2Xt8GUuaK3EaHb83I/y9rmZR2wEOV55M9R3eDhQEBXWnACYCvRkDoVlDG2kxZbM4EMwYKG4cL64uYqSMc6nJ91lkzwfimz7QWEvUVSxKxNP/1ZgZQal83Y910SAsIyC33+tAy1g4WFN6rCEjq8e2iKsO2g4lFhKCmUma7xRX/Iib/yWOFjBG8n7NYXW9g3U1747shQsG3syABIJqEA1CF0Gmko6LeY0SBs9lsXUIVtWAIbKrgWiviOQ3f1Mcdg93sOgSIaI7kwguFLNynC9TmVKj5bef4I+4Vthu4c2Mu4QhBDSEubCWIddy1S8o5vhLxCGj9iHd/pU41Tm8GUqaK8TZULjLx0BLC4U9xemZg1/q1AhbfKJm9UqcU/TSCP5z4lSr/SI51fyyL0NtELXKb3AzhIk0cXrmcF8qa3ZROM07GTMK75UO2rCslsC48TKcb4qRsbrLgHcWowVcyy5InJo53BdGNNvgYTgS5HUertsPXiSlx6PR3MSvxRU/XJWGybxdnG0JxRr/V98zBChm+ReyXt5fUje+tpYoqqmIYX9HzuX+g28aKSiyXnwrJyCMkWuZIYrrbxVnWyOXe6qbIVm3zxFn+wxYcZwMQcSegI/VJgYIbIENK1FvhrqAm6He3QYgTpM5dgloBxKvp7kfxP+oYd8XzU6wEcSHuPXRXjNUc/LoWXy7NSA+vKtVehGfbwLZqLwMk8Y4dmvHzWANqjVZe6fHqvo0XZd56kSvOAsIQ6BopRnykZsh4bjkvuxp+lRzH1UBOb/lS2gaSKQ45UC16nNKnoW9lNiC+34mszpNzfhSWFPFLTUoRvXDz4J7atc4rCAyVPeqBu22Cf4Q1BniWrcukN5F+ar1oDiL+d+HfRkKEpyojfL1MbPITqS9I5U9gsb2j+LQfbnIUH1FLIFn+dCj5yZbr2nz2eSMi8VZGi5MNWaiDcXyk1SLVJOGrUnTbZxNmoHE8Zf5IGW9piFD+Ig7fsF5dJpqBrOBddQyQ5TQPyXO1gCvdEW3f8rvC2rcrShdfq94Reegdv7TiFn1j+9HR5+EHyyWwbxozV23lmjzMP7vwpuhlPVycRbL9Vpr0vSdaMbehEzyog7MwXoypBilD4s7O4f78G6bcs+XVOM8RzOoSyofVqWjkqp/mcY5zSfEDkwvEWcD2gMRFoioJlSky+kbB0uHtzGUUMcrjjpHPUPEQ1i86H6c4PYRxLh/5v+Yyg8z8HsT7YX3fKcEKQwDCvhSNW+hc507VgG+DCWMdO3FhFqG9PIfvffi2Advgrzwnp8Jhc39doS11A8ksqTT6eyKpmSrm6l2rqFMnITgEOyBIjxSfPB/vA6sEkZJu14oaM6YlUAtQLgEm2Qz8vLlnMD78Z0CTTLEzlLgOx/BYOK403CTZu+SALE7Dch1qSFRLxxJGOxmRjfyH9U8hnhlI2kM38Jf6h+Ow7osqVBQIpvGnqFo9rdJXH6P78VcDzSKZHYCTc4dkPE1L5plSPBcv0i81sPMmOFOWr/nDwd0OcUsvj8mlv3wvQB7WnFCSxAavmtezFaGUDNUi24fJV7rfXHp9VQ7v3E+7vQ17rWIXv5MQ4a4dujelFWWpqaeHMuNb3U7XR+8GVoxVYue4B1i+wgdKRJaPgVdwi+pRWyR19NAcrRNNAcX9ZdRhlTzXCeRIkPio8qm0oui+tjezhCh4uhu6uhS/nWRtO4ItRd4M5TQa3Y49lU1yhcMGaTCpD0drheIhBPPfo70yJtYEtYl3+XijkYoVvUSevEl7Nj0kRMV0ojXSCtGmw4XlmTy/4lfeD8iw8RnTlgDN9FBuOdBq4xG/QsaRsLSKdH3O8tJOxHX5kPi6c4wlM0+iw8OK14kHUFjGNX4kTRNupWoTVxylVO4lPG9KD3V4E7WB+/wwbv6Nxjrq1NyPSWbAgIANw5r74Ek8ya6xidJ8276x6GEahmCWKXhg2JVWs+4eYcPqnGFONtZhpzv30tp/IR4qgO4D6vmFV7fG77mLjFAogg4j/6CrzVBNFMaFYcOoBG43/CGolKtUu28S9AWEqbf37VrpMTLVOvv8nfST/NlCIogVBF4YbUBSSe2qkJwiFMOEub/1RLsbSqqleRz3EKyoaEMZN0u+dLTETCkFhnCX8h1OTte4WvtsEJ/Jjcdguux5fXiYqj6MbUMgepoq1RyH9N1hnpYfcje8XHz3d5EKnrlOmnD2O40zP5vvsmL8Ay1hZsZCCBxqr9wg/AoRuU7fCKYyJpp2PQ7Urj3gUSUtU7gZoh0tz45ZmChOHQ20fbr0xw2VsSAD36IH+qLPs//ncw0lqY3Q0nzanG2JZRMaZubIdj/xOkZoqYKERFYf6IPuGEqhrQSh0aoRZ9KZp0oY0E48RccEjzXDu63QOJUH6BaG7wZilXPcIJIIGQG/kNTx0fbmWpV4y+194h3tYObmeahunpBwjyCxWpCP4L/w8PDta4SuAmSJOJrrYDRrjdDat6JNdYEMduRmCA5U/qqON0/yNny/nygmr+tJapbeDN0WOExcbYByzaVOFqYS+J0/8CjQryY1CJqgms4QR3ygQ/B0BUEJWNP8jUPvJlRtPLN4vQM4Qz02P/GffkyvfhGaRUprWt7sIcBqvlZX4ZUJ3wTCkzWyxeTxn+fNzMgfm7GcDUHaLUE9+VybtKZrZsJvBlyB5EbNuzuzYRLS/ViZzN9beEOotwZCGscmnZ/wBNqnkzFDR2nFSO3nzcz8qbcJ/n+vsCVYgnzEXGmfximQaQ3Q6BmSGSGxdEMAQ+pYe0Q8a//8E2v1DLlV1RVs4OgIAsFMJQEMwSCu4BKOiBaSNyoL1tbFEiYl4dmCiQGk4sPqfyjDZkR9sDFi5HsvjWbRtK0xdkBekJc24P63DtrdhMvQatZnRsU8LxhOLM6tGKakdAxBpgreMfP3VJCL4u3DDArSBkHeCa2WhNUlwRPx3xAUrMHSglrff3Z7L3ijQP0FapxdNvpGqheCeMd4onmwNTTolXTFiri+kfbuj+o5mnibh9gilQyxRNk3f66ODVA33FY+rn1KbwQgvKQSvv8UhRr4tqm09ug/MTcxHF7wqDuOd9Ia+iaZyeIiGabLSvHS7qN9RMXikcH6BmqdVVo5YDAQcMZdlkAFLN8h2JV75Bzky/lE6OjT4HziZKt3tCq4mZtcm4uEdXLPL8cLW6bVrTiHOx/JjBsvaZmGA4jz8qhSKZ4rDhsiiHdjnunsXzU12gK8wB2rAlkStbKfn/i2YBqOoFJwkjVe160HS1s5ZhXDeT15FtoUHT7NrQwxRy/N6pV9hWnayC5fW0wQ/TM6eKyxPG4k2Ze/OsPsHjJNd4HCV4mHv+3XkAV8kAwTyJfPLu+4NCQWKs6PaRXPiAu1yBnxt4StSYegQyPbLLrEwXeta+YrxoZ45CMM0LCvNtXMV5qtldEl4gWtjRyFGZCM2Md+2jMGRoSSiTrpbP4ImKOQf1FJz0ydmmD3yFadNBEAw7wDCiX5fPdx7BsZvZpsm9hT8jlnup1VapRJ04D8wFqQdvd+XRoQtTnrOUL8FgIDiLZqLn+eXzdi1R2jEfxqNS1zvrMoXR5H9dhB558JE6aLoCrQTWP833PS032resVNMg9pu5QVCfZLHE84IUN1285aTyvPqciCK1coLa+tLAVbmA3DJ2k+xbp8QLagEbVdg8C1XzE9z2XMB8bDHfYB0SLzgYMvjS2cQ3tP0ZOVKQDuglPGALVegGJsV+yuIELgICil/VgBsGR4rIUWVdfhSbrlXXs19fOoQoD1LBKgrv1LCCaKb+hoSHlqd8d29wyom9/gcDSXk0JvoMJ079jYY+IasXjeVEKqa9uBhXDrkWfjxqVWufMCzCt6gZxKRxsRPVWjEsQubrfsRkYtZdGzHEL+yGLMz0hbHEo5eNMcXkOEKwkkMe5mUfj1JIghkh8/S72PXM3caknyJ4o4VhN4cs8fWtILzVojjUkxI6TQWJPicaYh7Jhr/b1KfR+dsfHylpSp5XCNl98kGage5NRs3wF9oF01ifQe4Lrs2cVK/XGSvLMUvoKEUQVxqsWgVXZ10lHTOKZi0hj+1avO8As1Sf2JHE3Hhs/o3XGg+l0qckWX1HTHm9IfzNCYyRR7CzDqf5INor/07AoeF6xeuxy33im00pKWDlfYYFUo7YeIlY9gzJcPlXWC2uwEEuc7h3N+iPVDN1UEaaqhvTPhBD+HgvAqO+UdfsKGheWl2GAb9v+9VlzjYhZWgkWhxczEoo9rWoiK26c3lhgFi9oBhzRUM8kxh3iEvqXi0l8/Zj6k/VeO1tTYNY1zFbHy6HMdeIuH0g8f55E1e8g8iCegumZVaK8RtLl9hOMc4LVxROokB7n8REI4Y4EGirJq7omrZsbClw1S+JqI9w9uYOE/tOzarAXUKM7SDHtE6AMuAHvXfIqPd2S0qp/7Seo893ufhScwPs0aJU9+OKq/Nuwjo6PW2HDtmVKpvx+334p2GsIYyxwBw+IiRKZ94urjUhapq9yXEI/tdLZiM6HhP4ZrkCIcTcmQ9J6iBrCVvpeitcizQRYNrpuXUTWih+nMaAW1e0SnNgRVwvaICpYNkpdrOObAXifW0/r8PVJqlmP4eCSajp2uxMLCiK888oytEiz8m+ITr5G4MhrzdbHhkE13b3G/dQsAKZqbAu9v1NCw0EFQylxlwYmLWiXt9K7/06ieoKOPyqlzA+RZvlm3mtgvkAy/camlZQwz65lqkYmR4PD2ITVXc+zVOE38HMEd1lgjdqptM18GDyDZx+SM6ykfhOUntlCVKu8jyoK0bYuJ5b+u2KN37HUKDm2uYR1kLO+mArQFVlCCYBIbKgko3IKP0doqCQicSkczSqpOSfdGXr/fBG4ctY3qZxvNKskj62wJ2AVP2yQUD6wVHQ4vR9Jg7dRY3u7s4ZWex/75bF/nvFBFm9J48MkRT5C5z5Kx58gUbyWFRvV/C6dt+j8Frr3PPr/a3rP3+j/zSQub5YOJbG4U6MpJ82wkpoB4zr0mbncEMJAtCMOZWdO7oZgBMvS+efGMtX/VDYWXoK4sdiQeJlRer2cKb2NpNGBslH5BLbIFl9auFA0bQ9FK32LxNx6Svi43M4zp0txB7NPUJwuKNJKJ4mk1kEq8CPem3yBCbwLSEGY9xGhwLCrHptMXMJmWOnyXrjGoV5wzvNeUjuPxDXe0aXRH47HQUvXl54XHENRoYavi3bRrJKaKA70vpntkzWbhDILc8ZUtGKDKl3bFB5mFW/GMb4YNhL8nLvhmEs0epfTJXY0CaskxRCbfg3n3xlia3MGqyfkYq4Fg+1lNICk9IV6mNagmtcE3uVQE06SjfKEN119Iyo3tuznJx0TEQ3QOeI6lQN98++KXt4a1cuFiFY8KZIpvZMDXabPW0Lis33sICrsm3wfM2EdLr2eLybNHzRkXjU5lEFYJUX14qG4FtuYf63PygzaNOaMhTB1zvNLREnzcupQz2wa/x6R2NRs61lZ1RhrSCOIJx0bZ4JJAvx3Q9rwnwqZrQqkXWLQSYP1X1OrPkvWylU5Z7+U1wnT4Fu8pj1Y8TDfR0rHpyiPV1K53UHUfZRtQE4XDwgmeChdcApNzb2UWz1ECojX7moccwWdHandV1Fl/Y4y8yvK5K+iY93Nz8jWxFsUvXRqzLRPEKcal6W309JamYVWhwWynu4uhl8ytx+Vw8eogE+hocRVVPAPsaUCZYFhRrvFAF5KmP8Wb50nwG1X+CgAslk9H+zP4x4YX/VyLepqsN+JFjzeoMH+qt1gD7FBUSHeZ0DcVxkNu9Fy2LMR85X03C+pwK/mKRUeq3RR2L2TfyvGjuEsMf6ANDL2Q0r0pVIqv8PdJEUubnsam3DsUxyjIgpbK32Jn0MQxmCBumurR+2ltb5FEMnk2tqexkryWBU4DV3az6DQeNNRI7MWYteHVn7iMyVUOEsc8y4pYVxF4u7jVC5vEl/uEd7tIF2KU19E4Lhc6BA9BUpaWpWfS6T3cjyAPM95ViV7Q2ML2iEuIcjyozKJSMXsk/txo7boELgjDMlsb1YHiF5H6bmTGtJRUmKTPyDurCGskkRYLo4GB9XaW9imED8HjC5tbMH1kA88k6mXf1Jz8+oSMB9FrcpvOLKPWalVcCi8Adm81MzfLm5mQ+9HZXOFmw/SPZ8Vd7fEMqv48ahWTiuGfZurePQUZbgl2EcuINNFJe1ROFNBVG1vJVHB18ctiDSUIu1L1WYe5MMbMTJovyNuXpouORv5hwEOMt70uwROErF6fVibi/HGyan8Ot4xo0co2Yl7fOkkUrLVWdjSDf0PTChoQTzHQseYaphtjOT+yN9zC9QjKkljvIMzTQ1EyU20XwuEjdG97/KSal4l7uor9sFmGIEGDM1Yzsx0L/J5gJzffBAV9F0cADZdcDavSWT3auhHUEnYoxmoViP8q25cTn3A9pqaq1rf4PNhaBwgO4RB7XSXancHUMxKbesIlyDuxOUFCogr1doqHebElMWAuGHQqNv1MEWu0oEQX6vH/iKtWOF3SDkSqy4CBd5MEQDgkB+8nwkVnO2r+y9C0ELT9eWNiJShTeKWBQTV+J2vQFCICYNDXtIg+eUhlcS7WQRB2t4PMcqn1nmHOAWFxolrzZWZbx82Ca7EQW3TpT6vGG/wCyTCsEJcXmBQrdMaCkQ1na0G0uklbL8iVZw0nz8GXbeeNjUl47ovs6QgLBFG2p6QNOr7ifsICkT2g+KuGUHJlOq7tnmI+tH2iwrmBXHjcF9hoF9QrVXiah3J/DuJy+53+iG9tiuIb8CL8Vh2vDfblovVOWfTnDCa6SQgQdEK/l2BPGkXtyxAxPU4FcD3peHsG8UZP1TzgYbCgpuXgKKXHpOzlVDfuJ4Bi0nwmy5hVrRHsME1pIL6Gz11FjGk2wdy/4PpBe98VNKo757kErhtNhHXQ3ZtFsRuYpnX8H1hWxeE4BmkaUZD/C64ggpbpmt73i04YKcnAXbL8iaeKqs2H7XKfAkPlKHBqUZ9vexsQzXvDa0kEOx2HsTGTyetrNIQPhT7RDSMgzwEDvIuMph/pPKX+zQnzI0IYJm8LwMmBnS2fxuuucZHCgr3Qd7K8RI2g/OgIQ9tCJpop5w4N0han24wG/msA2VnRTbcbgtbbupopnEukMyu9KU5SEGOMkqfCF0L6yHMuCqZYp9CwvYTw+YxrSoJRlhxuPCQMC7wpTtIkA4iRLsXUbMyjukT9K9wn0bIaOnYY3u28c0+MJHnrlrAYDWVe3AmRsk5h2o0D2HjUip3q7i7PUby2YXnzIhKUvUDxb/FiUSIlhlGMDSr1v+Ip+pIGvvxGI+Nz/O85minRtyMOz4JIZXTCa0u9j88+gBNsHqsuXoeRhjXxfXjxNMDzClGxv7KClBYxYAwxRG35max1wBtkMq9W0roj9DYbwf1PReRNusMxAdYAFBzXw5dEA3xlspvlw76zk6+HGWhI5VrXJcbJAx2sXRzgHlAKvuYhJ3ewiomSKuJq4b1ttElB+gnUtkbOq4gl2CVCG44P8AsIWFgwXF4RbQj+KcPMMsY0ffk6ZKwCmhGTXwRB5gtwOboLfBmxNMxOSxR+SQ7VfI6WPMGJ2gijak8DpwD9BMJI9XAFQ1E/RQqaJU/4n4N8P9TrQekkYFpaHbQzLO1RlRBq8c623YzYVlSIsMrHQfoF1Tj8LaibnWhuw0ykwZWQfbdI/aJi3Zc1GzqoXCmwoGfdPuEqF7dW5wdoO9Qrbe0NKCin4obB4u7HaxbF1HMyt283KY2ZT7JMZAUrbCTB8SYD4zkrwytHJdUy7d+NWJW3xkWU7VGiFOnFxodPweYAbzeTUFaQ9egsQnIG8deFlw+GkrEYUPpwnvFYwPMCKrx7TYKw6/FnRyGJmTpaFOK2VPTC8YjalFjZCx8eSYIvgqIeS6gaKW/cgVQ38MLCHhJiz9QSJCU7MSsxBp/4gCr6YML1LykWrXlpEs22i9YPn76dMSwzd1yjmsX1urKeqnUsn9CQBLdXvz9k1KcujOWcRaUzSmSCHHdRNTxhJ7HRZoKPLgFQw1HH70kmp2ohTANUqywtceYDAsE8JHmldiOKvtbcXpuAK0trIJAHmu2ohfDV4IEQBXlC5BVI8ROMstHiNsWH4Yy9gd5vZGbIepsl2wYm/1BIfyzmwbeIEpYZ4g7OwcChyCQk7eCBMWKU61DFyxkRPXS1xoyNHHm7M/J8NYNTQaw6KfU0Z4cGyNhQaNAdE7Rqx1x5Jxj6OTssxSj3HSrNyVT/HwwlBrWlCKSIt/g2T60r0iaU6EVBJphJEmlicZH5XCtuGVhYWlhYk9E1EdQDFm3t4rTdehTclA74ij6F17obPWjWl+UUvl7pfjGkChaMwC24QmrIJBqOLuk9Qgs5wlbcQ5R+DTKr7ht4QAxRL3sj4SSSPAFa49kSgfzvke67dyDcC4ukiaCxDor70YKzkLofqDZmiR8ZxVbr2eEoHRwKaLZzeNLzBcQpK9BRjdZ3CvnJiq8gQcNFsUpVNJffYUIUYRA5zPBoevrqz+CBBNRt3HuQhDVy58KqyjFsO8UtywchFWSLxqIam4S8y410P31jaqS1t8bChLbvc0ECeMrTcdHcOPqE8JWBUJiSGv7HfRphgitJOIWcZkKzLySWzXUYTXbGO0KwQCDBemppCGzvI847Byq8aOGd9bJEnfNGIpmn+nNNxNx15xtEtIplusTezYs+vVGBEkY99QKCK0bk2/D5jvFVQcjY9f653vqe+8pevmXmBqQTXuFONUeI2OP1t/lIXwDART7BEWrvDga2CEApOh2bX+oBQPZHP+qL6KJd3vpsHVAKeKuIFRzH7r2gJhWuEecRWt1IixTP6eYlYelE+sG0aZAvxb8Joj7o/6CNNsdtXy7tJDjORCb6xwmIOsJABjaN5i1kGixybN2yEaxvoHV2twQiciaSAruZYHGoBilD4vLjUA4uJZKQ39Bef6lN32cRtJwpW1dRDueF+h6fawQFqtbtc4RV53QnyTHoWzIhv1FcbqGMDMMiZPG8ZiL4bG92Xga/CZ/12jk4BmCtLkPNkxnUH4W14QgNtXAqgQvRwUryZtBq/r4bptyzrY+wOjoU2jgeIU3tCgVTG1nmAY0DaNGlLC+J+7qKxqiWxLJevlH4vIcYdhoHk6zU2C3kxS1cNjNPBvEN2QQ2pFWcYLmurs+E2Lm5AuVbPUyTG0P6XZcnG5EWHgcELgLEf1nAYpRvs+XByISyZ357/UNSfNxDjQL0QXPm5kAA01Vfy0fj44+qcFkRJrirulx1sAUq/Si2OazSWEoX7pko/UCnEMIGUzG4TgUyWz4ltrQKmcJsla61JsHJkRKmVN49xKH+9NhxYd6tSL7QJUULW77s7tVNleSx2SkZOykOwaDUVbJTtwgr7dfKi6Hg+NweyrHJXBwCCJ6+TeKac8oVreiVz7gqyCkF/4Po3Pp/xDc8B0VNWLyTsZyJkeD2fIb+L4ZgNTr4yhzty/fdl69ksxypiHzVU/krwa0mEPCUCAEUezPAcWF+kZqBH9ablVrs7WdYsnJ5guDWiiL7Uyx+SaRfUdDJZESkDA4rg5bHGgMA24g2XwvjZGcbXd6hacfIgVB82WcSPEOlIM42HheU80OUe5DQIVZ21udya0wa/yvkUzxUGwOKW5tCeov/0AV/hj3sUIq0Bivo3ji/UFYJYlowg1mIbQgrXQRPzdDwK0Xo3evckEVF76dAYBtSpuumjAbN6cnhGlmNUKFwT6HgbRRvkAe29LRdIpsVA6IGqWN9Myl4tQcQDW3+zPM6vR6XAq1guvluoEUCgdEjWqeLdb09GSBlvNbPkrf+Te1zs3iVCMS1mfCB890Ll7fgNiLlpUUJMonKzrEMYpWOJO3WB0V82LzjqR1qS/TLO7ME3EpvJLsemR5r00OougIElfBkNL9QsI61ZdO73dHsg2DSwQg9PlfdEsQ8wVnu4OoYZ8TMexvxEwRz3zOkdRexVqT20odccf7HLWtpKCLL7QsbPpEgM+1bJT/SYPVMrZZ4PtnAmwc5f2WS03CTCta+SO+dM+U0BdhlhpuytBGdfv0qF7a+KxcbigYwXn2kDRVKgiDMn4z/TqVZFRe1lBJmjcwe2DJCTuBOL7XJLqM2jPwGiVRomycwYoFbAfq/ZZLTSopZpbX+tI9G4SKQ96o0mDiokZ5lWJVTFL9PyWd18Vu1DMCyWQlO/5P3oFfTFnIWvlqcTWckxByk0CV+atgphS9XODnsFZoJH+ZpBpl6lPWcxi3dlDN+3zf8n4zBEu1ypvpe/+rGKVHeRMucIDQzGadEF3TOzk6V4gYY6+mjx8fMT2qZ7CS8B/uvwQSBxcHE0/nxvg5iEQUrve5kbHW8zS8N6DnWy41GSOFgRrOUbJeysi6/SCLLipI4djZf5qPSgrFysz7qf86i0UOCvrIesJIC/xNQ8JN+yi+CPORt5JAeL4Vmlkb0IfOBOuqkUim8L8kqnSqvNtZdAniCc8euc83gz2bgKO7YlR2UP/y7aGM3X4rGo+fnaJVshCTnFG4SGUnpuVNxY/zRVV/ZkMlIf5CK3RbSapxvBTXnd1nesHo6JOW6oU9qeK+TmWg0/jwUvSrLPrBfW6+mlTinFXSrptKL2L5ig9TYpBISnR93mZ1McVc0Qrp85bIGfulMdNega2n+Ry2oEOcOajwrhWhiQJQQ7MZWWxEHwYMfFGBcP9isWw+RPdeRZz/P1Iim3K10J5hX7hUMQsvoUHtF6JWpUSi/Hy3jND/xSqnz00lKRvHfX53TFrJr4KDA1AQKOQ1pdrUeEdqKSIMx/PvI6VgXBopNJ9HgocO3h9WSdieIQztFjvjfVyBdB+CwCMGesL8AVXkaik5djBv4ToDz6Ddx8+bWSPoFGgprcdJgYJApgVoAHg7BoIgnpPJjl8hLknY9H2ZVX6O+Nce2IEsKB5dEgPvBjTjvE4JXI4JTXA88qWaDxLdRhx5Lf1eTHQcR1KJm+/j4B3zFfkZe5w3jNpbVZJni2uqmGu8z0GOw7cc1yKa/VnIbK5EzN5SQ4hopW/xg2FYtfElzY2rVvhzSEv4/f0liFQ0IHAmltxw3wmDAO/cfD1dv45+x6W4tq9IWX+x1Cg9jztHT2G3tDh4nOUVw77W9xx1tBgc4xq9o+y7RrIcZhd+MAyJ/CuaGldVozF0NDBXldQp9brVdjvEzMndYoXAXIrPdhcQQR5xRwPJ67zPwQ7Gm7UT6B0l7zUse1T0Iu+1HopWlZQI2a352G3LWvRh80OwmMwWotbEBlLB/0jjnstFwd8uLjmVBHZ3ySvudPt6b0Wwi64AVdK49xrEHansqrjciFaVFDc+J+6qA67PzVy/5otUc56cKuPpA6SEvj8V1AGk2r5dWl13wcUKBBpbnE8VezWJvmui9inXiEtYw2rjXI2y49dEM2PNZ4BbiruQzXyxq38y+yg/A5EMDkdf4SWIZgTQRb+KxsbWdCI8wyQaXtg3e6PrRep2UrQUdxZvANkTjk4vYYfLYX1vSU3vQ/Qmamxv4UYHd+lV6fdKavZAKZF7P33rA05cPOPDpFF+hP5/lClurqSGcgw9dzxd20gNxKbzZ9D/n9LvH+g//OFhtJ6VfXAXDlpVUnIGlTRAHzHXlYSF09jXfNReiqWlnRDiQ8i5yf/A3rRLc5XnRzeM7Q1LS0SbeNWQNv46JW2/Kabb74IbtWJUd8JYei0Vh8Y+CXs9xapnsP2sPW117HFMjlWcDax50KRjo+uUci7RsMVL8NBlojEnZnzH52Dxdz8AT1VSINaDlGz1kpZmpJaVpDVqdwT4xtW0xwVGGMSLZPqB+Q3HeuuY4JVM6ZviEqnSpQx1kJso0+upg/uu13ocTRePJ3X6ODjcK5nCcYpRrokXeRNbiL9BY5zvEht/L1Y8pb5RrmoVWWty6ai6VZhU8PO85ia03J4rKRkyTiI4vgmNBbQgqNTEAzZ4IxW2Y045kDSc4MBPzf6RrxF4a2mY413ybJkdtEZ4x0JUSbf63umLUmL/zffcTCopYX1F3OXDQq6kWKnJGqfgjcQZzuqHkYLSWElGLV5pw8oI3a7F2gna9WCmF5ecqQLvOz2VRPde7nuuXSXBgNm0koxQ2928VxIkBRox91diIlH0fQqdF8n0I/gSWbedZZGYVwkGPMcKCYGGSqKPi0utKykYa8FTSfRtx/8BnEkd7fKJM8IT7QKb0vuWdHqoiRV8VvokTi8VPHwmqPBZ0SiR8kFE0uFOGphfFNXLBbqvQHlcA+0OFn/pvPM6c0rhD3g/SAXMF/YJmavBf4HGSvJwRLCS4MjuAiZ97zvhoyCgaPZPSdxeIOvljXsUOnD1Bbc3mx9KWVPiLh+69l1A2DRoYKgAFD6JbjQ6Kvir6Po5ilneGtFL31yWzj93txNyMS78fqOxkuocwWYTb8Y9htKGSqL3iEsN7wxw0rX8HphlVOuHRKa44sfwuoi0OvsJKZ5tbcoPptElTAeEwKuYMCGtaFTECTx7SvmixnInZlQjWvG0iGEfjXFObKO9vKtYEKnsG9kCAY5OZW8jJWm7uNI90Dp8iXY5CQgWAApWAPuw+p7zuBlHtfJDPCdUpQwb5buU/OQF4pJEqnHzdUYJ6w1cuG54AcdVufniMaDZ1APsayHgMRCUHsO+grjhgohePhETjV1vkX3A6FNI1L6H0vwpqogpKck7ytzP6YYID85zecqua/A6IU9hk6iphwdTzYd5ooqNilxgtYqg+66k1vZnUhh+Jair2D1wBSMlZbVin1q3XTn2LU/m6LvDBvufNwVPpnmfEdSkkrrCan1vKZnbj9L1Vcr731gKYNiAb2J2Nuy7zQjPNdtmoR1QwNTaL3EpotuGuISWfQZpdCaN3t/N6m4vyOWeGiud9jrxT5I1u8iiEiKGRA06WsRG4Itx+lYwc/CebYWmlUSNqlOMmK+kfH6M8nkRDTMu4wrAe1kpocpmCvlGNwTOWmV8UHxxnpDYUPNNQFRGkv2Xx8aFCYY6a2mDs3xe1oo/8XIuKmrIKDiJV82vMwfUMkYFPWw1rE73AZvNewvDJRRwGBLZvUg8jRJX/J61V4hLVGh/px8aiSWRPotxW6end4HMXupdIa6a2+jjlFHIYMroER4tTS+d6qsI0o4iZvXpuEYqqH9ijypJ0YrOombId1QMCi+Vu49U/kP5fCskLX8wKZeg9YUhYV466xUSJKTlSBrzQZHoCSv0Z3KBq9ZPWOaqVi1mKvUZD2KDdvaXhgpKnCEuof+gjtKTEIgIAdkon+urCDhAFrdxxxxJ20f5tD9UUnrMCaSx8uQXUsWsk1acFB68Ngyq1dWqCkr3SOj9/SBwCyYNWXM1byTOGafvvY+9mmaEoBaCDk5A0ct3eQsbfYm4BE663vccNLK4/lZcosrd7H0O/U8kX+Y+TTHH3+RWEgfVMCuPynphf1zrCQnjx750uITWu/J7jeuGho0P96WPAUH7RXmxB5D1Ha6QWUFQS/GoiqS93e8tbB7vYE4FCEbagghJGDwfQgrIt7zPYWzihp1BBC4ak9yvZCeO6chRsh14WU5IoaNVi/T4sCr7up78HNCYnbJ6gOgMacSaw7jgLcZCVNj+gBIYeafLe/FF1fRv2MGVZB6GS6Qxft19hudhaKAoZ8Z6igURy0+8Vkq3WNOTpEJHhXjT4hL8vsOAcUzY/V5CpUBkprKP0Hu+QQrHO8TTrYFJwb6jRSXJeskn7sAREbPgbDutmpf4nkOm1AxraVxJ6GuM8c8tXVfYk+/vEnBYgWbIm3gY5eYzlvBDaF5J3xZ3+dHMSsGVgnwQdwZDv4VhdPQpslFar2j2NrbVjWELH/tP4mofEbR9+cRd6aamlZQ0f1t/BtrY2G18foYgsfjfXDle5UIvlcTlRmAFIdLszYNL4O4wqNkdfB2aJJ5VjQeklNncv68Jlm/5fj2NgmSt8ElxuY9QTX8wP18l2X/0JgCtxXVkZKf6kcJ3qSC+K62YYRSQVSezmzFAmmHR+00QpaO13asZZ6DvCUPSvJsHrcnAJlddYNmm0utjAUMyGrGsF1l56i9U83ZfxnzirjzKll9SwWWjcnUwYvGMkcDyfmrNn6nPzpKI3ejLOApibPKv4nI4mq328+Sl3yCx9m1fOolgExSX+wzV/AePzpEhd2Bax+xsMAgfNXyrVqAklqAaEyJG+dU8N0PiLlY6hWR8of0AMGFe7qscl5CnFZ44fH1EVCvdHKwk4qRZ2hZhpf5anpeZraj3AkNaqT6GUK0HQwrVne7eZfnmczBD7Ghma0msqtadxHXNV1ckzAtC3uf0SWrmOHFXXxE2w0t9+OLzRoULlWyWz+ZpYv9A+MaGAlUNJ4PTnjmbVHZTjeMwkheLoxvAEftDxkoO9S2SsYtdtcqL3VX3XqL+elYaxKxBsSr3YN7ezYBvdhZO6t6CZBU6sI41lXvIdw9bRnLhUfJHtGc3WE5cwrv7DFkrfcVbOUykNCzrcLuf+QMmwNC/CfhUaBApALUQnljeyAVIrR+cMhywDCTNDJG/sGF+STaJZgnf7eBQwqVZUB4Uw26IGtk63Nt8AaInaX2B6Kb67KhZ9xhqVUmYWh4Zu5la+bv5PyGS31a3eK8y3uvjDKxySGhszWiKVhregUf3NQpJE4+jW8XlBQR4EwVbLwpWoCETVElyutgwM6mk82+KmtUdsLL7dgdz372aCnml3t5qoZpX+NJSIygPRt82/FCM4nBD3oiGtPKEuGUBgSuJCtBbIBBdAkqmVBcJWLFnVW6TbM8W1tPSLkq2eg2Pg8R9NC6bFFfRJ91CBRwary4UCfNcX1q8pJq/F3fNGIpevreWL5dgiTm5x5nrWcXatY0uX2j9K52wYopZPoPDX6ISNPsQfsYDJbDAmcm7pLNbxLUXN1Ue1tYbz4wAV4AQv73ZG8T2A0FzDCpNxDiAtVzZVHoR3+dipB7cnFrkP4OZxd5/4nL3wN6xrFx40uMSzsOPcIZQNNtsSDORYpTmMFpktwg6gXgmDD3YRUrok3wvppAF4PTizSg644hp8hR7z2jmlMLzTcZGcVfP4BlqT5qZvEbnBQm3UHgyLHsLcZHfezNh6b5JRZifED+IsEQvvAsZZPO+OV5bNzsjqNbP6xUToFSu5sfeC+TgynhBvkH6gsRI7nGqiPAVdWrmLQ3iBwPLuMExGxCfSDEqD7BfdL+g6sfwN7zfdAlKjjur3C2mpnYN5SIiWS/+UNy1OBAtbB2PZarOLs3w8ESH7S0oLsCZ763XFEfqsuMr5/lm7dsk8hLWseLOrqBY1QfDKggWlYW/04uAkp04wzUByenyl8RpUiwC/hOopJXaq8TV2cGaJnNLoJGxm8Rd0h4dxv6WjdI5wcqpk12Pi7RQMZQdf1ZQJVUMuz73g6lot4Ag+lTrNHFl9qCap/sqxktIg2vtJ3VaydgtZ2OjennUO47zEgys2END3LrA8PF1NQ1M1srrG8w/ROIybHBOYAsUTtz8L3F2doE+r5U3UEKrWQYiun2WMrbldPHXBzk3Mc7zWoG8eajv+zLNHKmxtZT57bzGVXTApEZf0JB40tj4fgArA1UrKf7NHYJ9oZegkXoQK5/GrmqwJCh6aYui25c04x6X4IPhuk0vDCSMd/j6FrRSsbFIBIO7ICd59/abL7A3rqdivMTzTvqnxZ2SkrbjaFi+PLQiyi+p4+vE4wsEycAsKqvRTow22Sge4MsgHVNLnOPduEKAFSDNtDzQGtu376xiVhsiLDcjJT8ZuknJ/CI448n/zbfh0jKt8GxXNDjrnCoz2/2ln2gVITJFhDGVB4o17vPWDaX8ZO+2xVlF0NLtVBp7DWF3sOUTZ2HXsNnX2rpFwkj70h0kx+HG52hDjew3ocoCiTglO36vuG0BIjiC93CSzx9hIaLZbK1LqdwfxJ01RPT8K2jc9w+Ye0AkCu9SrMkFHvMn2CdBnV7Vvx2QZxVJM3xDRpfQ4IZNJ3B8p4Bmm0p3t7521pG07qxlClMT2Ah+sWD12O5tuQkL1lalO9/fT7UWYHw6VBJ3wualfdl4ca6hmuErAb2EeTA1e7h4IhzYAtwTB2lhAQGgFjMwCRm0IYYRRN/q4r/YLcAL7ESjZi9wrCba2eLsAH1H0rRCKyaMML5CparmPSwqUTk4D1E/wCyjl9V9LjlBP2ZhScsAfsDLteYf2CWlcn8Rbxlg1rEy8+6a+OqUIPIGmGNgdjZoRWlG8JwdYJ4wnHln09WBIGdxQIM1YoD5QDJbcfoptkc6lZPK3k7cNuN93QcYYOZAjKW4oUup/DVsrAib2kGjdZStB+i+U6XkWH+X4w4wwKLESnMfYo7/47F6t0ouqMZY2d9Lq/R3ibcOMMATBAkjRUxwV0Ns6pkQGBEDmYQVGiJ/gAF2Hqib3kUq2z0dj9x7IRhEU/kdUlxvvyP0AAMsKhxsPI96oataekv1m3i+jlS+drt0DzDAokBCS7HhIOjgNReEMdTq4oPUO9X22BxggMUFLNdLmIW+90Ls9UGMCfUQvY4TCNz/H+MlL+Nicieu17c0G2CARYGDNiyTVOO3DQE1eiUwDybaRgrXS6p5Av0+u2loNADrX9XsWhor/Y7TwF489Hw8c+qMw4kOMMCcgBux8Ze+MBHekcojLu3R9ObeVugD2E4dOx4gXKtqXCTODjDAAgUi9CSMv7d1c29HzIS5W6VDNvY/lmJq7PNS0sRW7y8QZwYYYAEBsZkh9dlaFsIcnRBUOIxx4hp6oAEGeAIibp4/o54IxoKR/OWdrIJD0KeoVSkp2YmrsHOxs/TxVP7F/t+KNX5jRCtdJOeqn+TghwMMsCgQt9JNgwF3QnDzSRh58bZQxLTS67C7NG/x2joaTJ3MCscqlK3xO2s7yg0wwIIE9kPu1cSNkBVQBRNGPXhaANH02IGKUb6zYX/nLolD7uY3b49miu33yxxggDlFwng1jYvuDfXUbksYD9mPkUqoirf5kcsNKWb1xwh/FcYYPdPYlmk5O3nXUq3yZvGlAQaYR2C/JIQb68W4wJOqBeqJnJ0wg4jo9rui2fEdXYUn64ag8hGDRjLl/xWfHGCAeULS+ELPc0XOmqLPiDf5IGfsr/MmzGOkihW2YHuKB6O6fRlRSdFsTdFLZyi6fRMxw3bE1WWVLYxZOiB8R8nY5yMatPj8APMFqtzPDllbXyP+PjGwKv1yGhvd233oCXgoUA+m6qE7vsq6vSm2+WzEVfzDso2d7ccV0cuviFjjZ/MYCkYI3Q5lmmbETGuUL4tttJeLVw4w5xi98CkkHf/EptfyKYju+i9FK3+h5zj5iwWqeVpHG38HidcLGb9scO8ZnX6SopW2RQ27KB3d+3Zfsl48iJjpXmxcEWSYVuTsY126OrZx44CZ5gOQhiQBb8IWZbWKgf6NTSNIv5f18kY5vdCiA84Q8KRutUVAM2JH0uy10mH5F4s3udgl9j1zt34KHxJmJ8aKU1wXXoZpRbEC9Uy6/beYOcmbaw0wh4hoxaNYl29WYWAq+9TpiFG5XDELHKd8UQN+dEnztq6tdPDEXl14WFKt1eJNs46lRul5VAe3dNM7Qc2LaPbPpA0bFscGLAsG2CUgNxUT/7pGNFMaxdatYZXiJYQjJxVw8bvxq+Yx0kh+B1vdwhimGUGlwx4qrTy2ZwPUy5FW8BPsCBFWL2EEbULOlM4RbxigEyyzys+h7vx2zH4rZuUR2ZrYIG8s7y8ut8VQuvBeYpAHo9nWM+3YIEcxypfuFmTauPlu6bDCOEl5J4L5QgY22VPNi7o2d7NBwrxLGrbmxyAzNfVkRStOOXsrhNdPkOBqJBv2F8UbBmiH6IaxvWW9dL9vj5vchGPJyU5sxxhn9w3Wc8TtoYhopRNhpo2NbfFVhpdQifSur4pH6lCN81ha83oZNFDzXimZPVE6eP3zxB0LB6vNFcJs3QXBSofx1My3/Jwp5DQxU5MNDxsI81dWhXqmPm7kuDNDztkvrRVcsDAF8cy6Zt+3G+nc4rFQDOn2M2Wzmola4/c6Frz6O/FfMUsj4tY6kuZfQx09a6s8sxPSSvOF4u75g+PZ/SdOUzCtrQj3q8aN0svF1nfziJdPTe0a1UrndarmxUg4yrp9iXh8gFbohJHYkECqGxXq18VjDtro+9Hs5n1JPdisZMfvYtUxXQo4TU4/iVSly9p6TLNEN2+W4toe4sG5x7C+N/UqD3EMhLA0hhJ6IxveCx8Rb5l/5M4eonq8uGNmovGvog+8H9qiI0Yigkqg6EX/9liHbHoGNfCreeuOkdxdxBS/ot9D+HwInhvc/vBDPOa4klW70IYoiBuv+TDR/I2jEtb3W8ZUDiP0qqr5u4W2OVAsk/9PRbMfabdlJRO1C8WwH5SNMd67e4AmULTKixWt/GhbRipsxRhni3jMAVZYJswbG0zBcJvhRmRcRlJZ5fgFzZA0TiL1Z0fLXgmMpFrbJbVx4yRqEIZiT10Xsaqf4bmY2cBBG55Deelu1SuseocVH6f8N/Xqnk9Qvaux8dM78oKA+Vw2SrZ4dIBQ5HJPpUHo8VC9Ys3WuEC1c1xP/KrdsPlKkrjOLs9hjQmEBoV1Oqp1hRTPPV882YiDN76A7t0kjRTu4AG9V4Vy3HDuCUp2eWPlZcRIdzgWQ8cJk453KEbpB0Mbiv2zkMXNka7XGjm97DXSihVza+7uAkqmdArqPbTOPQSLK5XvzdH0lr3EowO0wrJNpddHjPFTaUxzB7v8QI8GE4neSt5U/ri41YGafy03+HZzKuihVOv/eMDuASZol59y1qulUbtxV7uU9Rpi0O/Qu6+W1hJjqcbj0qH+/eUVrfDmGJgobDIYlkd7itSSys+VdG4/8Uj34I3NrB92t/KVe6NpKW4snG18QxBZZz5d0e17WUgGyy9AbA7X7U3i0QG6Qno8Cnd+aowaFfi1y43yq8UVB6n0y6WE8XDbATjGFqp5rniqBtkonxQbP8NxJwLT5ib+IpvVr8m5yfDIoAEXGlkvvpU9n8MYyUP4RtSwe5tgxFZbUCvb5dFL6KFBicyC3+YkqtlHQ+CElZuPIExzE9ujxvjrxaMD9A3YxjJhnSodMRneoFxiRrIaGrJiVk7gGAPeCgNTIAYBepP85J8jpn0I3Rq6zXTMNHeTNftcqHQw1RKz+N8liC2Gur1VPNYd4ubnO+p1vQRnVtXUxBsWNDBlQWXz51ZzgC7hnohmf1Y8OkDfoW58rZTM6aTS3M8qDSZWveOmJozEPVKQkYJkjU/HJs6ajmqlleKxUMQ2Wi9Q8pu/pZjl+3ly2Lssm3q7iF7KiVu7g2r8qCtPBsfIQPnVPy/esOBBYyWrk1W47CGu29ftvJ79SetFpGI9QI33B1JqLC+tynxwXqNprhjdVRo2P0ljqM+yefvT1UdIsm8WV2sgtaLS1m0lO47KeyxiVt8pHmMsO7HwbEUv/4iYphLJlt9BlfsUcYmxTNOezQ61RuVKen47Sd7XikudY1X2WZT+K7oaHzETWVc1bCK9kDE6uquilW6GJhBaBy6RUCON4bGhjJ0UT+5kGCnsSRX+SE2Pxy9m1DHIx77FqfwZdH5hBVHfsGEZVd5FyyfPpMppbnqHwYMY4eeS7TdIwB9QMez7eC6ECNISUlU2K1fR/d+FD6G4tXeo+jHS4V2uOWJGMn8h3tAOuwQFwHxBNkonOepxeD24BA1C0WxTPLaTIchIYYQKZgbT9xZPLQysWxdR9NKIYo1PRqnnwJIMVsvE+qZm45uIXv4mGygCFc3E4yx6D65nJ26n964Sj3UH1foGWwzDyjOMoNbBVB83PyTe0BLPJWES1ct3wkLKvYFZ/i2EQCRTebe4Zc4QyZTeyda7NoYb1hCsyv1K2m6Y01v86ISR3DFLyjhAPMWQreLL0ehQkbJu363olQL9fpkGlW8Xt8wLlmmFfRWz+r/RwtZzSC3bIE7XQGOhTNvxFRF6Kbq3exedVeNRKtPfsgAKlmUzQhmvpjpQ0/uIt7TEMq2yr2KUG83P2QlHmKBeeI7MvkLJVr8ZgUA4saCIx/uLqakn03fOXT55luN8DDXOmyYvYZmFXvqoeHInQkeMBGnJ1/9bPMVo6iKEeRiS6KhQJTd5sZwuvlw8siCgmJXs8q3fZ5WuqauLM756ZOmm4lvFY50DvnWq9bjPaNKOYJRImFPS0emOloqTsPo2QmO17QVcojpCfTCTOeZouO9cpFjVY5nJRv3zdD1jenoX6qEOJjX5ZBJCeRqL/gXMxd+GxgAtQbN/sVDU0v6hU0Ziz2XzRPEUoyNfOzRUvfzobpsqfs+EEX1PevdJUnLs01JKw2RtqJl6VkGVSarbgbA8kWp0BbzMWdeHIEBEUqPcm2vLsP5Gylt3jMTeD+aoeENbUA9Q7sSzoCNymYyXv1B9WdVHSYjcSNrFulh+8xrFLL5ffHbmAAPtlFGH1sC6ZNzaOqKNYCTVXCeeYnTOSPbDDYwU197MzAsmRYODRIap2/G9e0hKGHfQ9UmS7HOuJmJSN2KVj21nNm+KYSPrCB7KW2h5BsgdH6nmWvGGlpDX5/6DJP3FnQzw+0KYRsB8G8zc6MnMyoMyjc8oDWdEzepRUcteJVvjC0rrmA/sQoxUbDkx6vZIqnWCeIYxI0ZKGl/id+LdYd8EOVasn0kHHetzXFW0yh6yUfrEEn1sYRk/XCSMH3cVs87J57+kQ7Rnize0xJBe+oAyBgNDh2rdHBB86jAdwVMSdExq3T2kOt6h6KU/oGeTzeonFaP04SUb7Z18O5gVJzyfeoYy9QJXsvc1VA30EmjsIKdhnCTuZsyIkVTsvtBmMO4w7z8k1R/mSdbKa1nvBqHyYDiwqFFZ1ZuoAn8W0cufmjVv7k6A7Vm6YSS+17xYPN0WkUzl4E4mQRccEePzOEnUmTM9Ub6X1Gqokf+StdKPo0bpSLrvfTSuPmBJpvqfIss7AVR7OUvK4cx/BhfHQbqQ1NnOunUz6QhG0kIYKWH+qu1kJdQ81fonp8EDRSueyYaCsO+BKC3LJ86E+76P8Uk/fxLnI2E9h9czzQZSxacRU1ze3UQs3asaZ4k3tAU1ug3Lt5zLA3cuBwgy0ALqoWZMlB/4QrJKCaZzpjIeU6zqzbJe+hcss6I4dh4MnZx9ViRbWRkx7F8oVvkPxFy3wN8NA/blm8+GafwCaTQwwMQepWCUdqpd0ryQvajr2IWk2O9bMhIRjx+0UlU848AJQPJvXmqBXgC/6HlBjvn5GhqrFDpVsUKR0I+Q1lC6W+XLS7XxkdHT5mDwGcS6sIhZfaWcKY1GNPvnKB9qdP9k6T9+usNwsNZBqIHZFjPDUdoVGqfBIVoUwRMI6RCTrmMt/Ld05BZHhWQLFxqfpwGisSeMtHjCxS5KpnRxe0bCqtzAMueVpO4lzZtYZfQ25iDBI0E1tomnugPGft14NCDfoFWzu4J3jxMLCqYhYtnx18lG5RNUNhY1xp9TWf0lqpevJPX7MbZaCukvAtjUGW8BMR9Pluv2gSJrOwFGL3xKzJx8IaIJSdVqRJztHtgKP57dlxrUAdQQjyTm2cLq0drKP6WQbUtI8p7VzmKFhkBSOS4ecYBl7Kp1S1tGYlXL9C9E7BSq+eXuGYmEx+oFthx7aurJvPgxt2U/LDnBXBP18CdRmf6ExqFXMSFKrlHewY6+YD6XCVE3LuPxb3+ZkMdWWrEjD5BFgWi6vBcV5oPsUuMd+MMjwLD/qhiVC2gAOTGkld7H45M+Ad+Njm1+TyRTPpT05QxJ139GzeoNlJY7qaC3Ez2m5CcfjJgBdxlsi49eMLi8PUgwtiSNg8VT3SFpre8q7JbLSCmrM/NxkgQLNiY7YrOTTgSASWUvoB70PBJAeRI8K6X4pufzOBBj2nlYZRvZNPaMiDb2dhrnvIeY730w/lAdHYu2QGr+lcRYN1CPcqNilO+g3vARnrfzjIUcM/tk03EfGGmn8o5QNhZeQo239T480Ge14t00OPSPOxLmuc528+YjRH8kQmM4h35Po2u2lMgOU4N/Rqcz/R0BIYMT1kHU8KrUM/2bGvJt9L276fdhHqeggaI3OWorfN7eJ57qDkh7N0snDoNl0vyTlPpOZ0FOEubXmo8twZDEmJifA7G1lZgN83PIl7PW6WGiiyn/P2QDR8I4ld5pcbnAY31t7j+YAeGBDk/8+cDo6FMim6qvjGVK71T00gdko/oxWbNXIOgktbefk7ZxGwnqD4q7Fz+w3Jsy+lhLRmpq/jYuamnZSlFDQOUndP9Wi7a9lKTbZDQ/cTYV6lZSMRyC17ZW2JejsY6Ozo5Frh2OpsYH7+1ufOzQyJOWJd7QHgmj2BWjdkQBBoRQARMiHxinIo0QMhwPA725eTvlE8Lvp8SQp9HvVupRt9LxOB0fJ63KvI2ZEsv7wZDDpPbD0NNPobgzYddNpReRpHi4pZNic0b6eVsTMe+tSqqKB7unx6Mkja5pMDZABcDgmFQCmL6JsX6E4CziMUZEK71H0exrFKtKamf5x3TPJKkWBXq2QNJOo7HAEbI18RYalPcWAmulvidJ91u4MYblJ4zQOFWz87jmSXOqK9VxromtkOgNwYwuEVO6VGNOeLIIwvmE+RCVw43ULv7CDJq0ME4uOJQr0PUT6XiEBOv+0irzJZKqP5OnMMCcR5+3ZN56z34A80g0CL09luuFkcyfdcRIquVbCBaz7eXEANe23GkOM+ta+RqYhcVjDGJ6reVEJqUVerqslf3zT50iob+iJt3D8hNG6HVV63jxhvZY6Iw0a+TpNYPM6RKYFFZg1VxcEV55zb5mX+Xb3yhIzRgpaVXbqkDOMnPfVibKdyt7UG/SkpE46L5WujqqV30uRJSOEgazYc8woVejno4GxV8Rj3SHRP4VjuGga0bqPOB8wjzb6alD3jUgp7dLmr8UpbVIMDW1KzXqHyyvnu64frC7vCAco7HDFKrbjy9fV9hTPOUgYX2BJQskTViBgHj84N9wGH52NEa6riUjOabvnwZXxrZlJIz1iPEjmn2UeKQ79MJIrNp1GKMBsf1U6+/S6i7GYE80AiOhR5otz5U5x4oVT162wXpONFvZl2ehg5tPIfIpVDtYrWpdNTUQEHoqXPvMVhSKzyNaXj8Jz+fblpdPE8zbSPCmIAafEI/UgLBazuKz8OdcVyc5Y39MPNIdemIkEhZx7XPiDa2hZt9FjOSUFb5RI3yzhUB6IhFrOeY/eLw6QBeYmnoyGxV89Pun8vkgRi98Cl9ruD9Ava6N6oWR0OvGtc7CVMGPL2V+iHrxT0hxMy7FjcOpZz+WBuj/Q/+/S8dpEjzZlpSgwTusbCqpiIhylCA1CBI8af6N6Go6voXO30vHD9Lxdjp+hO7ZwQzsG6e44xISeOgF+kZ4HwSsl1zh6iXx/SDBeKFa9/GasAEWKXplpIR/5fEAzTCNgC9PYk8YxEU8ML2E/TAP2rZMGl4Xcajq/M717oYD9BG9qnaBJfwDDPDExmyrdqP2UsUo7RfVqwfC9Saq2we6pOhjH4AXgGJVHDLsD8IfjckofdihqkNa+SNwsWEyqh+L6sVDFaOYimr2UfAekHX76zTG/F7UKG9UNDtL/yuyXp6i75yj8Joh+9eKbv+Brv2N/l9P993cV9LtW+j3Fvq9lX7/Tb+30TdvB9H4+A76Nlbn3kVpvIt+76a8YhHhPXR8L/3eR9fvp+MHonr5IXp+O7shGeVHhaFpvSjNAWYLCAy/xLJfgAAe4lR36ImRqtPSMI1zOgFCcBnlX/JcWIgP2oBaE/uBdspIS7XCm0mCrCPpdGFEK/+CpMYpUb00KpvVFYpWeXM0t/X1Q7r+THH74gR85taUXi8l82+TkrkV1CCPpAHxV2lw/F06ztC5zXTcEP+AyuI70fIpV5MkqztJumSfMr0cO8xppWtDDRWdoBdGOrwL8zeB0n4qL+cONJIBtSeUG9Xv90RRtgbd+FCDtMJ/Qdhdgbo+v0sKBm+q9Rfp6FOceQ0m4eSICUPQ0afCFH2ZeKIGWSt/Zfm285zwW6CSIP6/dZr3g81OTAfnkWJmeZ9o5XRqxML9PoSWn3o+5nT8C94wyFTN69myw42WiOeiXKLGiXQnrZJ4wsEJuRipJ7/hBW7esvEQTOBUNv+cW0aitHYxIUvpm2o5FzagcELbx/yiZn9DFGVr0I07Ql8kCA2X9OCTxe0OYOXAHkQwP4ZVNggmR9W8RhrO+9bRU8V+Ho0+7FtMmOTU7ceW6VmfOTKm269lr4cg03sIq2wjun2MeMRBQj+I0vNoS3+2EEaKnVx8IfXS/wCzhH0LNC+MxB7ZRscuQgNG6oI8HQi3Q2pPQ3rpa6IoW4O6/taMlKfGQoNE37IGjgxqXcJSPqyyQYgDrpo7pLjxCfEUoyNGQkY03mKlho4YidQvGjT6xw+YP0HwRaQnLJ2gEEaCIyoNRC9ptSCQGUmbASMdnN5LShh3zabT6k7PSGgvWJ+ECXJoNbzGDVqLo7kgUivaDIwJRHdEDfsWavPX0/F1ilW5jsrnH0Snod3AIEPt7F2xTPHdiP67NF3aD2ulRFG2Bo2PtkfNkAS6xA2baBONMVxwj2S27pEgadErJfVPi6cYbRkJjAK3G730GfEIo+MeySj5TcNwk2m3XDxMtePlF6UL2Z2Jx0dYybkVHhCw9twqm+Wz5fzER9nY0CuwvSbWFnE5haQrjHgeycyIN7RFBMEsRWMKK7M5J6rDeqOnciUmd0iE5TLK27nBw/Kml/9Nguo62ShdQULtF1QfuqKVUzR2/5BLEaP8jiGz8l9L9Yk9Z7TqeqaQtdKdLQsZTJQlMjyMBKjWT9uuc2FTreFzZ2nPSPQtYl5ZL/kYsDNGOoXU0KLPaZUn3xADzttYXSZH+kDYKT2ZLYgnXOyibCy8eejk0uvE/+bodTIPzyWtqbbl6CWkO2H8JhhyrBmI4b/GTsL9YCRIfh7XEgNA8oMR6D/qixr/AyxkjNI9sl68mgT0r2SjPEEM8eWoUTmYSS9/isNmmcUX9r3RQ7gfDU1Jf6aUyL6DaS6haKWfcgMNKzhQM0ZKmudzIwyrbCZqrGuogaimb85DyRQ7GSM9jh0LxCMMBOIgibS9Ia1oILz0mCp4yznTkWC0UxhGEvpviHnOJ0n+NSk1luLFfwcbzxN3tAdmw7EvVNw8jn5LRBdJKcqju2nyTKK7Jql36WaZA4+nzEclNfNS8YaWoDIbqZWrKC92EAYzgMAI1BPQtR08j0JEz1xPAulcxbRPkDX7cCVbTSmZckLZWHyjtIEE02xCHV3K5Y3AM6r1FqI11IbWUd5R7kTsovQA+1uifUEIYYjBLj/wwSRiwWT+Q7xxboDFa5AstYYZJO4hqPFmxvx7lMIbG7p9s4EyzoMSxrB4gkEMebC7DQrHj8avl6BCZSemg8soohvGdqde6msRq/otRS+SPmsfRWk7iiTfGkw6Cp+33gA3krC5oGR2s3TUVL2S2OLnzSP9Z89qo/dt+VXjG2yJ8763FXG50nc7jNkwBGunWd4gG9UvkkA8ijSC5FKj1LkQ6QUoTxAzg/FBagNfIOF1IqVfZ8Iev9grF4LY9ZdzfeRcHzhQrX0Fyr0d4T2Ibwj3n7mCnCm9DT2EI53QsANUOR2WqVsaxgLoQrFdP6QpZxoNDZWMgTNlfGTsJ9QDHNag9uRyQ0v06t7LtM3PlvQ+7WjQBkuJKYeM4hexjyzlBcvM72cmhq5OBA9v0sEvaGBGlSSgM35qTmyOzhriie7RUzguKl9V735XwF4BIQNP8rhxPDHF96jeN9HvFkr7Ddxom5LLDGCELplhJoRvquZ9wW2FBggAy8cRhjg6Nnm8rJc3kG5+JjHHjejNFKMyJm6rgdST81uG44LaY43viGSK/ihCSWO9tBYGlRaNwJnX6X1XOVX/ck1F7ITQKLlx+nv6rsGRg4z/pp72eHovvMB/xp7bbu/Ly1PcnoII35xLZpgJcVrNx0hrOkjkdicH1s0ns69i9/5U9vOU+W9ShZ5JBXEtVXJe3FUDjefyyzefI+KgCZ3fS4jBoNu3Bbf8J0Y6Fz1Pw/0uYZxF71SMgj/SjGoe5fQAUC8CFQWJ65iif08V1vvWl0nzbUT3OEFCPN9oStSY0dgTDYEww7H2hBgx6601BoEaBXUK6eeeIuwbi5y4R6LfYdM3hTI/gFUIA1psrRjf2BiMcNReGjGKw9Hs5BFRo3JkxLC/TT3DhKKXfykb9hU0nrlJyY7fJ2dsvxVtxHwlZfYe3s0CFYoKDlYoBosJ40LxhIOpqV2p9/k+1M1QZgARI9H3742Y1aeLpxjEXJvaMhK9F+ZU8YgDBM5IWo8xwzgN71L6r0uJ7P59jf+mmj0E0Tc6DqJP7z+Be5Wwdy0mQjvh3hJCgQh1grKA1sBhw6w/kFCqECOZ9P/zUrziiz0/u4jnX0xjmZtJIu5wEgWTcNASQr9Jw2e1w4RlRC//O5bDdokhjZOIrXOZ0lfFIw4wSE6aNzjvDCksECpdNf8srd6wu3gKA1hiJPssGCTCvsUERjLs+4KbI8MCyEvNm5mA0ZOVT5uWNxYaV7rCijTbYEaCpSmkLMKIGanz3Sjo3hVdmdjnmlx11W1ryB+ElzOJ/ieiU6WRQpmE67dIe3mZE5N9DuqlK0DqcsU06+YhBShz4HAPOJAJtthAIwxrnETMSHrFH8oXZmTVvJalSej3iNwBdUr36bjEJGZLB0zHNP4wDCjiEYZiVPdjddCdAaexFEz6NJ66UMmUtg0Z9gdjG6kH7tVDYaZI6Ke19BIJEhocAlWutN4i3tAacf0D1BCdMg1732ySyyRQXSEgwSCgJAlv1TqHxmXbiL5NedqbrXwHBUIMLBpgDqTlfBARGr1qXiGeYDiMVLq/1RxULE/jDr38e5iuxWP43guI/tmakajwwdyw+nkQNctfazkHhd4xPzkd04o+T264Nw1liondKlPPh9VQnF44wE4baGydNnS3fOL+ObqmQONEZNrZ6JXcMSSELdoRDCeq9SAJ4PMpfafzal7VfgGNV57OS/d3WnTMSNbfxROMTnokZ3K1PB3ZVHileEwiybM7VeplLXV2NBRUTCAgftSwj4c3Ot7LkYewbyvGNmb1H1HNPhe7vHXsGzVD8LyWNf5x2aj8ODq25S4ahz2KAJjicndYab6QyndHg1GjFfHWMp07r/LYoZ0pP5SoLpAuMDpW5/I7zPvp/y9I3SdGMYYp7S/gsMV9AHa+l3OTB9A4+2OyUU4rlv1XRbf/9KyFKAB96JGRIuuqT6cM3sa9QBgTgcBIJjGS6WEkALPTrcYE6PoTxjXSoet91rfdaewTKZ/yCsUcf4m0bm79qpauN54nW9WvKGblGgT9bzB60DlEXxW3dwcn4mp3zqtQBRPGL1kd6gQJc5SFU7NeD+ddZkF7QKzzVO53kqpvkpK510uJ7F7iTX2BotmfjY1tvVIxyo+4DqbsGMDticayYjyL+T5ZD4yzFyQS1htq3XNYAYNCGElBvDjNvi7WKtgjCoNUrSGr+BrxmIOkuZmZ5fBJR7I68yiPkh59GUnAE6WDT+prpc0EiA1Olf1nOK+G5lEQjCAkWH5OqmNMPNoFRp9EvfRmZ6waUv5h5PYSqrmPeElr4D7VvJeZCfXpqGA76B2XE5OdQWOo/aUR8yXi7tnFhg3LqKwu4HBmIWVZI7am0j2LYm+jVdbLqUDvaykNQxhJGp1+EkmKLbzwDRlmCeL88ka7FWp4+c1wZJzZxOFsYwXmWcb2IQbeJh0+fiU1qoYA9VGrkhbb/7cgZxGkbNqfFI91B9U8pjsPB6H+4rlOgOD0cRrUjxTeLI3MYIfBPoDG1h9oaTQSBEaTtdL5wcCdCxMcjdO8nislrMJAUCNU61/iiRrkdP6jSnb81IhmHxIzyu+IZSfeIevl/ZekywumR2kA5sdG8qNSiiQx4h8gb25v7JjdqVf0O7SSyraaBMTjrKoGKxvqSHb8YSoHbdmGDb1PzCa0j0vJ/CMt100FiceZ5t/EGxYHnGmMP7aKfMsEgUxlC88V8eQCByQVdtU+rHgbSeVbSe++nhrTL0gy5+n8ampwH2Lz6bC+MLfW7xRJ7VWUr7ud8WCTcQIIKmc8sGnYRhGIH6Zz9MBEpNb+A06z0rp19bEaVCPVPLnnqJ2q9fOuLGuOane/NGz6POUXMhTD/iAxSaMXf5CwNkmzb126iQT9AHOEqaknLy1teR5V0repAs7D5rtKZsyvUrL6Zt3OczBhjdIlVpeM33nnM/ZOp5eQFL1AKWz73LJ0/rnitAM4cybN3zKD4t2ONfJaYoruF/wlzO93NTELOoLHl50F6FgAUDKlU3gRXxjzeAhCixjpZz1HaBqgDUZHnzJkVV9DPYShmJVL2doztsXxTuBxGlVCmeNM+F2TYN1KtJm/AvHEaPYsDprSDHHz3aQO/oaZJ2xsiclP1bizY4uaC2eymtS7FuPVIDnjpN4Yd44hZ0qf6GjZO9S64rZp3gJ1gD7AWYLhk0hDWvFD2EolbLxSI6gFRumvMVLJxGMOsGFz2PyVO8HJjqPZbVJyffh6naS2UlpTfKwtM7pW0IR5hHiyMwyvezox4PWdO7ASIe3IUzz3VvGWhQn2lexgbETERgbdPk+qetTmATrA8NjeJFG/TY1vghr7XdyoQVjPEtd8m39hfT73PK0YCfq3Xnp4t+ACtnh2Zc38i/ezNM/+lhrv4R0t3VaNL4oeq7FBu4R3g4ni1nekA3qYyYcrFrvQhLy7GTFjZxtCny0kkGD7XCw32Xr/YJeIkSJasbMwWE9owMCRMP+PGwykaZjF0LWkrdT3F08xIlrpVR0xEkLPbvBvHMbLHZLGt2hw7p8gFpA32Z+MZSfPj03yVpg/51WeXrBhJhD/wU0r8jIydgX7Ls4ECevj9J5Hm06chpHje3cPPbMgd1SImcUXkqp9VUsPfEFQ0xWtfLl4dICWcBrkb9uqSGx2N84VTzF4Z3St2HpDZ6x+peuyMda4/MODJensXlHdzhE9xpODHksSxl7ETHFxax0J/Vi2rEEA4Hdk7AZK65ENTDcTqNaP2nqbBIknWM2seMPCAannpKaVW3rtuwQByevCxj4snh6gJdaODhGD/Kg9I2Gm3/wdb88hsOyE/HOpgV/v2z6TmIa9u1EJmn2mbFRaMhCpGd/ipeZ4xluRXiKmUgz7ngbfPaiAifRePUcO6gRx/euOdbGLXskZlz1GzPQm8ZYFgYhW+Rwm6F1DUCvCvBGpdKdJ6cFu5p1DtcoOo4Q0CpccRrtCWr3J15hlvTy6/NQfUkMvXx3Nbxkf0sopaXSqo12qo+nyXkqbrTCZuMerPI7JZvHo3GFt7j9I0NzdldEBhPKCu49H8MwnsLNFNDfRWntwCVMWZhmhvBa20WTBoZNBNU9OdrlRbtLYj9Sur1FD/Kd05OQj9N8fMJJ6EmLAP/LEaliFgmB+hQldt381lB1/lnhybqFa/9O1eucw3j1SXNtXvGXeIGfsl5LK/HDbiVdBPG9kdBiwfgAPYBoO8y1jHzKSrGCyhF5oO/YYye4rjeS2kSr0UMO8jsOI+aAaJuslHSZyX2WCeRDvjSSjbFZsyexyDqjfiOtvpTxguUI9P50Qyg3bVI6Oztvan8iG0qui1vjtrNJ5y7gJwZOehNtPSKWLilcM0DHASG7chk9joJy9g6Twz6gRxDnUVysMW6+hHucy9h5vpf5w/HFrO6/38QBjKGYcxNcrnzKt5Cevi1j2t7HfkbhlYUA1Tmnba4cRlkKkrEPFW+YUkY322xWz8mhH6hwR6kAxq9ct0ccWtwvavIG9kbUXS0e3HljCdCoO64AZW7WuamusYBO6+XgwBhyWgEQy5c8MZQLLOxYaRgp7kmC5r+uxEqYTEvod9Lwi3jQnkNPF42PFbY93Ylhgwn2k+smZsc6WzA/QIdaufepSrfJmRS+fSqrXPbHqGc5Cr3RhlbijjiT1Xu0cPJ25qMcXwpihJ0CtTRgntTXKhBHU5oTpmzqYLSDeBalyv21pBQ0SNAJiOlkrHC5eM0DPmJ7eJZrdspds2aVobvIhXqMSiFfn+M3x9oN+SxQWwoW5+7iEsRaPF6y/SSsW8Y6DrMaat3XdK4E4eGVgvRKV+VC68F+RdPlT4syMoOilnLNauMNeCISeiCdeS18QrxlgJhgyyu9lxmll2bHGEUDlITmT8weNR4B1qG2uBwQIx2zpyt1NDejzHEB/Z4BqfYPV2G68HUAwVKQQcbTR2yJilt4p66Udcrb8JWgC4nSn2AWe9rHs+OOdWuW8xKuJtfKAiTrCCl12li4YVZKMf6aG3RAfmwr1XMQcDxa0jziIfxWewP7tVTgakfE4B+PgBpP9OX1r55wRh9URUZzCXKnakfPMTcRMrxBvq2FZtrKvYlYewepfxajeK+v2WbJW/jhPQutTMquWRE+jY5zD3lOKVf0TL4PodBzkJahzWMulF0ZEEgZowIpcjHqIE6VU/h/cuCFB3dWeOFbNS6RDc4FQwuXvd8pISrq0n3jMAXqbZOZt0srvza+Zeq6AvI6MUQ/cZa8EcowPV0tHN5qXsUGXYlSu5qUoKG9Y27ITjkWTvT+IMHmNnqcX5nEJY93sxCOKVniz+PQAPiDqJbwPWKVqUslQuRCgPWG8WjzFkPXyEVxxrUyl2FJmbPM0jBDisScuEuY3eeFfL8yE51Tz16Ee6bnfP1XOFMudLLjrmnRbLBkv/ca3mniAAHisYj3UcuKQJ1lpsBzXfMywKxxQjfJDYXo2S0gekNpnIoaeeGQA1fxpW7N/M4ITcMK8lLWHEKC3INXtDpR7sD66JmIg7INFPdGDysbi+8UnBmgKrLuB6tBKSrqMFNjZDhFQiZEeZEairp9nuHX7McWqjJFO7uu9BhA4LP9c6uGv6mm8BGImNGnM1DxOHfvIZcdvccJl9aDOgRFzE9uxW6B45QBtAXWjU0ZKBoJ0IL6ZZm+LFrdW5cy4L173AC0AD+9U/m6nTEPKux1B1UadYTe9Vkino7Jub1DMyn2wtLGWEDZOghCE7+IYCcL85A+wI7h4wwAdI2F+hBjkMZ8ZOki1Him9oFz8FzWwABDzaK0EWDuCK5FqbmvnXVIDR1OqHEd0AjHYOkUrnxjRi99d2qkBYUVnHvpPTBy66UVUKc0DTIKBMNCNG2np6PMG60z6Cey4B++OmTATeqbVxbuDandfETc3U/1/bqEs71iYOGJyN6qQO2sz7+iZoIezW0v+p3O+TfsTDap+jOPhMQNmSppOfa0u3EzM2Z/6wjwiAvcjXBh2kR+gDbC7RNLawT3PSOEHVKHq4t3jZpEiYSSIER5pqV53RMRQCDjDdZkbl5KkbXSLhJGidNzKauPqwg4pkRlY7DpCP2MVDNA7YIAAM8yYmTxUD0xzK42FLSmFbVCNA+hb8FjZj771fmK+EaI/kQB9oKZmQjtJWQ/RPb5dHgcYYHFAtZ9Jjfu6nrzFOyUwKsbDPCYOUSfx7YR1HceUH2CARQ2sLG63xGQ2CN72cWObSMUAA+wEwGLGVPYGJ6BlSKPvJ/E8Yu7hvhkqBhhgwSGhf1pK5naIsU5/CeodVDm1iy04BxhgUQP78aayd/VF5cO84Eh+u5Q0viTePsAATzActOE5UmpsgzQydh977HfiZoR7MP5J5e6jZy3pEH+cwQEGGAABaFLFd5N6dpYU1x+i30cl1dxB9AjRb6WRwkd6mk96QkGS/h+m4ytl+Qv3wgAAAABJRU5ErkJggg==;" vertex="1" parent="1">
          <mxGeometry x="60" y="242.32" width="38.67" height="41.62" as="geometry" />
        </mxCell>
        <mxCell id="JmjW4H4n3zkzEFeAkcXk-34" value="" style="shape=image;verticalLabelPosition=bottom;labelBackgroundColor=default;verticalAlign=top;aspect=fixed;imageAspect=0;image=data:image/png,iVBORw0KGgoAAAANSUhEUgAAAFwAAABcCAYAAAGU6OLOAAAAAXNSR0IArs4c6QAAAARnQU1BAACxjwv8YQUAAAAJcEhZcwAAFxEAABcRAcom8z8AABOASURBVHhe7V0JcBNXmm5fkiVkY8uShWNjA8YCG9vYGGOYMByBEJwhCVBJMeGaYpNiqKVCmMzuJsBmc01SOSrJZGZnapLdkKMmkGSOZKo2bDITxmQmZJLYOlq35QsDBsIRbDDG2ODe9z+9Rq3Wk9QttWyT2q/qK3C/v9/736+///e/Qy2GBldFRY1v5cqd5M/IaGEYTsiO9Rvwv/7Nm0uJSBBi4SsnTob8zRYV/YGIhgt/iQgQXyfi4TcAvhJdA3oQGcvkyXOFF3kMdnYidmEOnzt3vZxxVVc/LRYWgy/HN9BUAvIQXrMgRr2hJTMz5BoWBjhXrFgqLADiGwR/NyMS8QDY7OzP+cLOH/0oRBhIxMLhEgiBzggppCgy/CtXPuOoq5tJ/gyHKz//PWHzoC//fyISQGta2vUCnuLOElG6O4ivsYhUQYD4OjBE2F5QQETBbwI+A6QK02DRaunCQvIQXmPshYUfCC8A2eLiMEGgZGtgQR4hhSpViKBv3rypRCyI9sbGW4RCnpSUyI4khn3ChB7hzWJaEb2VlS8R8djwp6ZSKxISIPQ1nujxaCLVhMJuMv1JLCxm62234YqtEydSy3kiqEi1DGPJzOylCfEELXkMHT9OlRHz1K9/PQ1XTivk2XfoEKk2AJoMjThgOWfNeoJWCEFXDr4W3Q+EymeLL14bHCS3xMaFpqaQe4XEZoEu0ArFFNoeQPMYnm7kdbhyAE1AzKsXL+JKe//3Y2o5Tx8iqTYIu1ptoQkD+dEymrZA59y5k0l1dBz9yU8K7aKbaB8YTy8iuVU+kMI6t9nc6Fu46ClbcfHN5HL88FbWzgWNaJrydKPoRsSlQzgS0tj35z+H/O1Wq2M3cnjatHzhTTRac3O5C59/Hn4dkVQTDq6rK1N8g5j8Uxvpw72eo4hBExaTB62MZ5jnODMzL9IEheRGRnDFR3fsoJYL6b3rru+RqmNrfXz3HlwxIJq/83Qg4opdtXNeoQnwbM7IINUGQJOhEdWewviiDGviQMUWFlLlaERe9UsGXIhWCBRj+OzZkJwnyM6wpNup0UROb4ZOniRVxka/xRJ2P7a7+CIQpZ3kNmmg1QFPOWMTXQRv4N1OCiKFYJtON8y40tOphTRaxJ4jmhQI6Sgp2cVYJ01qpBXSeLm1lVSLRqOPPqLK8MR+DqAV0igErZynG5FUzTDNOt1BmpCQwlQj1lBHqg0CXIcmyNNdOwdX3CJI02m0ajQDpMpQ0IR5As6++Ra1jCd11BdC7Jo8AbTrPFul5uYoFR6iVUAj2N9RWvoyuVU67HmG4+IUg6cT0arXv0pElQeylLZt4aI9LRkZx71ofgkuSDMrDH+gpB/RigZzqz7v72xZ2fdJNcmHpba2xKHRnon0mcciPConnnwq7Lofdbq1avaLpBllgKya7lCpLosbk8uuLVuwM8cagSFQO2eUP06alw9Hfr6pXVRpPMSDA4Fr1iyqTCRaU1PRPzLgzMi4Iq5ELuGpPfPmm0Rljjuz9w2qXCzCUoq7du5Gohod/nXrSuGJplUgixMmEHWDkJKkRSOblXWCqBkKV13dvGipkRSCcgMeD1E1CHGqFC9Z8fSiY8cOE4QymrBUuqqqiJqh8N9xB1U+Xlrz85F9CZrV6jM0ISkEaw6fP0/UDMW3H3wQM0OQS/D5nq1bi5kjazYUxOvXnRs3EhUpQFnmP5AMuI9c0toS0pab28m0NjbuphVGozDnUhqdmzdT2xQSzxOd5bNepRXSCB/76ddeI00oixE0EZD6EOOpimfOnDW0wjCi5D5Z6LrvfnqbEehDKQJ85mmQkNIEhKT5YiyCj0fDyNBQXKHSZjT+DUcVq1broQkkyqMPPkhUDEfnpk3Ue2IRAknT4sXpWHFAG2XbIxGCxWm4NjCA1w1p90ih/aai0OT/i/nzNZAv04Tj4ZnX3yCqBtG2Zg1VVgohMKAw+ClRNxSo7hSYJ9FulMPmlNSApgRX+y8lZGU8ETHPfJ6oGRm2goK3pC5y0wgr6Dx8t9xClZHK1lRshAyimjS4tFonrbJotOn1WOHh3t6EkiuIdF33319DVIkPzhkz/h12m2kNCAkP5NDp05ynoYFaHovwKTu02kuo38GooRTsJtM6b2oanvzSGpdLmKq1FhYeRsrG3jtWEtBg2+13LrUZDO9YJ+h6vekZONbCsMwTPi1kSY41GlmrwfDsF0VFGnL7+IC3qmqGs3jazXA4A3ZJYHMddkzs1dW1qIM6Ijb2YMvKv2/X6z+zZKhGYAwA96FFI1jOgImKB7lYi1rd0/a9hXtQUjWBVDN68FVX/9KdocIbKWIlpRJSU9jKdlRWziXVJg+tNTUv+sFqIiWksuPee3HkEV6DTwP5/xlbQ8MU0oxycG7eXOpBE1Vhg3JpITP/SLEdHmjnpIL3SJOJw1le/niiE2l+xtTz+OPUciGdKtVlJJpGmo8PrFb7VyWWLPqbm7Hi1qwsqoyYMMzDJiZRQx5g+YtWqRxCRnfq5Zex0kNnz4b5dzTC8t9XRuMkoo40sEVF7yWSZPF0VVdjpQGdGwJn6OSwNT2dG/niC2mDlau+fgOsXdAqksPmtHSicgDNMjazhHSpVINEtcjwHzigjrWVL4XwMF7r7ycqc9yA253QwpDdYPgjUZEOVqeLerZJCsGP4UiBEO6aGqqsVEKohAVZomYonIuXLVEi4+tY90OibhAw26fJyiGKcBeJqqFABSO0G+TQXlREVA2i7+BBqqxcQlh2zZ49j6gbQPdjj02LtRsZi/wgI4Y9L48qHxc12l6icgA2o4mlCkokKD104gRRNQg46ZXIJFlMGMF7tm41ELUZRsq0LBIhWpzbv5+oGgopQ7xcOisqXsFKH9m4cWoicdu3aDFRMxwtCi8yYaoyzmHF0ZTrV/GOkladjqgYjsttbbKGeKmEYzYBxXNyOmkCsQh+PTI8TNQMR8cP78VuBMrLIa0tISGmd2/ffhPDojyZJhCNoHS/zUZUjAzhGXkpvNLdzR196KfUNnlCWLQXFjbEPFhHY8+j/0FUUx5SopB36dItshWPtLumBKx6PbVNMR1m85sM+AytkEbwwWShY/16aps02vKM+yVbXJzxKYkLn34qK3v0NDQ8z/gkLCtDpb0HDpBmlAcYhdZuJHrq61cxLRMmDNMKhYSP8drQEGlGWcQ6VC8mXlyqrq5FeYox5lmyeOIxEDocDbDOQmsvGmGi4x8ZUTNsYeFuJeaXYkJn+1taiIrh6JPp1zydaAqIR86mpqZ0OZFFKsFvo0GuX1+nWo2SRAJvnBPZaHRMnkxUDEdLRgb1nlgEz7Dk5q4kaqN8xWT6OU0wER7ftZuoGQp/YyNVXgr9vJsIkegym5Dgu8Pne4mqQZz/8MO4/Jqn/aaiA0TdIFijsSmRSoWk+ffI0HD8fo3YhogGy+D3jYSQsqcvha1LlhB1g2hOj8+vrzMv7xBRMxwO88wXlAiNp155hagbgG/RIqqcVMIiKFExMmyZmoFEXAYGHuEh9N7/+Sghv4bVB/bmxfOJepGB2sqAHtIqkUKhf19FSVkifg2fvm3SpHeIarFhKysrbBVVIpXd/7ydqI38OgEDAFmNJnjiTSo8Cxea5SoPLtHfYsFK+xYvpspIpTM7G6UlcQK+MirnNAX2b4Rv3303br/Gm1nZ2X8nKsQPpIeK1WovSYk28KXgq319cfs1LEzBuQHStDJwT5v+C0gpY1kSrE67Ho1gZXt29uCRnTsLSHPKo7Wg8HA8KwM0wrI2PulvNm8i1Scf8B0GL/J/SInlDFqgLHTcnpd3rPvOO5eT6kYfR4uKNHaD4TnWYLDBCQl8UkJA6JgXpbEWrfY8nLDwL18Oi42je8QjWeAeeyy9+5FHcr318zewOTkv2PX69+z5+c0Wjea8Fc2JPRotB6EZMlj4tISEa1DmQUaz6HRXrVptL2vM/xrqsGbnPO9duHDLiaefNrZsfVXe8ajvCi7u22eyl5Tsck8uOWjVZeG5L3gTeBUEFyVyPJ44Y0C87rGIsMDsmjz5r+zUqbtPIV2IWt8ddG36p1q2eMrrbPbEYd64Sho1GvGIEyFbAh34DwGNIENscfHrXdu21RK1bxygOJfura/fxk7QHYG1PfAuWoeTSRi6HdOmcVfPfct9+7vfSd49A12xzllZ3Si8bYO+kG6NP7jmLbjbrdd34MdW0InRJHg0GPvUzwPTxss+L4fGgLiyVOgD9MWVm9vuW7DgHtLNsYXr7rv1bEnJux6VCntHvOm3EoQsGk7FwtfNAbCn5p2/IKFZIxD6hL+xhjIW59Sp70CfSfdHDyj+3eRKTT0MyzOjFY8jEWf+2dlhWw7Hdu1SdCMeCH3FS1Ko72ADYo7kwVNfn4fy0kNtMiagySQYtG31mrD32fR+/HHSnzawgSUr62+eZcvyiHmUhXPWrGfc6eljFp+FBK9GkxGu/6uviImDGPrmNOcoKoprziuXOM4jm7AzZjxDzJQ4OlavNrMTJx6HScZYxmie4NVHd+4k5g3FyNWreB9M6VASjWATsI194sST7uXLy4jZ4oOjpmaHFw2I48GrYfBjp0zhLvv9xLzhgEXtRAfJeAk2gnPenrlztxPzyYOjsvLteJdplSacaT2zdy8xKx3w9i6LRjPmTyFs5bjmzHmLmDE2uK1bM2wFBX9oT0sbc+XBW9319dzQqVPErHRcOXqUc1VWjkrclkL4diay4ftcXV3s9RvH9OlvJXL0UAniDxo9nuf/+AExaXR0bNgwbozNE6+SF0/ZS8xKh6O09CkfenzHMrcGr25fu5a7duUKMWd0nHzuuXFnbCDY0AeTpdJS+ktW7MXFtzjQADlWxsapnl7PXTj0GTFlbMABGHgH63jInmgEW7rQk8qazcuImQNAuqdac3JskN7Qbkw2wau7o3z1nQbY7HWUmceldwuJV0dVKjvHMKnE3GhSM336TnYMJjVgaIfZzF3p6iJmlI6OdevGLAWUQ7CpE0UOT0XFQ9jYSPcUu8n0iVInU6QQQgAY6+TzLwSsJxOnX33thjA2T7zmbjL9BameAfl2NYqDg7AzQhNWmhACvLCqF+FdPVJw9u23ORdKF+Gt146SEsQpSWAJh558zj17NoQEal+kEu9kIRt7Z1RVMc7q6lXwUhWaoJIEr4b3jZ57/31ithsDI4ODnH/FbQmNFTB4wpqLrbBwCeOaXft0sgdLePzb16BUL0lHzZOF0//13wFHEfQlXoKNfQsXPsO4Z836BYykNKFECV5hzcnlLn75JenCjYGhb77BoUTJcQJvkudPepdxVlU9mQwPhxW7Iz/+MenCjQNYs0lGqgkGZ0tLf8v4li17VEmDg1c4ysq4wSNHSBduDMALnNFMO2nZD0z1/Y2rtjG2oqJ5bKZmJNEcHOLc12hQPPXSS6QLNw5OvvhiUtNMPOPMzOSa9foGxr10aYk1K7tHieMM8O0HV0UF55o5E78X1V1ZmRTCyiB6Mrk+wcur4sGVnh5UV1VSjQ0E21qzso613XVX4HcY7Dk5v0nkfPVYEJ6onp/9jJhOPk4++yz3dUqKIhlINIJ3g22tev1vsLEBXevX11jV6j4lXogxGoRBDZ6ga+SnQ+QA1s6dM2Yk3at5YpuqVH3+LVsqiLnRFYZJcZeV7VXy6z7JJHjmud//nphQOk488eSoGZonPpU7ffobYGNi7gA69+wpsRny28ZqxVAqwWCty5ZzIxLXywGD4NXl5UlJ96IR5jc2g6G968EH6S/L8t5zT51Vpbo4XkMLxFsLmiL3/QXWgaSh54knRt3QQLChNTPzUvfWrdFfreapqbnVk5Y2ZhsR0QiGg2MQUn4+ZLDrCMdOmTomxsZpIHIMX3196MZDJDQbDD9wpaUNKPWSSCWIvVujuf4Ss2g49i//OuqxmifYzK1WD6L0dTUxpzS0Ll0x25Gd3T9ejA5LBd3bg9+SowEyENjQGAuvBkIYset0F1yLb43v3a6O++4zsfn51vGwi2/Pz496XOL4w4/gDyXZeXUkgo1sRuM//Lt2GYn54gc7s+JhF5q2j9YmhZjgsfyrBcW4xLLQ0THzarAJ2IY1l/8bMZcy6Fm1ymDPzj6s5Fu8pRAM6ZhexsGrhsQ49vDDY2ZooB+foM3+3IdsQ8ykPOzV1WarRtM6WoaHMHHsoZ8SEwcw4HLBO5nGzNhwBNCm07U3mUzKv4w2EuzLlpntWq0jmYYHgzrLyoiZEVA6ePSBB0b1dKyQ0FebRmP/stgc/ru+owX/A7uMzkmT9sFXMpSeMIHB+z75BNv6UouFs+nzRt2rYaUPx2ijcb9n0/bkHL6PF/4VK25FilnhZ5OVSCch7z7+6KP4VbajaWjQHVb47EZjiwf1iXRvfMPd0NBg02oPOtLTr8KZl/E4c+UJuoGOcNQPjU9NrvnzQ19leqPhvK0rxz9//h12g7GJVasvtSHvUWLDIx6CcaFt0MGVmXnJptd/1l5Xd3u3w5FL1P1uwrf23pnO8vJ1jqKiP1lUqi6rSjUAazjwxhBYJobHGrb95DwZIAv3wFgCq55QF14XysgYaEZtOAoLP0TtrfatXTuTqPH/AHAdHRMddQtm2qdMabDlmZa0375qh3t27a9a1Jr9yLD7hLSoNfvcNbX/2blq1Q6bybQE7oGfqOgdlx7LMP8H4/fxlyO1chQAAAAASUVORK5CYII=;" vertex="1" parent="1">
          <mxGeometry x="396" y="242.32" width="35.5" height="35.5" as="geometry" />
        </mxCell>
      </root>
    </mxGraphModel>
  </diagram>
</mxfile>
